<!DOCTYPE svg PUBLIC "-//W3C//DTD SVG 20010904//EN" "http://www.w3.org/TR/2001/REC-SVG-20010904/DTD/svg10.dtd">
<svg version="1.0" xmlns="http://www.w3.org/2000/svg" width="240px" height="125px" viewBox="0 0 2400 1250" preserveAspectRatio="xMidYMid meet">
<g id="layer1" fill="#f08f34" stroke="none">
 <path d="M364 404 c17 -71 64 -140 82 -122 2 3 -5 25 -15 49 -11 24 -16 45 -11 47 16 6 80 -27 80 -41 0 -17 -45 -67 -60 -67 -5 0 -69 23 -142 50 -72 28 -133 48 -135 46 -6 -6 127 -83 205 -118 37 -17 75 -28 89 -25 13 2 21 2 19 -1 -13 -13 96 -72 133 -72 9 0 -12 13 -45 29 -34 16 -65 34 -69 41 -4 7 3 23 19 39 l27 26 -10 -27 c-9 -24 -7 -30 14 -44 39 -25 55 -12 55 43 0 75 -25 114 -90 140 -30 12 -77 25 -104 28 l-49 8 7 -29z"/>
 </g>
<g id="layer2" fill="#053a79" stroke="none">
 <path d="M305 1080 c3 -5 21 -11 38 -11 25 -1 27 -3 9 -6 -18 -3 -23 -10 -19 -24 5 -18 4 -18 -20 1 -27 21 -83 27 -83 9 0 -22 22 -49 51 -65 35 -18 59 -13 59 12 0 16 1 16 19 0 20 -18 91 -31 91 -17 0 10 -60 94 -74 103 -17 12 -78 10 -71 -2z m-1 -62 c5 -9 7 -20 3 -24 -8 -8 -47 24 -47 38 0 15 32 5 44 -14z m96 1 c7 -11 10 -22 8 -25 -6 -6 -48 26 -48 37 0 17 29 9 40 -12z"/>
 <path d="M156 1048 c4 -7 16 -25 26 -40 20 -29 24 -53 7 -42 -7 4 -10 1 -7 -7 3 -9 23 -15 52 -17 36 -2 47 0 43 10 -2 7 -12 12 -21 12 -10 -1 -30 17 -49 47 -18 27 -38 49 -45 49 -8 0 -10 -5 -6 -12z"/>
 <path d="M430 1044 c0 -8 13 -29 30 -45 23 -23 37 -29 64 -27 22 1 42 -4 54 -15 24 -22 27 -22 28 8 1 15 -4 25 -11 25 -19 0 -45 39 -38 56 3 9 -2 14 -16 14 -25 0 -26 -9 -6 -36 8 -10 15 -22 15 -26 0 -12 -58 -10 -65 2 -3 6 3 10 15 10 31 0 14 20 -18 21 -24 2 -24 2 -4 6 31 6 17 23 -19 23 -20 0 -29 -5 -29 -16z"/>
 <path d="M610 1000 c38 -55 67 -80 54 -45 -4 8 1 17 10 21 22 8 20 24 -8 59 -29 36 -45 28 -21 -9 15 -23 15 -26 2 -26 -9 0 -24 14 -34 30 -9 17 -23 30 -31 30 -7 0 4 -24 28 -60z"/>
 <path d="M680 1044 c0 -25 56 -74 84 -74 14 0 26 5 26 10 0 6 -11 10 -24 10 -14 0 -28 5 -31 10 -3 6 3 10 15 10 31 0 14 20 -18 21 -24 2 -24 2 -4 6 31 6 17 23 -19 23 -20 0 -29 -5 -29 -16z"/>
 <path d="M760 1055 c0 -3 12 -23 26 -45 18 -27 34 -40 50 -40 30 0 38 14 18 31 -13 10 -17 10 -23 0 -6 -9 -15 -2 -30 23 -20 31 -41 47 -41 31z"/>
 <path d="M910 1052 c0 -4 7 -18 16 -30 8 -12 13 -26 10 -30 -4 -8 45 -52 57 -52 3 0 5 11 5 25 0 14 -6 25 -14 25 -18 0 -44 39 -37 56 3 9 -2 14 -16 14 -12 0 -21 -3 -21 -8z"/>
 <path d="M970 1046 c0 -27 44 -67 75 -69 41 -3 47 32 9 62 -31 24 -84 29 -84 7z m70 -21 c19 -23 8 -37 -18 -20 -12 9 -22 20 -22 26 0 14 26 11 40 -6z"/>
 <path d="M1140 1046 c0 -8 5 -18 10 -21 6 -3 10 -14 10 -24 0 -14 48 -61 63 -61 3 0 5 11 5 25 0 14 -6 25 -14 25 -18 0 -44 39 -37 56 3 9 -2 14 -16 14 -12 0 -21 -6 -21 -14z"/>
 <path d="M1205 1033 c35 -55 66 -93 76 -93 6 0 9 6 6 13 -2 6 3 17 11 23 13 10 13 16 -7 48 -13 20 -27 36 -32 36 -13 0 -11 -7 7 -35 15 -22 15 -25 1 -25 -9 0 -25 14 -37 30 -27 38 -49 40 -25 3z"/>
 <path d="M1300 1041 c0 -25 55 -71 86 -71 13 0 24 5 24 10 0 6 -11 10 -24 10 -14 0 -28 5 -31 10 -3 6 3 10 15 10 31 0 14 20 -18 21 -24 2 -24 2 -4 6 31 6 17 23 -19 23 -22 0 -29 -5 -29 -19z"/>
 <path d="M1440 1055 c0 -3 12 -23 26 -45 22 -33 31 -39 56 -36 16 2 31 6 34 9 9 8 -40 77 -54 77 -9 0 -7 -9 8 -29 30 -43 7 -48 -27 -6 -25 32 -43 44 -43 30z"/>
 <path d="M1545 1050 c-10 -16 13 -49 46 -65 37 -20 105 -17 101 4 -3 12 0 12 12 2 8 -7 27 -14 43 -17 15 -3 32 -12 36 -20 11 -19 31 -18 23 1 -3 8 -1 15 4 15 6 0 10 5 10 10 0 6 -6 10 -13 10 -21 0 -48 35 -41 54 5 12 0 16 -20 16 -31 0 -31 -3 -10 -36 20 -30 14 -40 -15 -24 -13 6 -21 21 -21 35 0 16 -6 25 -15 25 -8 0 -15 -5 -15 -10 0 -7 -7 -7 -21 0 -31 17 -35 4 -5 -15 14 -10 26 -24 26 -31 0 -16 -38 -18 -60 -4 -13 8 -12 10 3 10 31 0 18 20 -15 21 -24 1 -27 3 -10 6 12 2 22 9 22 14 0 12 -57 12 -65 -1z"/>
 <path d="M1857 1029 c27 -46 70 -95 78 -88 7 8 -74 119 -87 119 -5 0 -1 -14 9 -31z"/>
 <path d="M1890 1044 c0 -9 14 -29 31 -44 25 -24 37 -28 72 -25 23 2 43 4 44 4 1 1 -2 13 -7 27 l-10 26 37 -31 c50 -42 55 -30 8 19 -51 52 -76 54 -68 5 6 -37 -2 -42 -42 -25 -19 8 -19 9 3 9 35 1 26 21 -10 22 -24 1 -27 3 -10 6 35 7 26 23 -13 23 -25 0 -35 -4 -35 -16z"/>
 <path d="M2080 1041 c0 -25 55 -71 86 -71 13 0 24 5 24 10 0 6 -11 10 -24 10 -34 0 -42 17 -11 22 20 4 29 -2 50 -33 22 -34 45 -51 45 -33 0 15 -77 113 -89 114 -11 0 -11 -3 -1 -15 17 -20 12 -22 -30 -14 -22 4 -27 7 -12 8 33 2 27 21 -8 21 -23 0 -30 -5 -30 -19z"/>
 <path d="M312 824 c-40 -28 -27 -69 57 -184 l44 -60 68 0 c38 0 69 3 69 6 0 3 -18 31 -40 61 -22 31 -40 62 -40 70 0 10 31 13 150 13 l150 0 -36 55 -37 55 -181 0 c-148 0 -186 -3 -204 -16z"/>
 <path d="M760 827 c0 -7 18 -38 40 -67 22 -30 59 -82 81 -117 l41 -63 69 0 69 0 -83 128 -83 127 -67 3 c-51 2 -67 0 -67 -11z"/>
 <path d="M1146 823 c-9 -28 -46 -214 -46 -229 0 -11 18 -14 74 -14 71 0 75 -2 100 -31 51 -60 33 -69 -136 -69 -76 0 -138 -2 -138 -5 0 -3 15 -28 33 -55 l32 -50 170 0 c94 0 175 4 181 8 16 10 34 48 34 69 0 32 -66 159 -95 181 -15 12 -45 27 -66 34 -32 9 -38 15 -34 32 35 153 37 142 -39 145 -54 2 -65 -1 -70 -16z"/>
 <path d="M1310 833 c0 -4 37 -63 81 -130 l82 -123 64 0 c36 0 63 4 61 8 -1 5 -39 63 -83 130 l-80 122 -62 0 c-35 0 -63 -3 -63 -7z"/>
 <path d="M1503 826 c3 -8 40 -67 83 -130 l76 -116 150 0 c116 0 148 3 142 13 -4 6 -22 33 -41 59 l-34 47 -81 3 -81 3 -46 68 -45 67 -64 0 c-51 0 -63 -3 -59 -14z"/>
 <path d="M507 464 c16 -26 76 -69 116 -83 28 -11 387 -16 387 -6 0 3 -15 28 -33 55 l-34 50 -225 3 -225 2 14 -21z"/>
 <path d="M1732 480 c2 -3 19 -29 38 -57 l35 -53 218 0 218 0 -18 30 c-49 84 -33 79 -276 82 -119 2 -216 1 -215 -2z"/>
 <path d="M1576 425 l37 -55 69 0 68 0 -36 55 -37 55 -69 0 -68 0 36 -55z"/>
 </g>
<g id="layer3" fill="#fdfefe" stroke="none">
 <path d="M0 625 l0 -625 1200 0 1200 0 0 625 0 625 -1200 0 -1200 0 0 -625z m376 457 c14 -9 74 -93 74 -103 0 -14 -71 -1 -91 17 -18 16 -19 16 -19 0 0 -25 -24 -30 -59 -12 -29 16 -51 43 -51 65 0 18 56 12 83 -9 24 -19 25 -19 20 -1 -4 14 1 21 19 24 18 3 16 5 -9 6 -43 1 -54 21 -11 21 18 0 38 -4 44 -8z m-169 -71 c19 -30 39 -48 49 -47 9 0 19 -5 21 -12 4 -10 -7 -12 -43 -10 -29 2 -49 8 -52 17 -3 8 0 11 7 7 17 -11 13 13 -7 42 -31 45 -34 52 -20 52 7 0 27 -22 45 -49z m288 40 c3 -5 -5 -12 -17 -14 -20 -4 -20 -4 4 -6 32 -1 49 -21 18 -21 -12 0 -18 -4 -15 -10 7 -12 65 -14 65 -2 0 4 -7 16 -15 26 -20 27 -19 36 6 36 14 0 19 -5 16 -14 -7 -17 19 -56 38 -56 7 0 12 -10 11 -25 -1 -30 -4 -30 -28 -8 -12 11 -32 16 -54 15 -27 -2 -41 4 -64 27 -39 39 -39 61 -1 61 17 0 32 -4 36 -9z m118 -21 c10 -16 25 -30 34 -30 13 0 13 3 -2 26 -24 37 -8 45 21 9 28 -35 30 -51 8 -59 -9 -4 -14 -13 -10 -21 13 -35 -16 -10 -54 45 -24 36 -35 60 -28 60 8 0 22 -13 31 -30z m132 21 c3 -5 -5 -12 -17 -14 -20 -4 -20 -4 4 -6 32 -1 49 -21 18 -21 -12 0 -18 -4 -15 -10 3 -5 17 -10 31 -10 13 0 24 -4 24 -10 0 -22 -53 -9 -81 19 -38 39 -38 61 0 61 17 0 32 -4 36 -9z m56 -27 c15 -25 24 -32 30 -23 6 10 10 10 23 0 20 -17 12 -31 -18 -31 -16 0 -32 13 -50 40 -28 43 -31 50 -17 50 5 0 19 -16 32 -36z m146 22 c-7 -17 19 -56 37 -56 8 0 14 -11 14 -25 0 -14 -2 -25 -5 -25 -12 0 -61 44 -57 52 3 4 -2 18 -10 30 -21 30 -20 38 5 38 14 0 19 -5 16 -14z m107 -7 c38 -30 32 -65 -9 -62 -31 2 -75 42 -75 69 0 22 53 17 84 -7z m123 7 c-7 -17 19 -56 37 -56 8 0 14 -11 14 -25 0 -14 -2 -25 -5 -25 -15 0 -63 47 -63 61 0 10 -4 21 -10 24 -18 11 -11 35 11 35 14 0 19 -5 16 -14z m53 -16 c12 -16 28 -30 37 -30 14 0 14 3 -1 25 -18 28 -20 35 -7 35 5 0 19 -16 32 -36 20 -32 20 -38 7 -48 -8 -6 -13 -17 -11 -23 9 -25 -16 -13 -40 20 -43 57 -60 87 -49 87 6 0 20 -13 32 -30z m135 21 c3 -5 -5 -12 -17 -14 -20 -4 -20 -4 4 -6 32 -1 49 -21 18 -21 -12 0 -18 -4 -15 -10 3 -5 17 -10 31 -10 13 0 24 -4 24 -10 0 -19 -49 -10 -79 16 -41 34 -41 64 -2 64 17 0 32 -4 36 -9z m118 -26 c34 -42 57 -37 27 6 -15 20 -17 29 -8 29 14 0 63 -69 54 -77 -3 -3 -18 -7 -34 -9 -25 -3 -34 3 -56 36 -14 22 -26 42 -26 45 0 14 18 2 43 -30z m127 26 c0 -5 -10 -12 -22 -14 -17 -3 -14 -5 10 -6 33 -1 46 -21 15 -21 -15 0 -16 -2 -3 -10 22 -14 60 -12 60 4 0 7 -12 21 -26 31 -30 19 -26 32 5 15 14 -7 21 -7 21 0 0 5 7 10 15 10 9 0 15 -9 15 -25 0 -14 8 -29 21 -35 29 -16 35 -6 15 24 -21 33 -21 36 10 36 20 0 25 -4 20 -16 -7 -19 20 -54 41 -54 7 0 13 -4 13 -10 0 -5 -4 -10 -10 -10 -5 0 -7 -7 -4 -15 8 -19 -12 -20 -23 -1 -4 8 -21 17 -36 20 -16 3 -35 10 -43 17 -12 10 -15 10 -12 -2 4 -21 -64 -24 -101 -4 -33 16 -56 49 -46 65 8 13 65 13 65 1z m289 -47 c23 -31 39 -59 36 -63 -8 -7 -51 42 -78 88 -30 51 -3 35 42 -25z m61 47 c0 -5 -10 -12 -22 -14 -17 -3 -14 -5 10 -6 36 -1 45 -21 10 -22 -22 0 -22 -1 -3 -9 40 -17 48 -12 42 25 -8 49 17 47 68 -5 47 -49 42 -61 -8 -19 l-37 31 10 -26 c5 -14 8 -26 7 -27 -1 0 -21 -2 -44 -4 -35 -3 -47 1 -72 25 -42 39 -41 60 4 60 19 0 35 -4 35 -9z m180 -1 c0 -5 -10 -11 -22 -11 -15 -1 -10 -4 12 -8 42 -8 47 -6 30 14 -10 12 -10 15 1 15 12 -1 89 -99 89 -114 0 -18 -23 -1 -45 33 -21 31 -30 37 -50 33 -31 -5 -23 -22 11 -22 13 0 24 -4 24 -10 0 -19 -49 -10 -79 16 -41 34 -41 64 -1 64 17 0 30 -4 30 -10z m-1406 -265 l36 -55 -150 0 c-119 0 -150 -3 -150 -13 0 -8 18 -39 40 -70 22 -30 40 -58 40 -61 0 -3 -31 -6 -69 -6 l-68 0 -44 60 c-84 115 -97 156 -57 184 18 13 56 16 204 16 l181 0 37 -55z m243 -77 l83 -128 -69 0 -69 0 -41 63 c-22 35 -59 87 -81 117 -56 75 -54 82 27 78 l67 -3 83 -127z m303 113 c0 -14 -7 -47 -25 -127 -4 -17 2 -23 34 -32 21 -7 51 -22 66 -34 29 -22 95 -149 95 -181 0 -21 -18 -59 -34 -69 -6 -4 -87 -8 -181 -8 l-170 0 -32 50 c-18 27 -33 52 -33 55 0 3 62 5 138 5 169 0 187 9 136 69 -25 29 -29 31 -100 31 -56 0 -74 3 -74 14 0 15 37 201 46 229 5 15 16 18 70 16 51 -2 64 -5 64 -18z m235 -103 c44 -67 82 -125 83 -130 2 -4 -25 -8 -61 -8 l-64 0 -82 123 c-44 67 -81 126 -81 130 0 4 28 7 63 7 l62 0 80 -122z m156 55 l46 -68 81 -3 81 -3 34 -47 c19 -26 37 -53 41 -59 6 -10 -26 -13 -142 -13 l-150 0 -76 116 c-43 63 -80 122 -83 130 -4 11 8 14 59 14 l64 0 45 -67z m-694 -343 c18 -27 33 -52 33 -55 0 -10 -359 -5 -387 6 -40 14 -100 57 -116 83 l-14 21 225 -2 225 -3 34 -50z m1208 25 c11 -14 29 -38 38 -55 l18 -30 -218 0 -218 0 -35 53 c-19 28 -36 54 -38 57 -1 3 96 4 215 2 217 -3 218 -3 238 -27z m-471 -30 l36 -55 -68 0 -69 0 -37 55 -36 55 68 0 69 0 37 -55z m-1204 -28 c65 -26 90 -65 90 -140 0 -55 -16 -68 -55 -43 -21 14 -23 20 -14 44 l10 27 -27 -26 c-16 -16 -23 -32 -19 -39 4 -7 35 -25 69 -41 33 -16 54 -29 45 -29 -37 0 -146 59 -133 72 2 3 -6 3 -19 1 -14 -3 -52 8 -89 25 -78 35 -211 112 -205 118 2 2 63 -18 135 -46 73 -27 137 -50 142 -50 15 0 60 50 60 67 0 14 -64 47 -80 41 -5 -2 0 -23 11 -47 10 -24 17 -46 15 -49 -18 -18 -65 51 -82 122 l-7 29 49 -8 c27 -3 74 -16 104 -28z"/>
 <path d="M260 1032 c0 -14 39 -46 47 -38 4 4 2 15 -3 24 -12 19 -44 29 -44 14z"/>
 <path d="M360 1031 c0 -11 42 -43 48 -37 2 3 -1 14 -8 25 -11 21 -40 29 -40 12z"/>
 <path d="M1000 1031 c0 -6 10 -17 22 -26 26 -17 37 -3 18 20 -14 17 -40 20 -40 6z"/>
 </g>

</svg>