<svg width="24" height="23" viewBox="0 0 24 23" version="1.1" xmlns="http://www.w3.org/2000/svg" xmlns:xlink="http://www.w3.org/1999/xlink">
<title>Home</title>
<g id="Canvas" transform="translate(-888 -1491)">
<g id="Home">
<g id="Stroke 8186">
<use xlink:href="#path0_stroke" transform="translate(891.5 1503.5)"/>
</g>
<g id="Stroke 8187">
<use xlink:href="#path1_stroke" transform="translate(888.5 1491.5)"/>
</g>
<g id="Stroke 8188">
<use xlink:href="#path2_stroke" transform="translate(904 1492.5)"/>
</g>
</g>
</g>
<defs>
<path id="path0_stroke" d="M 0.5 0C 0.5 -0.276142 0.276142 -0.5 0 -0.5C -0.276142 -0.5 -0.5 -0.276142 -0.5 0L 0.5 0ZM 0 10L -0.5 10C -0.5 10.2761 -0.276142 10.5 1.11022e-16 10.5L 0 10ZM 6 10L 6 10.5C 6.27614 10.5 6.5 10.2761 6.5 10L 6 10ZM 6 3L 6 2.5C 5.72386 2.5 5.5 2.72386 5.5 3L 6 3ZM 11 3L 11.5 3C 11.5 2.72386 11.2761 2.5 11 2.5L 11 3ZM 11 10L 10.5 10C 10.5 10.2761 10.7239 10.5 11 10.5L 11 10ZM 17 10L 17 10.5C 17.2761 10.5 17.5 10.2761 17.5 10L 17 10ZM 17.5 0.5C 17.5 0.223858 17.2761 0 17 0C 16.7239 0 16.5 0.223858 16.5 0.5L 17.5 0.5ZM -0.5 0L -0.5 10L 0.5 10L 0.5 0L -0.5 0ZM 0 10.5L 6 10.5L 6 9.5L 0 9.5L 0 10.5ZM 6.5 10L 6.5 3L 5.5 3L 5.5 10L 6.5 10ZM 6 3.5L 11 3.5L 11 2.5L 6 2.5L 6 3.5ZM 10.5 3L 10.5 10L 11.5 10L 11.5 3L 10.5 3ZM 11 10.5L 17 10.5L 17 9.5L 11 9.5L 11 10.5ZM 17.5 10L 17.5 0.5L 16.5 0.5L 16.5 10L 17.5 10Z"/>
<path id="path1_stroke" d="M -0.353553 11.1464C -0.548816 11.3417 -0.548816 11.6583 -0.353553 11.8536C -0.158291 12.0488 0.158291 12.0488 0.353553 11.8536L -0.353553 11.1464ZM 11.5 0L 11.8536 -0.353553C 11.6583 -0.548816 11.3417 -0.548816 11.1464 -0.353553L 11.5 0ZM 22.6464 11.8536C 22.8417 12.0488 23.1583 12.0488 23.3536 11.8536C 23.5488 11.6583 23.5488 11.3417 23.3536 11.1464L 22.6464 11.8536ZM 0.353553 11.8536L 11.8536 0.353553L 11.1464 -0.353553L -0.353553 11.1464L 0.353553 11.8536ZM 11.1464 0.353553L 22.6464 11.8536L 23.3536 11.1464L 11.8536 -0.353553L 11.1464 0.353553Z"/>
<path id="path2_stroke" d="M 0 -0.5C -0.276142 -0.5 -0.5 -0.276142 -0.5 0C -0.5 0.276142 -0.276142 0.5 0 0.5L 0 -0.5ZM 3.5 0L 4 0C 4 -0.276142 3.77614 -0.5 3.5 -0.5L 3.5 0ZM 3 3.5C 3 3.77614 3.22386 4 3.5 4C 3.77614 4 4 3.77614 4 3.5L 3 3.5ZM 0 0.5L 3.5 0.5L 3.5 -0.5L 0 -0.5L 0 0.5ZM 3 0L 3 3.5L 4 3.5L 4 0L 3 0Z"/>
</defs>
</svg>
