<?xml version="1.0" encoding="UTF-8" ?>
<!DOCTYPE svg PUBLIC "-//W3C//DTD SVG 1.1//EN" "http://www.w3.org/Graphics/SVG/1.1/DTD/svg11.dtd">
<svg width="1987pt" height="671pt" viewBox="0 0 1987 671" version="1.1" xmlns="http://www.w3.org/2000/svg">
<g id="#ffffffff">
<path fill="#ffffff" opacity="1.00" d=" M 152.15 88.40 C 197.02 57.94 250.71 40.74 304.93 39.43 C 368.46 37.49 432.39 57.35 483.59 95.03 C 472.28 106.41 460.85 117.68 449.64 129.15 C 435.10 119.53 419.96 110.68 403.79 104.07 C 363.08 86.96 317.52 81.69 273.98 89.04 C 230.45 96.22 189.16 115.99 156.05 145.11 C 120.49 176.17 94.46 217.94 82.27 263.55 C 71.11 305.07 70.97 349.53 82.07 391.08 C 94.81 439.19 122.65 483.21 160.87 515.12 C 189.97 539.55 225.05 556.82 262.21 564.79 C 304.24 573.84 348.72 571.45 389.45 557.61 C 412.31 549.88 433.96 538.61 453.44 524.39 C 464.73 535.64 476.01 546.92 487.30 558.18 C 458.14 579.84 424.87 595.91 389.83 605.42 C 316.65 625.48 235.53 616.44 169.47 578.72 C 139.80 561.93 113.22 539.73 91.33 513.60 C 54.97 470.37 31.70 416.28 25.50 360.12 C 20.66 317.62 25.60 274.05 39.86 233.72 C 60.44 174.92 100.47 123.19 152.15 88.40 Z" />
<path fill="#ffffff" opacity="1.00" d=" M 1427.88 189.84 C 1454.21 170.68 1486.42 159.80 1518.97 159.07 C 1555.25 158.00 1591.73 169.51 1620.82 191.22 C 1648.46 211.62 1669.30 241.01 1679.44 273.84 C 1670.93 276.51 1662.42 279.16 1653.91 281.82 C 1644.17 250.04 1622.53 222.14 1594.20 204.76 C 1564.43 186.17 1527.28 179.89 1493.10 187.92 C 1458.78 195.68 1428.01 217.47 1409.04 247.06 C 1389.07 277.71 1382.37 316.44 1390.19 352.11 C 1397.34 385.53 1417.30 416.06 1445.25 435.78 C 1473.50 456.03 1509.80 464.30 1544.09 458.90 C 1575.53 454.17 1605.00 437.80 1625.79 413.76 C 1638.61 399.06 1648.18 381.58 1653.91 362.95 C 1662.41 365.60 1670.93 368.25 1679.44 370.91 C 1670.96 399.63 1654.10 425.78 1631.42 445.32 C 1602.42 470.53 1564.36 484.84 1525.98 485.48 C 1492.53 486.21 1458.84 476.63 1431.15 457.75 C 1402.03 438.11 1379.68 408.74 1368.34 375.51 C 1356.80 342.13 1356.51 304.96 1367.83 271.48 C 1378.69 238.89 1400.03 209.93 1427.88 189.84 Z" />
<path fill="#ffffff" opacity="1.00" d=" M 805.06 159.53 C 898.48 159.53 991.90 159.53 1085.31 159.53 C 1085.31 168.07 1085.31 176.61 1085.31 185.16 C 1043.04 185.16 1000.77 185.16 958.50 185.16 C 958.50 285.27 958.50 385.39 958.50 485.50 C 949.62 485.50 940.75 485.51 931.87 485.50 C 931.87 385.38 931.87 285.27 931.87 185.16 C 889.60 185.16 847.33 185.16 805.06 185.16 C 805.06 176.61 805.06 168.07 805.06 159.53 Z" />
<path fill="#ffffff" opacity="1.00" d=" M 1201.15 159.50 C 1210.34 159.50 1219.53 159.49 1228.73 159.51 C 1271.88 268.18 1315.07 376.83 1358.23 485.50 C 1349.11 485.50 1339.99 485.51 1330.88 485.50 C 1321.94 462.99 1312.98 440.50 1304.04 418.00 C 1244.64 418.00 1185.23 418.00 1125.83 418.00 C 1116.86 440.50 1107.94 463.01 1098.96 485.51 C 1089.85 485.49 1080.74 485.51 1071.63 485.50 C 1114.80 376.83 1157.98 268.17 1201.15 159.50 M 1214.93 193.84 C 1188.54 260.06 1162.15 326.27 1135.77 392.49 C 1188.55 392.50 1241.32 392.49 1294.09 392.50 C 1267.71 326.28 1241.33 260.06 1214.93 193.84 Z" />
<path fill="#ffffff" opacity="1.00" d=" M 1673.56 159.53 C 1766.98 159.53 1860.40 159.53 1953.81 159.53 C 1953.81 168.07 1953.81 176.61 1953.81 185.16 C 1911.54 185.16 1869.27 185.16 1827.00 185.15 C 1826.99 285.27 1827.01 385.39 1826.99 485.51 C 1818.12 485.49 1809.24 485.50 1800.38 485.50 C 1800.37 385.39 1800.38 285.27 1800.38 185.16 C 1758.10 185.16 1715.83 185.16 1673.56 185.16 C 1673.55 176.61 1673.56 168.07 1673.56 159.53 Z" />
<path fill="#ffffff" opacity="1.00" d=" M 626.38 616.53 C 626.38 577.85 626.37 539.17 626.38 500.49 C 630.97 500.50 635.56 500.49 640.16 500.50 C 640.16 539.17 640.16 577.85 640.16 616.52 C 635.56 616.53 630.97 616.52 626.38 616.53 Z" />
<path fill="#ffffff" opacity="1.00" d=" M 668.38 616.53 C 668.38 577.85 668.37 539.17 668.38 500.49 C 672.97 500.50 677.56 500.49 682.16 500.50 C 682.16 539.17 682.15 577.85 682.16 616.52 C 677.56 616.53 672.97 616.52 668.38 616.53 Z" />
<path fill="#ffffff" opacity="1.00" d=" M 1412.88 500.50 C 1417.46 500.49 1422.05 500.50 1426.65 500.50 C 1426.66 539.17 1426.65 577.85 1426.65 616.53 C 1422.05 616.52 1417.46 616.53 1412.87 616.52 C 1412.88 577.85 1412.87 539.17 1412.88 500.50 Z" />
<path fill="#ffffff" opacity="1.00" d=" M 942.12 502.03 C 947.51 499.84 954.87 503.78 954.49 510.00 C 954.40 517.31 944.30 520.55 939.27 515.81 C 934.48 512.06 936.36 503.69 942.12 502.03 Z" />
<path fill="#ffffff" opacity="1.00" d=" M 1615.20 502.19 C 1620.63 499.66 1628.38 503.62 1627.99 510.01 C 1627.88 517.49 1617.37 520.64 1612.45 515.52 C 1608.18 511.75 1609.87 504.05 1615.20 502.19 Z" />
<path fill="#ffffff" opacity="1.00" d=" M 1231.09 511.38 C 1240.46 506.15 1251.46 504.69 1262.06 505.03 C 1269.62 505.28 1277.40 505.88 1284.41 508.98 C 1284.40 513.82 1284.39 518.65 1284.42 523.49 C 1275.18 517.62 1263.88 515.97 1253.12 516.69 C 1246.56 517.24 1239.50 518.95 1234.95 524.05 C 1231.15 528.02 1230.69 534.29 1232.67 539.23 C 1234.72 543.95 1239.20 546.91 1243.51 549.36 C 1251.65 553.75 1260.33 557.04 1268.43 561.51 C 1275.33 565.24 1282.06 570.00 1286.18 576.85 C 1290.08 583.17 1290.17 591.22 1288.04 598.16 C 1285.14 606.88 1277.07 612.79 1268.58 615.45 C 1257.72 618.81 1246.06 619.24 1234.87 617.47 C 1228.61 616.48 1222.26 615.22 1216.61 612.23 C 1216.62 607.16 1216.64 602.10 1216.60 597.04 C 1225.08 603.23 1235.62 605.98 1245.96 606.88 C 1253.60 607.13 1261.92 606.80 1268.47 602.40 C 1274.37 598.47 1276.14 590.14 1273.42 583.81 C 1270.97 578.71 1266.06 575.47 1261.29 572.79 C 1253.99 568.90 1246.32 565.75 1238.98 561.96 C 1231.98 558.39 1224.84 554.20 1220.47 547.46 C 1216.67 541.84 1216.03 534.60 1217.47 528.10 C 1219.18 520.82 1224.69 514.96 1231.09 511.38 Z" />
<path fill="#ffffff" opacity="1.00" d=" M 884.31 519.01 C 888.90 517.66 893.49 516.31 898.09 514.97 C 898.09 522.65 898.09 530.32 898.09 538.00 C 905.29 538.00 912.49 537.99 919.69 538.00 C 919.68 541.51 919.68 545.02 919.68 548.53 C 912.48 548.53 905.29 548.53 898.09 548.53 C 898.10 563.68 898.07 578.83 898.11 593.98 C 898.18 598.55 898.95 604.20 903.48 606.51 C 908.59 608.87 914.87 608.39 919.71 605.55 C 919.67 609.08 919.68 612.61 919.70 616.15 C 913.47 618.82 906.40 619.02 899.81 617.84 C 894.57 616.84 889.61 613.71 887.16 608.89 C 884.20 603.42 884.24 597.03 884.31 590.99 C 884.32 576.84 884.31 562.68 884.31 548.53 C 879.40 548.52 874.50 548.53 869.59 548.53 C 869.59 545.01 869.59 541.51 869.59 538.00 C 874.50 537.99 879.40 538.00 884.31 538.00 C 884.31 531.67 884.31 525.34 884.31 519.01 Z" />
<path fill="#ffffff" opacity="1.00" d=" M 1556.81 519.01 C 1561.40 517.66 1565.99 516.31 1570.60 514.97 C 1570.58 522.65 1570.59 530.32 1570.59 538.00 C 1577.79 538.00 1584.98 538.00 1592.19 538.00 C 1592.18 541.51 1592.18 545.01 1592.19 548.52 C 1584.99 548.53 1577.79 548.52 1570.59 548.53 C 1570.60 563.69 1570.58 578.84 1570.60 594.00 C 1570.70 598.48 1571.41 604.04 1575.80 606.41 C 1580.93 608.91 1587.29 608.38 1592.21 605.59 C 1592.16 609.11 1592.17 612.64 1592.20 616.17 C 1584.52 619.21 1575.54 619.45 1567.84 616.42 C 1560.17 613.34 1556.82 604.67 1556.86 596.92 C 1556.75 580.79 1556.84 564.66 1556.81 548.53 C 1551.90 548.53 1547.00 548.52 1542.10 548.53 C 1542.08 545.02 1542.08 541.51 1542.09 538.00 C 1546.99 537.99 1551.90 538.00 1556.81 538.00 C 1556.80 531.66 1556.81 525.33 1556.81 519.01 Z" />
<path fill="#ffffff" opacity="1.00" d=" M 553.56 536.71 C 563.89 535.25 574.93 535.74 584.41 540.46 C 592.95 544.68 599.35 552.72 601.94 561.85 C 604.39 570.44 604.60 579.67 602.74 588.40 C 600.55 598.57 593.94 607.68 584.89 612.83 C 575.61 618.17 564.46 619.27 553.98 618.08 C 544.63 617.02 535.49 612.85 529.20 605.74 C 523.26 599.28 520.15 590.59 519.65 581.90 C 519.00 571.53 520.78 560.51 527.07 551.98 C 533.25 543.43 543.23 538.20 553.56 536.71 M 553.39 547.61 C 543.94 549.91 536.72 558.18 534.72 567.57 C 532.45 578.22 533.23 590.68 540.77 599.17 C 546.47 605.80 555.56 608.47 564.08 607.94 C 571.28 607.74 578.72 605.04 583.33 599.30 C 589.10 592.30 590.25 582.73 589.76 573.97 C 589.35 565.84 586.61 557.26 580.04 552.02 C 572.64 546.14 562.30 545.49 553.39 547.61 Z" />
<path fill="#ffffff" opacity="1.00" d=" M 709.75 555.72 C 715.35 545.72 725.51 538.26 736.91 536.55 C 745.58 535.29 754.89 536.00 762.73 540.22 C 769.96 544.12 775.11 551.24 777.36 559.06 C 779.51 566.00 779.39 573.34 779.35 580.53 C 759.14 580.54 738.94 580.52 718.73 580.53 C 718.98 587.80 720.96 595.47 726.34 600.67 C 731.96 606.34 740.29 608.26 748.05 607.96 C 757.19 607.80 766.06 604.39 773.39 599.01 C 773.37 602.99 773.37 606.99 773.38 610.98 C 763.59 617.34 751.52 618.92 740.07 618.41 C 731.33 617.98 722.46 615.04 716.06 608.91 C 709.67 603.03 706.17 594.60 705.08 586.10 C 703.73 575.84 704.58 564.88 709.75 555.72 M 727.15 553.20 C 722.51 557.61 719.93 563.75 718.92 569.99 C 734.37 570.01 749.82 570.00 765.27 570.00 C 765.25 562.44 762.81 554.14 756.15 549.83 C 747.25 544.31 734.53 545.69 727.15 553.20 Z" />
<path fill="#ffffff" opacity="1.00" d=" M 806.72 547.75 C 813.18 541.37 821.92 537.65 830.86 536.52 C 840.31 535.34 850.19 536.00 859.04 539.74 C 859.02 543.99 859.02 548.24 859.04 552.50 C 850.52 547.15 839.87 545.05 830.06 547.56 C 820.89 549.87 813.30 557.22 810.41 566.18 C 808.14 573.26 808.05 581.01 809.89 588.19 C 811.89 596.03 817.71 602.81 825.27 605.77 C 836.35 610.10 849.34 607.93 858.90 601.00 C 858.86 605.02 858.87 609.04 858.88 613.07 C 848.85 618.46 836.92 619.53 825.81 617.67 C 815.14 615.88 805.34 609.37 799.83 600.03 C 794.63 591.36 793.69 580.76 795.11 570.92 C 796.32 562.21 800.32 553.84 806.72 547.75 Z" />
<path fill="#ffffff" opacity="1.00" d=" M 1008.56 536.71 C 1018.66 535.28 1029.41 535.72 1038.77 540.14 C 1047.07 544.05 1053.51 551.50 1056.40 560.18 C 1059.26 568.77 1059.62 578.12 1058.03 587.00 C 1056.19 597.21 1050.01 606.55 1041.19 612.05 C 1032.02 617.86 1020.70 619.22 1010.07 618.20 C 1000.83 617.33 991.69 613.57 985.20 606.80 C 978.90 600.48 975.40 591.75 974.73 582.92 C 973.89 572.25 975.58 560.84 982.03 552.03 C 988.21 543.45 998.21 538.20 1008.56 536.71 M 1008.39 547.61 C 998.93 549.92 991.71 558.19 989.72 567.58 C 987.75 576.94 988.07 587.42 993.21 595.77 C 997.39 602.58 1004.93 606.98 1012.85 607.73 C 1021.28 608.68 1030.73 607.16 1036.90 600.87 C 1043.35 594.43 1045.08 584.82 1044.85 576.04 C 1044.72 567.46 1042.33 558.20 1035.55 552.44 C 1028.15 546.17 1017.49 545.43 1008.39 547.61 Z" />
<path fill="#ffffff" opacity="1.00" d=" M 1115.56 536.77 C 1125.03 535.00 1135.97 535.87 1143.42 542.60 C 1150.18 548.70 1152.44 558.17 1152.57 566.96 C 1152.63 583.48 1152.57 600.01 1152.59 616.53 C 1147.99 616.52 1143.40 616.53 1138.81 616.52 C 1138.77 600.69 1138.90 584.85 1138.75 569.02 C 1138.49 561.69 1136.50 553.29 1129.80 549.20 C 1120.24 543.87 1106.90 546.52 1100.36 555.41 C 1095.91 560.86 1094.80 568.14 1095.15 574.98 C 1095.17 588.82 1095.15 602.67 1095.16 616.52 C 1090.56 616.53 1085.97 616.52 1081.38 616.53 C 1081.37 590.36 1081.38 564.18 1081.37 538.01 C 1085.96 537.99 1090.56 538.00 1095.16 538.00 C 1095.15 542.36 1095.16 546.71 1095.15 551.07 C 1099.82 543.94 1107.06 538.34 1115.56 536.77 Z" />
<path fill="#ffffff" opacity="1.00" d=" M 1339.63 536.78 C 1349.47 535.31 1359.90 535.64 1369.15 539.63 C 1377.73 543.30 1384.55 550.71 1387.66 559.50 C 1390.68 568.00 1391.11 577.32 1389.68 586.18 C 1388.07 596.15 1382.41 605.42 1374.05 611.14 C 1364.82 617.61 1353.05 619.24 1342.04 618.25 C 1332.74 617.46 1323.51 613.78 1316.93 607.03 C 1310.54 600.75 1306.96 591.99 1306.25 583.12 C 1305.34 572.30 1307.07 560.69 1313.71 551.80 C 1319.81 543.47 1329.53 538.33 1339.63 536.78 M 1339.55 547.70 C 1330.25 550.11 1323.20 558.29 1321.23 567.56 C 1319.30 576.61 1319.57 586.64 1324.17 594.88 C 1328.02 601.73 1335.19 606.45 1342.95 607.54 C 1351.66 608.82 1361.56 607.55 1368.11 601.15 C 1374.80 594.72 1376.60 584.92 1376.35 576.00 C 1376.21 567.52 1373.88 558.41 1367.28 552.64 C 1359.79 546.12 1348.82 545.38 1339.55 547.70 Z" />
<path fill="#ffffff" opacity="1.00" d=" M 1682.53 536.71 C 1692.16 535.34 1702.34 535.69 1711.41 539.53 C 1719.65 542.99 1726.34 549.88 1729.65 558.18 C 1733.01 566.57 1733.56 575.89 1732.41 584.79 C 1731.16 594.16 1726.52 603.11 1719.18 609.14 C 1711.41 615.74 1701.03 618.48 1690.99 618.51 C 1680.88 618.70 1670.33 616.24 1662.39 609.71 C 1654.81 603.70 1650.05 594.54 1648.96 584.98 C 1647.70 574.13 1649.05 562.44 1655.23 553.19 C 1661.31 543.97 1671.73 538.27 1682.53 536.71 M 1682.45 547.59 C 1673.24 549.83 1666.07 557.72 1663.91 566.84 C 1661.78 575.96 1661.96 586.12 1666.47 594.53 C 1670.33 601.67 1677.78 606.57 1685.81 607.59 C 1694.52 608.81 1704.43 607.42 1710.87 600.90 C 1717.37 594.44 1719.09 584.77 1718.85 575.95 C 1718.69 567.60 1716.44 558.64 1710.03 552.86 C 1702.66 546.23 1691.72 545.39 1682.45 547.59 Z" />
<path fill="#ffffff" opacity="1.00" d=" M 1789.53 536.78 C 1799.00 535.00 1809.97 535.87 1817.43 542.60 C 1824.17 548.70 1826.43 558.16 1826.57 566.94 C 1826.62 583.47 1826.57 600.00 1826.59 616.53 C 1821.99 616.52 1817.39 616.53 1812.81 616.52 C 1812.77 600.70 1812.89 584.87 1812.75 569.04 C 1812.49 561.72 1810.52 553.34 1803.85 549.23 C 1794.28 543.85 1780.88 546.52 1774.34 555.44 C 1769.89 560.90 1768.79 568.19 1769.15 575.04 C 1769.16 588.86 1769.15 602.69 1769.16 616.52 C 1764.55 616.53 1759.96 616.52 1755.38 616.53 C 1755.37 590.36 1755.38 564.18 1755.37 538.01 C 1759.96 537.99 1764.55 538.00 1769.16 538.00 C 1769.15 542.36 1769.15 546.71 1769.15 551.07 C 1773.82 543.95 1781.05 538.35 1789.53 536.78 Z" />
<path fill="#ffffff" opacity="1.00" d=" M 938.37 538.01 C 942.96 537.99 947.56 538.00 952.16 538.00 C 952.16 564.17 952.15 590.35 952.16 616.52 C 947.56 616.53 942.97 616.52 938.38 616.53 C 938.37 590.36 938.38 564.18 938.37 538.01 Z" />
<path fill="#ffffff" opacity="1.00" d=" M 1453.03 538.00 C 1457.58 538.00 1462.15 537.99 1466.72 538.00 C 1466.75 553.66 1466.64 569.33 1466.78 584.99 C 1466.91 592.66 1469.18 601.55 1476.44 605.49 C 1485.50 610.08 1497.86 608.47 1504.58 600.53 C 1508.86 595.80 1510.57 589.28 1510.49 583.01 C 1510.50 568.01 1510.50 553.01 1510.49 538.01 C 1515.07 537.99 1519.66 538.00 1524.25 538.00 C 1524.25 564.18 1524.25 590.35 1524.25 616.52 C 1519.66 616.53 1515.07 616.53 1510.50 616.53 C 1510.49 612.36 1510.50 608.20 1510.48 604.04 C 1506.27 611.04 1499.30 616.46 1491.14 617.82 C 1481.55 619.40 1470.63 618.56 1462.85 612.19 C 1455.55 606.09 1453.28 596.11 1453.07 587.02 C 1452.96 570.68 1453.06 554.34 1453.03 538.00 Z" />
<path fill="#ffffff" opacity="1.00" d=" M 1611.88 538.00 C 1616.46 538.00 1621.06 537.99 1625.66 538.01 C 1625.65 564.18 1625.66 590.36 1625.65 616.53 C 1621.05 616.52 1616.46 616.53 1611.87 616.52 C 1611.88 590.35 1611.87 564.17 1611.88 538.00 Z" />
</g>
<g id="#ff7a00ff">
<path fill="#ff7a00" opacity="1.00" d=" M 299.57 160.83 C 330.33 158.17 361.86 164.07 389.55 177.74 C 432.92 199.22 465.55 240.82 476.45 287.93 C 486.09 326.10 481.07 367.54 463.60 402.71 C 447.54 434.38 420.88 460.38 389.05 476.04 C 372.39 484.40 354.24 489.58 335.83 492.28 C 293.30 498.09 248.54 486.67 214.21 460.83 C 190.65 443.48 171.96 419.66 160.33 392.83 C 148.67 365.30 144.05 334.66 148.15 304.97 C 150.00 291.90 153.14 278.99 157.79 266.62 C 169.80 235.14 191.95 207.66 220.02 189.04 C 243.52 172.95 271.31 163.60 299.57 160.83 M 295.59 202.83 C 268.00 206.77 242.03 220.74 223.17 241.22 C 202.85 262.99 190.67 292.28 189.92 322.08 C 188.95 343.83 193.72 365.74 203.81 385.04 C 217.44 411.68 240.83 433.26 268.72 444.21 C 289.83 452.87 313.42 454.49 335.82 450.83 C 351.41 448.16 366.32 442.05 379.73 433.73 C 409.53 415.02 430.73 383.20 436.27 348.44 C 439.86 324.97 437.77 300.35 428.36 278.42 C 416.75 250.16 394.51 226.31 366.79 213.35 C 344.87 202.56 319.66 199.50 295.59 202.83 Z" />
<path fill="#ff7a00" opacity="1.00" d=" M 516.83 160.91 C 521.40 159.54 526.26 160.44 530.96 160.18 C 535.27 160.29 540.75 159.36 543.79 163.24 C 607.19 247.18 670.58 331.14 733.99 415.08 C 734.16 333.36 734.00 251.64 734.07 169.92 C 734.11 167.33 734.77 164.56 736.76 162.75 C 739.11 160.29 742.80 160.14 745.99 160.17 C 753.56 160.31 761.15 159.99 768.72 160.32 C 773.58 160.54 777.07 165.16 776.80 169.86 C 776.82 274.60 776.81 379.33 776.80 484.07 C 776.96 488.20 774.46 492.60 770.18 493.40 C 765.52 494.29 760.73 493.59 756.03 493.82 C 751.80 493.86 746.49 494.33 743.76 490.35 C 680.47 406.54 617.10 322.79 553.80 238.99 C 553.84 320.34 553.78 401.69 553.83 483.05 C 553.85 485.91 553.38 489.09 551.22 491.18 C 548.86 493.65 545.20 493.90 542.00 493.83 C 534.43 493.69 526.85 494.01 519.30 493.68 C 514.44 493.42 511.01 488.78 511.32 484.09 C 511.31 379.38 511.31 274.66 511.32 169.95 C 511.20 166.19 513.09 162.19 516.83 160.91 Z" />
</g>
</svg>
