<?xml version="1.0" encoding="UTF-8" ?>
<!DOCTYPE svg PUBLIC "-//W3C//DTD SVG 1.1//EN" "http://www.w3.org/Graphics/SVG/1.1/DTD/svg11.dtd">
<svg width="1987pt" height="681pt" viewBox="0 0 1987 681" version="1.1" xmlns="http://www.w3.org/2000/svg">
<g id="#003e79ff">
<path fill="#003e79" opacity="1.00" d=" M 216.00 79.03 C 264.39 61.65 317.46 57.82 367.90 67.56 C 409.57 75.57 449.37 92.96 483.59 118.03 C 472.29 129.39 460.88 140.66 449.67 152.11 C 448.84 151.71 448.04 151.26 447.27 150.78 C 415.24 128.71 377.76 114.57 339.09 110.27 C 298.20 105.65 256.15 112.02 218.44 128.50 C 177.50 146.27 141.78 175.77 116.51 212.54 C 93.75 245.44 79.51 284.12 75.28 323.89 C 71.17 361.42 75.73 399.89 88.78 435.33 C 103.25 474.87 128.11 510.60 160.36 537.69 C 183.47 557.18 210.34 572.21 239.10 581.55 C 284.12 596.21 333.53 596.99 379.01 583.88 C 405.70 576.21 431.01 563.78 453.43 547.39 C 464.74 558.63 476.01 569.92 487.30 581.19 C 459.19 602.06 427.27 617.74 393.62 627.37 C 320.81 648.36 239.72 640.43 173.19 603.79 C 143.30 587.46 116.41 565.68 94.15 539.91 C 66.89 508.44 46.58 470.99 35.03 430.98 C 23.22 390.20 20.54 346.76 27.50 304.86 C 34.93 259.70 53.50 216.49 80.77 179.76 C 114.67 133.90 162.23 98.17 216.00 79.03 Z" />
<path fill="#003e79" opacity="1.00" d=" M 1425.00 214.97 C 1451.32 194.93 1483.90 183.27 1516.98 182.13 C 1553.63 180.61 1590.64 191.93 1620.15 213.73 C 1648.12 234.15 1669.23 263.75 1679.43 296.85 C 1670.92 299.51 1662.42 302.17 1653.91 304.81 C 1644.17 273.03 1622.52 245.14 1594.20 227.76 C 1564.41 209.16 1527.23 202.88 1493.02 210.94 C 1458.74 218.71 1428.01 240.48 1409.05 270.04 C 1389.29 300.37 1382.50 338.61 1389.95 373.98 C 1396.71 406.92 1415.88 437.15 1442.96 457.12 C 1469.63 477.09 1503.93 486.27 1537.03 482.80 C 1570.10 479.60 1601.66 463.57 1623.89 438.90 C 1637.66 423.76 1647.90 405.50 1653.91 385.95 C 1662.42 388.60 1670.92 391.25 1679.43 393.92 C 1670.96 422.65 1654.07 448.81 1631.38 468.36 C 1602.14 493.76 1563.69 508.08 1525.00 508.49 C 1492.37 509.02 1459.56 499.74 1432.39 481.58 C 1403.59 462.54 1381.24 434.04 1369.44 401.61 C 1357.33 368.73 1356.20 331.89 1366.57 298.40 C 1376.65 265.38 1397.45 235.78 1425.00 214.97 Z" />
<path fill="#003e79" opacity="1.00" d=" M 805.07 182.53 C 898.48 182.53 991.89 182.52 1085.31 182.53 C 1085.31 191.07 1085.31 199.61 1085.31 208.15 C 1043.04 208.16 1000.78 208.16 958.51 208.15 C 958.48 308.27 958.52 408.38 958.50 508.50 C 949.66 508.53 940.82 508.44 931.99 508.55 C 931.72 408.42 931.95 308.29 931.87 208.16 C 889.60 208.15 847.33 208.16 805.07 208.15 C 805.05 199.61 805.05 191.07 805.07 182.53 Z" />
<path fill="#003e79" opacity="1.00" d=" M 1201.14 182.51 C 1210.34 182.50 1219.53 182.48 1228.73 182.52 C 1271.89 291.18 1315.05 399.85 1358.25 508.50 C 1349.12 508.49 1339.99 508.54 1330.86 508.47 C 1321.94 485.97 1312.98 463.49 1304.04 441.00 C 1244.63 440.99 1185.23 441.00 1125.83 441.00 C 1116.80 463.50 1108.02 486.10 1098.87 508.55 C 1089.80 508.45 1080.73 508.52 1071.66 508.51 C 1114.77 399.82 1158.00 291.18 1201.14 182.51 M 1214.93 216.86 C 1188.53 283.06 1162.15 349.27 1135.78 415.48 C 1188.55 415.52 1241.31 415.49 1294.08 415.50 C 1267.72 349.27 1241.34 283.06 1214.93 216.86 Z" />
<path fill="#003e79" opacity="1.00" d=" M 1673.57 182.53 C 1766.98 182.53 1860.40 182.52 1953.82 182.54 C 1953.80 191.08 1953.82 199.61 1953.81 208.15 C 1911.54 208.16 1869.27 208.16 1827.01 208.15 C 1826.99 308.27 1827.01 408.38 1826.99 508.50 C 1818.12 508.51 1809.26 508.49 1800.40 508.51 C 1800.34 408.39 1800.40 308.27 1800.36 208.15 C 1758.10 208.16 1715.83 208.16 1673.57 208.15 C 1673.55 199.61 1673.55 191.07 1673.57 182.53 Z" />
<path fill="#003e79" opacity="1.00" d=" M 626.38 639.53 C 626.38 600.85 626.35 562.17 626.40 523.49 C 630.98 523.51 635.56 523.49 640.15 523.50 C 640.14 562.18 640.21 600.86 640.11 639.54 C 635.53 639.52 630.96 639.53 626.38 639.53 Z" />
<path fill="#003e79" opacity="1.00" d=" M 668.38 639.53 C 668.39 600.85 668.34 562.17 668.40 523.49 C 672.98 523.51 677.56 523.49 682.15 523.50 C 682.10 562.19 682.29 600.89 682.05 639.58 C 677.49 639.48 672.93 639.55 668.38 639.53 Z" />
<path fill="#003e79" opacity="1.00" d=" M 1412.88 523.50 C 1417.46 523.49 1422.04 523.50 1426.63 523.49 C 1426.68 562.17 1426.65 600.85 1426.65 639.53 C 1422.10 639.55 1417.56 639.46 1413.03 639.60 C 1412.68 600.91 1412.97 562.20 1412.88 523.50 Z" />
<path fill="#003e79" opacity="1.00" d=" M 941.37 525.34 C 946.79 522.55 954.86 526.43 954.49 532.97 C 954.43 540.30 944.31 543.55 939.26 538.81 C 934.77 535.26 936.11 527.43 941.37 525.34 Z" />
<path fill="#003e79" opacity="1.00" d=" M 1615.21 525.19 C 1620.65 522.65 1628.42 526.65 1627.98 533.06 C 1627.83 540.52 1617.34 543.62 1612.44 538.51 C 1608.18 534.74 1609.88 527.04 1615.21 525.19 Z" />
<path fill="#003e79" opacity="1.00" d=" M 1231.28 534.27 C 1240.61 529.14 1251.52 527.69 1262.03 528.03 C 1269.60 528.28 1277.39 528.87 1284.41 531.98 C 1284.41 536.82 1284.38 541.67 1284.43 546.51 C 1275.18 540.60 1263.83 538.97 1253.05 539.70 C 1246.54 540.25 1239.55 541.96 1235.00 546.98 C 1231.14 550.99 1230.67 557.33 1232.71 562.32 C 1234.78 567.00 1239.25 569.95 1243.56 572.39 C 1254.04 578.03 1265.48 581.92 1275.33 588.73 C 1281.41 592.99 1287.01 598.79 1288.79 606.21 C 1290.32 613.70 1289.12 622.10 1284.21 628.16 C 1279.64 634.05 1272.65 637.50 1265.57 639.34 C 1255.87 641.71 1245.70 642.12 1235.83 640.61 C 1229.25 639.61 1222.53 638.38 1216.61 635.20 C 1216.62 630.14 1216.63 625.09 1216.60 620.03 C 1225.08 626.23 1235.62 628.98 1245.96 629.88 C 1253.59 630.13 1261.90 629.80 1268.46 625.41 C 1274.40 621.46 1276.18 613.03 1273.36 606.68 C 1270.88 601.64 1265.99 598.43 1261.25 595.77 C 1253.54 591.67 1245.43 588.38 1237.72 584.30 C 1230.96 580.80 1224.16 576.52 1220.11 569.88 C 1216.69 564.49 1216.13 557.72 1217.36 551.57 C 1218.97 544.02 1224.65 537.91 1231.28 534.27 Z" />
<path fill="#003e79" opacity="1.00" d=" M 884.31 542.02 C 888.89 540.64 893.49 539.32 898.09 537.97 C 898.10 545.64 898.09 553.32 898.09 560.99 C 905.29 561.02 912.49 560.98 919.69 561.01 C 919.68 564.52 919.69 568.02 919.68 571.53 C 912.48 571.54 905.28 571.51 898.09 571.54 C 898.11 586.72 898.07 601.89 898.11 617.07 C 898.19 621.62 898.99 627.25 903.52 629.53 C 908.63 631.89 914.83 631.32 919.71 628.62 C 919.68 632.08 919.64 635.55 919.75 639.02 C 912.46 642.29 903.77 642.27 896.25 639.80 C 888.48 637.17 884.55 628.81 884.41 621.05 C 884.19 604.56 884.36 588.05 884.32 571.56 C 879.41 571.49 874.50 571.55 869.60 571.52 C 869.58 568.01 869.58 564.51 869.59 561.01 C 874.50 560.98 879.40 561.01 884.31 560.99 C 884.31 554.67 884.31 548.34 884.31 542.02 Z" />
<path fill="#003e79" opacity="1.00" d=" M 1556.81 542.02 C 1561.40 540.66 1565.99 539.29 1570.60 537.99 C 1570.58 545.66 1570.59 553.32 1570.59 560.99 C 1577.79 561.01 1584.98 560.98 1592.19 561.01 C 1592.18 564.50 1592.17 567.99 1592.20 571.49 C 1585.00 571.59 1577.80 571.49 1570.60 571.53 C 1570.59 586.70 1570.58 601.86 1570.60 617.02 C 1570.70 621.44 1571.39 626.90 1575.65 629.32 C 1580.79 631.93 1587.25 631.41 1592.21 628.57 C 1592.17 632.10 1592.18 635.63 1592.20 639.16 C 1584.47 642.25 1575.37 642.45 1567.64 639.33 C 1560.10 636.19 1556.84 627.62 1556.86 619.96 C 1556.74 603.82 1556.84 587.68 1556.81 571.54 C 1551.90 571.52 1547.00 571.53 1542.11 571.54 C 1542.07 568.02 1542.08 564.51 1542.09 561.01 C 1546.99 560.99 1551.90 561.01 1556.81 560.99 C 1556.81 554.66 1556.80 548.34 1556.81 542.02 Z" />
<path fill="#003e79" opacity="1.00" d=" M 553.48 559.72 C 563.62 558.28 574.43 558.71 583.82 563.17 C 592.16 567.10 598.61 574.64 601.47 583.38 C 604.27 591.92 604.62 601.20 603.03 610.02 C 601.22 620.02 595.25 629.20 586.69 634.72 C 577.74 640.62 566.60 642.14 556.09 641.30 C 546.97 640.60 537.86 637.22 531.21 630.79 C 524.57 624.62 520.68 615.87 519.83 606.90 C 518.89 597.09 520.05 586.70 525.07 578.05 C 530.91 567.82 541.98 561.36 553.48 559.72 M 553.39 570.61 C 543.87 572.93 536.63 581.29 534.68 590.75 C 532.41 601.57 533.32 614.30 541.26 622.71 C 548.39 630.49 559.96 632.29 569.91 630.20 C 576.25 628.96 582.05 625.05 585.35 619.45 C 589.56 612.43 590.26 603.91 589.68 595.92 C 589.13 588.13 586.31 580.03 580.05 575.02 C 572.65 569.14 562.30 568.49 553.39 570.61 Z" />
<path fill="#003e79" opacity="1.00" d=" M 708.39 581.38 C 713.62 570.00 724.62 561.33 737.08 559.52 C 746.17 558.25 756.01 559.10 764.00 563.96 C 771.17 568.31 775.98 575.89 777.88 583.97 C 779.53 590.34 779.35 596.98 779.35 603.51 C 759.15 603.56 738.94 603.50 718.74 603.54 C 718.97 611.04 721.13 618.97 726.86 624.17 C 732.74 629.72 741.23 631.38 749.08 630.92 C 757.87 630.56 766.32 627.17 773.39 622.02 C 773.37 626.00 773.37 629.98 773.38 633.97 C 763.86 640.19 752.14 641.81 740.99 641.46 C 731.96 641.16 722.71 638.27 716.08 631.94 C 709.69 626.06 706.18 617.63 705.08 609.13 C 703.87 599.82 704.42 590.00 708.39 581.38 M 727.18 576.17 C 722.53 580.58 719.92 586.73 718.93 592.99 C 734.37 593.01 749.82 593.00 765.26 592.99 C 765.26 585.43 762.79 577.12 756.13 572.82 C 747.25 567.32 734.56 568.69 727.18 576.17 Z" />
<path fill="#003e79" opacity="1.00" d=" M 803.37 574.42 C 810.02 565.95 820.26 560.79 830.87 559.52 C 840.32 558.40 850.32 558.87 859.09 562.87 C 858.97 567.08 859.04 571.29 859.04 575.50 C 850.20 569.94 839.01 567.88 828.92 570.89 C 820.01 573.55 812.81 580.99 810.18 589.88 C 808.15 596.76 808.11 604.22 809.88 611.16 C 811.88 619.01 817.69 625.80 825.26 628.76 C 836.34 633.10 849.34 630.93 858.90 624.00 C 858.86 628.02 858.87 632.03 858.88 636.06 C 849.83 640.99 839.16 642.21 829.02 641.15 C 820.32 640.24 811.81 636.60 805.60 630.36 C 799.50 624.46 795.76 616.33 794.86 607.93 C 793.57 596.27 795.83 583.70 803.37 574.42 Z" />
<path fill="#003e79" opacity="1.00" d=" M 1008.47 559.72 C 1017.89 558.37 1027.83 558.67 1036.76 562.25 C 1044.62 565.39 1051.20 571.58 1054.79 579.25 C 1058.72 587.57 1059.51 597.05 1058.62 606.11 C 1057.73 614.90 1054.08 623.51 1047.76 629.77 C 1041.23 636.46 1032.15 640.21 1022.94 641.15 C 1011.85 642.32 999.93 640.86 990.60 634.36 C 982.15 628.62 976.50 619.18 975.12 609.10 C 973.68 598.60 974.71 587.35 980.07 578.03 C 985.92 567.81 996.97 561.36 1008.47 559.72 M 1008.47 570.59 C 998.92 572.88 991.64 581.25 989.69 590.73 C 987.79 599.84 988.09 609.97 992.86 618.20 C 996.81 625.02 1004.09 629.62 1011.88 630.60 C 1020.59 631.80 1030.49 630.39 1036.90 623.86 C 1043.38 617.40 1045.09 607.76 1044.85 598.95 C 1044.70 590.63 1042.46 581.72 1036.10 575.93 C 1028.75 569.24 1017.77 568.38 1008.47 570.59 Z" />
<path fill="#003e79" opacity="1.00" d=" M 1115.52 559.78 C 1124.99 558.00 1135.94 558.86 1143.40 565.58 C 1150.15 571.65 1152.42 581.09 1152.56 589.86 C 1152.63 606.41 1152.58 622.97 1152.59 639.53 C 1147.97 639.49 1143.36 639.63 1138.76 639.44 C 1138.85 623.92 1138.83 608.41 1138.78 592.90 C 1138.62 585.32 1136.78 576.53 1129.86 572.24 C 1120.52 566.98 1107.45 569.37 1100.79 577.87 C 1096.28 583.11 1094.81 590.25 1095.15 597.01 C 1095.10 611.20 1095.30 625.39 1095.05 639.58 C 1090.49 639.48 1085.93 639.55 1081.38 639.53 C 1081.36 613.36 1081.39 587.18 1081.37 561.01 C 1085.96 560.99 1090.55 560.99 1095.15 561.01 C 1095.16 565.36 1095.15 569.71 1095.16 574.07 C 1099.82 566.95 1107.04 561.36 1115.52 559.78 Z" />
<path fill="#003e79" opacity="1.00" d=" M 1340.44 559.65 C 1350.10 558.35 1360.32 558.74 1369.35 562.72 C 1377.55 566.30 1384.13 573.29 1387.33 581.64 C 1390.55 590.02 1391.08 599.28 1389.86 608.12 C 1388.52 617.72 1383.56 626.82 1375.88 632.78 C 1367.81 639.26 1357.20 641.69 1347.02 641.51 C 1337.21 641.48 1327.08 638.81 1319.49 632.38 C 1312.17 626.40 1307.59 617.46 1306.47 608.13 C 1305.23 597.60 1306.44 586.32 1312.10 577.15 C 1318.16 567.27 1329.11 561.17 1340.44 559.65 M 1340.34 570.49 C 1330.88 572.63 1323.48 580.71 1321.35 590.06 C 1319.35 598.81 1319.50 608.44 1323.50 616.63 C 1327.16 624.10 1334.68 629.38 1342.90 630.53 C 1351.61 631.83 1361.53 630.56 1368.09 624.17 C 1374.55 617.98 1376.47 608.60 1376.36 599.97 C 1376.35 591.43 1374.28 582.19 1367.83 576.14 C 1360.59 569.34 1349.64 568.40 1340.34 570.49 Z" />
<path fill="#003e79" opacity="1.00" d=" M 1682.51 559.71 C 1692.14 558.34 1702.32 558.69 1711.38 562.51 C 1719.44 565.90 1726.03 572.55 1729.41 580.61 C 1732.80 588.63 1733.47 597.58 1732.61 606.18 C 1731.72 614.95 1728.06 623.54 1721.75 629.77 C 1715.22 636.47 1706.12 640.22 1696.90 641.15 C 1685.81 642.31 1673.90 640.85 1664.57 634.34 C 1656.11 628.59 1650.48 619.13 1649.11 609.03 C 1647.71 598.80 1648.68 587.87 1653.70 578.70 C 1659.45 568.10 1670.75 561.37 1682.51 559.71 M 1682.38 570.61 C 1672.87 572.93 1665.64 581.28 1663.69 590.73 C 1661.41 601.55 1662.31 614.28 1670.25 622.69 C 1677.12 630.23 1688.21 632.15 1697.90 630.41 C 1704.16 629.38 1710.07 625.91 1713.63 620.58 C 1718.46 613.43 1719.28 604.39 1718.69 596.00 C 1718.14 588.16 1715.31 579.99 1708.98 574.97 C 1701.58 569.13 1691.26 568.49 1682.38 570.61 Z" />
<path fill="#003e79" opacity="1.00" d=" M 1789.46 559.79 C 1798.97 557.99 1809.98 558.85 1817.45 565.63 C 1824.20 571.74 1826.44 581.21 1826.57 589.99 C 1826.62 606.50 1826.58 623.01 1826.59 639.53 C 1821.99 639.52 1817.39 639.54 1812.81 639.52 C 1812.77 623.68 1812.89 607.85 1812.75 592.02 C 1812.48 584.68 1810.49 576.26 1803.77 572.18 C 1793.98 566.73 1780.31 569.70 1773.91 579.00 C 1769.29 584.96 1768.84 592.80 1769.16 600.04 C 1769.20 613.15 1769.07 626.28 1769.22 639.40 C 1764.61 639.69 1759.99 639.46 1755.38 639.53 C 1755.36 613.36 1755.39 587.19 1755.37 561.02 C 1759.95 560.98 1764.55 561.00 1769.15 561.01 C 1769.15 565.36 1769.15 569.71 1769.16 574.07 C 1773.81 566.96 1781.01 561.38 1789.46 559.79 Z" />
<path fill="#003e79" opacity="1.00" d=" M 938.37 561.02 C 942.96 560.98 947.55 561.00 952.15 561.01 C 952.18 587.16 952.13 613.32 952.18 639.47 C 947.57 639.59 942.98 639.51 938.38 639.53 C 938.36 613.36 938.39 587.19 938.37 561.02 Z" />
<path fill="#003e79" opacity="1.00" d=" M 1453.03 561.01 C 1457.59 561.00 1462.15 560.99 1466.72 561.01 C 1466.75 576.66 1466.64 592.31 1466.77 607.96 C 1466.93 615.42 1468.99 624.00 1475.83 628.14 C 1485.76 633.74 1500.02 631.13 1506.32 621.29 C 1510.93 614.82 1510.60 606.55 1510.50 598.99 C 1510.49 586.34 1510.51 573.68 1510.49 561.02 C 1515.07 560.98 1519.65 561.00 1524.25 561.01 C 1524.25 587.18 1524.25 613.35 1524.25 639.52 C 1519.66 639.53 1515.08 639.53 1510.50 639.52 C 1510.48 635.36 1510.50 631.20 1510.48 627.05 C 1506.25 634.06 1499.26 639.48 1491.08 640.83 C 1481.50 642.39 1470.61 641.55 1462.84 635.18 C 1455.55 629.10 1453.29 619.13 1453.07 610.05 C 1452.97 593.70 1453.06 577.35 1453.03 561.01 Z" />
<path fill="#003e79" opacity="1.00" d=" M 1611.88 561.01 C 1616.47 561.00 1621.06 560.99 1625.66 561.01 C 1625.64 587.19 1625.67 613.36 1625.65 639.53 C 1621.04 639.51 1616.45 639.58 1611.86 639.48 C 1611.90 613.32 1611.86 587.16 1611.88 561.01 Z" />
</g>
<g id="#ff7a00ff">
<path fill="#ff7a00" opacity="1.00" d=" M 299.60 183.82 C 327.84 181.33 356.65 186.26 382.65 197.48 C 425.83 216.39 459.64 254.89 473.44 299.88 C 480.02 321.21 482.81 343.78 480.56 366.03 C 478.64 384.95 473.88 403.66 465.89 420.94 C 450.30 454.56 422.79 482.27 389.66 498.74 C 355.10 515.90 314.53 521.53 276.85 512.53 C 237.49 504.05 201.87 480.20 178.40 447.56 C 160.20 422.72 149.59 392.66 147.14 362.03 C 145.27 337.51 149.23 312.70 157.77 289.68 C 169.77 258.17 191.93 230.67 220.02 212.04 C 243.52 195.95 271.33 186.59 299.60 183.82 M 295.59 225.83 C 261.11 230.70 229.41 251.36 210.40 280.45 C 197.28 300.43 189.89 324.13 189.84 348.07 C 189.02 378.76 200.35 409.39 220.34 432.60 C 237.67 452.93 261.71 467.40 287.82 473.09 C 308.38 477.10 330.04 476.61 350.10 470.38 C 380.62 461.01 407.15 439.40 422.40 411.35 C 442.65 375.13 443.18 328.73 423.98 291.97 C 411.67 267.88 391.36 247.87 366.82 236.37 C 344.90 225.57 319.68 222.50 295.59 225.83 Z" />
<path fill="#ff7a00" opacity="1.00" d=" M 514.36 185.39 C 517.85 182.36 522.78 183.34 527.01 183.19 C 531.31 183.39 535.72 182.67 539.94 183.72 C 543.27 184.43 544.80 187.74 546.76 190.15 C 609.17 272.84 671.64 355.49 734.05 438.18 C 734.07 356.42 734.04 274.66 734.07 192.90 C 733.78 188.15 737.34 183.48 742.28 183.31 C 751.07 183.09 759.90 183.11 768.70 183.31 C 773.60 183.54 777.09 188.20 776.81 192.93 C 776.82 297.64 776.81 402.36 776.81 507.07 C 776.96 511.20 774.46 515.60 770.17 516.40 C 765.51 517.29 760.71 516.59 756.00 516.82 C 751.96 516.81 746.97 517.37 744.14 513.81 C 680.68 429.87 617.23 345.93 553.79 261.98 C 553.84 343.33 553.78 424.67 553.83 506.01 C 553.87 508.90 553.37 512.11 551.19 514.22 C 548.82 516.65 545.18 516.91 541.99 516.83 C 534.41 516.69 526.82 517.01 519.26 516.68 C 514.39 516.39 511.00 511.72 511.32 507.04 C 511.31 402.35 511.31 297.66 511.32 192.97 C 511.38 190.20 512.06 187.17 514.36 185.39 Z" />
</g>
</svg>
