<?xml version="1.0" encoding="utf-8"?>
<!-- Generator: Adobe Illustrator 21.0.0, SVG Export Plug-In . SVG Version: 6.00 Build 0)  -->
<svg version="1.1" id="Слой_1" xmlns="http://www.w3.org/2000/svg" xmlns:xlink="http://www.w3.org/1999/xlink" x="0px" y="0px"
	 viewBox="0 0 150 150" style="enable-background:new 0 0 150 150;" xml:space="preserve">
<g id="_x23_ff6000ff">
	<path class="st0" d="M22.5,2.4C24.1,1.2,26,0.5,28,0.2c0.9,0,1.9,0,2.8,0c2,0.3,4,1.1,5.5,2.5c0.8,0.7,1.3,1.6,1.9,2.4
		c4.5,6.7,8.9,13.4,13.3,20.1c2,3.1,4.1,6.2,6,9.3c1.9,3.6,1.3,8-0.6,11.5c-2.5,4.6-5.1,9.1-7.7,13.6c4.1,5.7,8.8,10.9,13.6,16
		c4.6,4.7,9.3,9.4,14.1,13.8c4.3,4,8.8,7.9,13.6,11.4c3.7-2.1,7.5-4.3,11.2-6.4c1.5-0.8,2.9-1.7,4.5-2.2c2.7-1,5.8-1.3,8.6-0.1
		c1.2,0.6,2.3,1.4,3.4,2.1c9.3,6.1,18.6,12.2,27.9,18.4c2.2,1.5,3.5,4,3.8,6.6c0,1,0,2,0,3c-0.3,2-1.1,4-2.3,5.6
		c-3.6,4.9-7.6,9.6-11.9,13.9c-2.3,2.2-4.6,4.4-7.3,6.2c-1.5,1-3.1,1.8-4.9,2.1c-4.3,0.2-8.5-0.5-12.6-1.6
		c-6.9-1.8-13.4-4.8-19.6-8.3c-6.9-3.9-13.4-8.4-19.6-13.3c-9.8-7.6-18.9-16.1-27.6-24.9c-9.6-9.8-18.8-20.2-26.7-31.5
		c-4.1-5.9-7.9-12.1-11-18.7C4,46.9,2,41.7,0.9,36.3C0.2,33-0.2,29.7,0,26.4c0.6-3,2.4-5.5,4.3-7.7c3.6-4.2,7.7-8,12-11.5
		C18.3,5.5,20.3,3.9,22.5,2.4 M28.5,8.3c-1.2,0.3-2.2,1.1-3.1,1.8c-4.5,3.5-8.9,7.2-12.9,11.3c-1.5,1.6-2.9,3.2-4,5
		C8.3,27,7.9,27.4,7.9,28c0.3,8.2,3.4,16,7.1,23.3c3.2,6.3,7.1,12.2,11.3,17.9c8.2,11.1,17.5,21.2,27.2,30.9
		c8.3,8.2,17.1,16,26.4,23c6.5,4.8,13.3,9.3,20.6,12.8c6.6,3.2,13.7,5.8,21,6.2c0.4,0,0.8,0.1,1.1-0.1c1.6-0.8,3-1.9,4.4-3.1
		c3-2.6,5.6-5.5,8.2-8.5c1.9-2.2,3.8-4.5,5.6-6.9c0.7-1,1.3-2.3,1.1-3.6c-0.2-1-1.2-1.3-1.9-1.8c-9.3-6.2-18.6-12.4-28-18.4
		c-0.7-0.6-1.7-0.3-2.5-0.1c-1.9,0.6-3.5,1.7-5.3,2.7c-4.4,2.5-8.7,5-13.1,7.5c-0.4,0.2-0.9,0.3-1.3,0.1c-1.2-0.7-2.3-1.4-3.4-2.2
		c-4.1-2.9-7.9-6.2-11.7-9.5c-5.3-4.7-10.3-9.6-15.2-14.6c-4.8-4.9-9.4-9.9-13.6-15.2c-2-2.6-4-5.2-5.6-8.1c-0.2-0.4-0.2-0.9,0-1.2
		c3.2-5.6,6.5-11.3,9.7-17c0.5-1.1,1.1-2.5,0.6-3.8c-1.2-1.9-2.4-3.8-3.7-5.7c-5-7.7-10.1-15.5-15.3-23.2c-0.3-0.4-0.6-1-1.1-1.2
		C29.8,8.1,29.2,8.2,28.5,8.3z"/>
	<path class="st0" d="M106.4,10.2C118.2,9.6,130,9,141.8,8.4c-1,11.7-2.1,23.5-3.1,35.2c-4.3-4.4-8.6-8.9-12.9-13.4
		c-9.7,9.3-19.4,18.7-29.1,28c-1.6,1.6-3.3,3.2-5,4.8c-2.2-2.1-4.3-4.4-6.4-6.6c11.3-10.9,22.7-21.9,34-32.8
		C115,19.2,110.7,14.7,106.4,10.2z"/>
</g>
</svg>
