<?xml version="1.0" encoding="UTF-8" ?>
<!DOCTYPE svg PUBLIC "-//W3C//DTD SVG 1.1//EN" "http://www.w3.org/Graphics/SVG/1.1/DTD/svg11.dtd">
<svg width="1136pt" height="1186pt" viewBox="0 0 1136 1186" version="1.1" xmlns="http://www.w3.org/2000/svg">
<g id="#ffffffff">
<path d=" M 68.26 35.25 C 75.71 28.30 85.83 24.30 96.02 24.33 C 319.33 24.33 542.65 24.33 765.96 24.33 C 772.05 24.42 778.30 23.82 784.20 25.76 C 795.37 29.03 804.42 38.49 807.18 49.80 C 808.54 54.74 808.10 59.90 808.17 64.96 C 808.17 79.75 808.17 94.53 808.17 109.32 C 822.45 109.35 836.73 109.29 851.01 109.35 C 868.76 109.93 885.02 123.53 888.77 140.88 C 890.29 146.47 889.74 152.27 889.84 157.98 C 889.84 209.28 889.83 260.57 889.84 311.87 C 912.19 291.85 934.53 271.82 956.88 251.80 C 967.93 241.86 981.57 234.82 996.10 231.68 C 1016.22 227.24 1037.90 230.35 1055.92 240.35 C 1079.21 253.02 1095.91 276.88 1099.99 303.06 C 1104.91 331.95 1094.35 362.96 1072.52 382.57 C 1011.64 437.15 950.75 491.72 889.85 546.27 C 889.82 718.52 889.85 890.77 889.83 1063.02 C 889.81 1079.89 878.03 1095.83 862.01 1101.01 C 855.61 1103.36 848.71 1103.26 842.00 1103.17 C 618.01 1103.16 394.02 1103.18 170.04 1103.16 C 152.39 1103.35 136.58 1087.60 136.83 1069.93 C 136.83 1052.68 136.83 1035.43 136.83 1018.18 C 126.89 1018.17 116.94 1018.17 107.00 1018.18 C 98.94 1018.05 90.62 1018.93 82.90 1016.05 C 66.91 1010.82 55.16 994.89 55.17 978.03 C 55.16 673.67 55.17 369.32 55.16 64.96 C 55.13 53.80 60.06 42.78 68.26 35.25 M 76.37 65.08 C 76.35 367.04 76.37 669.01 76.37 970.98 C 76.41 975.68 75.90 980.62 77.95 985.02 C 81.03 992.49 89.01 997.47 97.08 997.03 C 277.28 996.96 457.48 997.13 637.67 996.94 C 637.70 961.99 637.63 927.03 637.71 892.08 C 637.97 869.84 653.78 849.01 675.03 842.58 C 684.37 839.35 694.33 840.15 704.03 840.07 C 731.68 840.07 759.32 840.07 786.97 840.07 C 786.99 772.87 786.98 705.67 786.98 638.47 C 733.82 686.11 680.66 733.74 627.51 781.38 C 625.03 783.58 622.63 786.34 619.14 786.74 C 571.11 795.47 523.08 804.19 475.06 812.91 C 470.52 813.96 465.57 811.26 464.05 806.87 C 462.45 802.86 464.51 798.81 465.54 794.96 C 478.81 750.24 492.10 705.54 505.37 660.82 C 506.19 657.83 507.02 654.59 509.62 652.62 C 602.08 569.77 694.53 486.91 786.98 404.05 C 786.94 288.67 787.01 173.30 786.96 57.92 C 787.10 51.12 780.80 45.13 774.02 45.53 C 548.04 45.54 322.06 45.52 96.08 45.54 C 85.62 45.29 76.19 54.61 76.37 65.08 M 808.18 130.48 C 808.16 215.34 808.17 300.20 808.17 385.06 C 828.33 366.97 848.54 348.95 868.66 330.81 C 868.59 270.54 868.68 210.26 868.60 149.98 C 868.79 139.89 859.96 130.78 849.90 130.52 C 835.99 130.42 822.08 130.51 808.18 130.48 M 968.95 266.83 C 956.12 278.33 943.30 289.83 930.47 301.32 C 960.31 335.47 990.18 369.61 1020.04 403.75 C 1029.50 395.28 1038.94 386.81 1048.40 378.34 C 1055.13 372.09 1062.57 366.46 1068.08 359.02 C 1078.85 344.91 1083.71 326.51 1081.49 308.91 C 1079.71 293.90 1072.73 279.58 1062.04 268.89 C 1051.38 258.08 1036.94 251.10 1021.84 249.47 C 1002.78 247.23 983.00 253.79 968.95 266.83 M 529.65 660.52 C 559.50 694.67 589.38 728.79 619.23 762.93 C 748.06 647.51 876.86 532.04 1005.70 416.62 C 975.86 382.45 945.98 348.33 916.13 314.18 C 787.30 429.62 658.48 545.08 529.65 660.52 M 808.19 619.43 C 808.14 692.95 808.18 766.47 808.17 839.98 C 808.06 851.74 804.57 863.42 798.34 873.39 C 793.26 881.70 785.83 888.16 779.33 895.31 C 748.14 928.12 716.96 960.93 685.77 993.74 C 681.12 998.78 676.26 1003.72 670.45 1007.45 C 659.45 1014.73 646.19 1018.57 632.99 1018.18 C 474.67 1018.17 316.35 1018.18 158.02 1018.17 C 158.02 1035.13 158.02 1052.10 158.02 1069.06 C 157.80 1074.27 161.21 1079.35 166.10 1081.15 C 168.92 1082.28 172.01 1081.90 174.98 1081.97 C 399.69 1081.95 624.39 1081.99 849.10 1081.95 C 859.62 1082.13 868.98 1072.59 868.63 1062.08 C 868.66 896.51 868.60 730.94 868.66 565.36 C 848.41 583.27 828.39 601.45 808.19 619.43 M 518.64 683.41 C 507.98 719.32 497.31 755.22 486.66 791.13 C 524.53 784.26 562.39 777.38 600.26 770.50 C 573.62 739.94 546.80 709.52 520.23 678.89 C 519.35 680.25 519.11 681.88 518.64 683.41 M 661.41 881.11 C 658.72 887.04 658.79 893.65 658.91 900.02 C 658.91 929.90 658.89 959.78 658.92 989.66 C 665.74 985.02 670.78 978.36 676.59 972.59 C 706.31 941.32 736.03 910.05 765.75 878.79 C 770.92 873.07 776.89 867.97 780.90 861.31 C 750.92 861.26 720.93 861.28 690.95 861.29 C 678.29 861.21 666.18 869.42 661.41 881.11 Z" />
<path d=" M 172.16 151.29 C 342.10 150.98 512.06 151.27 682.01 151.15 C 687.38 150.65 692.66 154.75 693.37 160.12 C 694.41 165.77 689.92 171.90 684.11 172.16 C 513.74 172.18 343.38 172.16 173.02 172.17 C 167.77 172.10 163.37 167.16 163.35 162.00 C 163.11 156.89 167.12 152.05 172.16 151.29 Z" />
<path d=" M 163.37 325.05 C 163.59 319.67 168.51 315.00 173.90 315.17 C 327.75 315.16 481.59 315.16 635.44 315.17 C 631.20 322.17 626.96 329.16 622.73 336.16 C 472.81 336.18 322.88 336.16 172.96 336.17 C 167.39 336.06 162.87 330.50 163.37 325.05 Z" />
<path d=" M 163.35 484.02 C 163.32 478.41 168.42 473.42 174.04 473.67 C 295.83 473.67 417.61 473.66 539.40 473.67 C 535.17 480.67 530.91 487.66 526.69 494.66 C 408.78 494.67 290.87 494.66 172.96 494.67 C 167.56 494.58 163.11 489.31 163.35 484.02 Z" />
<path d=" M 165.54 642.45 C 167.51 639.86 170.71 638.25 173.97 638.33 C 262.53 638.34 351.08 638.32 439.63 638.35 C 435.37 645.34 431.16 652.35 426.90 659.34 C 342.25 659.33 257.61 659.33 172.97 659.34 C 164.94 659.25 160.36 648.49 165.54 642.45 Z" />
<path d=" M 163.38 824.08 C 163.67 818.72 168.61 814.13 173.99 814.33 C 226.99 814.33 279.98 814.34 332.98 814.33 C 328.75 821.34 324.51 828.34 320.25 835.34 C 271.19 835.33 222.13 835.33 173.07 835.34 C 167.41 835.30 162.80 829.61 163.38 824.08 Z" />
</g>
</svg>
