<?xml version="1.0" encoding="UTF-8" ?>
<!DOCTYPE svg PUBLIC "-//W3C//DTD SVG 1.1//EN" "http://www.w3.org/Graphics/SVG/1.1/DTD/svg11.dtd">
<svg width="1136pt" height="1253pt" viewBox="0 0 1136 1253" version="1.1" xmlns="http://www.w3.org/2000/svg">
<g id="#ffffffff">
<path d=" M 373.44 90.56 C 422.94 90.21 472.48 90.51 521.99 90.41 C 604.33 90.42 686.67 90.39 769.01 90.42 C 771.66 90.01 773.93 92.28 773.51 94.94 C 773.52 226.30 773.53 357.68 773.51 489.04 C 773.88 491.64 771.61 493.88 769.00 493.45 C 637.68 493.48 506.35 493.47 375.03 493.46 C 372.40 493.88 370.10 491.65 370.49 489.02 C 370.47 357.67 370.48 226.32 370.48 94.96 C 370.30 93.04 371.26 90.73 373.44 90.56 M 393.31 113.26 C 393.32 232.38 393.31 351.50 393.31 470.62 C 512.44 470.62 631.56 470.62 750.68 470.62 C 750.69 351.50 750.68 232.38 750.69 113.26 C 631.56 113.26 512.44 113.26 393.31 113.26 Z" />
<path d=" M 841.40 565.60 C 894.09 563.48 947.48 578.18 991.24 607.72 C 1022.52 628.53 1048.92 656.52 1068.06 688.83 C 1089.45 724.76 1101.31 766.19 1102.83 807.94 C 1104.33 852.25 1093.99 896.96 1072.86 935.96 C 1055.85 967.34 1032.16 995.12 1003.69 1016.67 C 974.35 1039.06 939.99 1054.83 903.84 1062.33 C 857.22 1072.42 807.78 1068.48 763.15 1051.72 C 729.29 1039.05 698.37 1018.76 672.96 993.08 C 642.08 961.73 619.36 922.25 608.60 879.53 C 598.71 841.56 597.89 801.22 606.43 762.91 C 613.97 727.62 629.44 694.07 651.26 665.34 C 672.41 637.15 699.69 613.67 730.50 596.59 C 764.39 577.82 802.73 567.33 841.40 565.60 M 846.22 589.33 C 806.06 590.07 766.29 602.01 732.19 623.19 C 682.74 653.61 645.81 703.63 631.46 759.91 C 622.53 794.86 622.13 831.92 629.92 867.12 C 636.02 893.74 646.99 919.22 662.03 942.00 C 682.42 972.76 710.34 998.55 742.76 1016.22 C 779.57 1036.56 822.14 1046.06 864.11 1043.64 C 907.42 1041.66 949.85 1026.35 984.93 1000.97 C 1015.50 978.82 1040.56 949.04 1056.83 914.94 C 1076.52 874.59 1083.14 828.31 1076.83 783.95 C 1071.32 744.59 1054.87 706.91 1030.26 675.75 C 1006.21 645.31 974.33 621.10 938.43 606.34 C 909.37 594.16 877.69 588.57 846.22 589.33 Z" />
<path d=" M 307.69 569.63 C 308.59 568.55 310.12 569.15 310.63 570.31 C 401.66 727.64 492.63 885.01 583.64 1042.37 C 586.54 1047.61 589.84 1052.65 592.51 1058.02 C 592.41 1059.89 590.41 1059.85 589.05 1059.84 C 402.01 1059.81 214.97 1059.86 27.94 1059.81 C 25.75 1060.31 24.57 1057.82 26.14 1056.33 C 94.90 937.33 163.74 818.38 232.53 699.40 C 257.61 656.16 282.47 612.78 307.69 569.63 M 61.55 1038.96 C 226.21 1038.95 390.86 1038.95 555.51 1038.96 C 473.20 896.59 390.85 754.25 308.54 611.87 C 226.24 754.25 143.92 896.62 61.55 1038.96 Z" />
</g>
</svg>
