<?xml version="1.0" encoding="UTF-8" ?>
<!DOCTYPE svg PUBLIC "-//W3C//DTD SVG 1.1//EN" "http://www.w3.org/Graphics/SVG/1.1/DTD/svg11.dtd">
<svg width="1136pt" height="1253pt" viewBox="0 0 1136 1253" version="1.1" xmlns="http://www.w3.org/2000/svg">
<g id="#ffffffff">
<path d=" M 924.47 158.72 C 939.92 157.12 955.68 159.94 969.90 166.08 C 984.76 172.84 997.83 183.66 1006.95 197.24 C 1015.61 209.50 1020.36 224.18 1022.01 239.02 C 1024.94 268.83 1011.66 299.72 987.67 317.75 C 971.45 330.51 950.54 336.84 930.01 336.23 C 912.94 335.30 895.87 330.02 882.00 319.88 C 869.23 310.99 859.06 298.53 852.49 284.46 C 844.56 266.60 842.01 246.12 846.83 227.06 C 853.47 196.41 878.00 170.46 908.19 162.01 C 913.53 160.55 918.96 159.33 924.47 158.72 M 919.45 182.82 C 899.68 187.20 882.15 200.99 873.74 219.49 C 867.40 232.31 866.29 247.23 868.94 261.15 C 872.91 279.08 884.55 295.26 900.58 304.32 C 910.10 309.81 920.94 313.06 931.97 313.03 C 949.47 313.72 966.94 306.56 979.38 294.33 C 988.42 285.64 994.65 274.19 997.65 262.05 C 1000.39 248.47 999.64 233.87 993.81 221.17 C 987.16 205.60 974.23 192.89 958.57 186.45 C 946.36 181.05 932.46 180.41 919.45 182.82 Z" />
<path d=" M 237.66 233.86 C 245.51 231.50 253.82 229.25 262.04 231.04 C 272.80 233.21 283.66 237.48 291.41 245.48 C 304.55 263.57 316.48 282.50 328.99 301.02 C 355.40 341.08 381.72 381.20 407.64 421.58 C 410.78 426.81 414.54 431.74 416.69 437.51 C 419.01 443.37 420.42 449.62 420.84 455.92 C 420.02 471.67 413.73 486.51 405.67 499.86 C 392.12 524.14 378.20 548.21 364.47 572.39 C 363.56 575.83 364.31 579.55 364.08 583.10 C 386.84 614.81 412.84 644.04 439.57 672.43 C 464.11 698.21 489.43 723.24 515.03 747.98 C 541.37 773.11 568.38 797.61 596.85 820.33 C 603.71 825.68 610.48 831.20 617.70 836.05 C 621.09 836.08 624.58 836.40 627.94 835.86 C 649.62 823.57 671.21 811.09 692.94 798.88 C 700.69 794.63 708.23 789.92 716.47 786.62 C 725.56 782.85 735.19 780.23 745.04 779.47 C 754.56 779.88 763.91 783.01 771.81 788.36 C 806.54 810.41 840.80 833.20 875.22 855.72 C 900.88 872.76 926.69 889.57 952.15 906.89 C 957.82 910.56 961.32 916.60 964.31 922.48 C 968.01 930.86 970.73 940.04 969.75 949.30 C 967.95 959.94 964.34 970.35 958.55 979.51 C 954.34 986.15 949.41 992.31 944.61 998.53 C 931.99 1014.51 918.89 1030.11 905.14 1045.13 C 890.90 1060.88 875.84 1075.96 859.22 1089.20 C 846.46 1099.32 832.44 1108.87 816.19 1112.07 C 805.11 1112.69 794.11 1110.72 783.16 1109.37 C 742.97 1102.98 704.42 1088.76 667.91 1071.09 C 629.57 1052.48 593.27 1029.94 558.44 1005.45 C 519.09 977.66 481.57 947.34 445.49 915.44 C 396.24 871.82 349.35 825.56 304.89 777.07 C 254.40 721.80 206.92 663.47 166.95 600.07 C 143.23 562.13 122.13 522.33 107.16 480.09 C 97.07 451.36 89.95 421.41 88.05 390.97 C 87.18 381.03 91.09 371.49 95.62 362.85 C 103.51 348.31 114.36 335.65 125.48 323.50 C 138.01 310.01 151.67 297.65 165.50 285.52 C 181.48 271.72 197.80 258.27 214.87 245.82 C 221.78 240.69 229.47 236.54 237.66 233.86 M 228.99 268.02 C 206.01 285.50 183.91 304.17 163.02 324.10 C 150.04 336.82 136.97 349.57 125.93 364.06 C 122.16 369.33 118.09 374.65 116.15 380.92 C 115.43 404.39 119.20 427.82 125.35 450.42 C 136.11 488.39 153.01 524.34 172.53 558.54 C 192.35 593.18 215.02 626.11 239.22 657.83 C 285.90 718.83 338.24 775.27 392.86 829.19 C 453.20 888.75 516.98 945.24 586.92 993.34 C 620.57 1016.25 655.66 1037.22 692.80 1053.98 C 731.84 1071.40 773.81 1084.94 816.99 1084.16 C 820.00 1084.34 822.53 1082.41 825.10 1081.13 C 835.63 1075.03 844.79 1066.89 853.76 1058.74 C 881.63 1032.56 907.06 1003.86 930.46 973.64 C 935.96 966.46 942.28 958.57 941.84 948.98 C 941.35 943.41 943.22 937.12 939.70 932.24 C 936.96 929.02 933.93 925.97 930.34 923.72 C 904.39 906.22 878.20 889.09 852.10 871.82 C 820.08 850.86 788.20 829.70 755.89 809.19 C 752.48 806.56 747.99 807.74 744.03 807.48 C 734.27 807.07 724.88 810.72 716.57 815.53 C 684.65 833.35 652.98 851.62 621.28 869.82 C 611.32 863.94 601.82 857.32 592.56 850.38 C 539.63 810.30 491.83 763.99 445.05 717.02 C 415.15 686.46 386.06 655.01 359.71 621.30 C 349.25 607.69 338.85 593.92 330.61 578.82 C 347.51 549.31 364.48 519.84 381.15 490.20 C 385.00 482.86 389.95 475.94 391.91 467.76 C 393.14 462.59 392.62 457.25 392.74 451.99 C 392.81 449.30 392.54 446.45 390.94 444.19 C 381.70 429.44 372.15 414.87 362.70 400.25 C 334.71 357.34 306.72 314.44 278.08 271.97 C 275.10 267.36 271.44 263.15 267.10 259.80 C 262.11 257.42 256.36 258.72 251.03 258.39 C 242.62 258.18 235.40 263.16 228.99 268.02 Z" />
<path d=" M 630.59 325.81 C 646.32 324.02 662.41 326.86 676.89 333.15 C 695.73 341.67 711.39 356.94 720.40 375.57 C 726.43 388.43 729.58 402.74 729.21 416.96 C 728.42 435.03 722.58 453.09 711.48 467.51 C 698.84 484.63 679.76 496.99 658.85 501.17 C 640.40 505.55 620.73 502.87 603.46 495.35 C 589.56 488.96 577.19 479.06 568.28 466.59 C 557.05 451.56 551.36 432.72 551.20 414.05 C 551.47 395.60 557.09 377.01 568.15 362.13 C 576.16 350.82 587.05 341.69 599.27 335.22 C 608.99 330.13 619.75 327.26 630.59 325.81 M 630.16 349.17 C 608.78 352.34 589.47 366.89 580.53 386.58 C 574.09 399.67 573.06 414.93 575.97 429.09 C 579.04 441.55 585.56 453.25 594.97 462.03 C 606.94 473.44 623.38 480.30 639.99 480.04 C 656.66 480.42 673.18 473.62 685.26 462.24 C 694.84 453.38 701.46 441.52 704.52 428.88 C 707.22 415.35 706.45 400.81 700.64 388.17 C 693.92 372.42 680.77 359.62 664.90 353.24 C 654.02 348.51 641.82 347.67 630.16 349.17 Z" />
<path d=" M 865.44 346.45 C 869.93 344.34 875.67 345.19 879.16 348.79 C 882.96 352.55 883.45 359.03 880.35 363.37 C 878.73 365.84 875.95 367.06 873.55 368.59 C 844.43 386.96 824.53 419.49 822.29 453.93 C 821.88 459.26 821.97 464.61 821.97 469.95 C 832.40 479.45 845.48 485.45 858.63 490.16 C 879.46 497.44 901.61 499.96 923.56 500.72 C 954.81 501.39 986.87 500.22 1016.57 489.49 C 1029.03 484.84 1041.41 479.02 1051.32 469.96 C 1051.66 455.55 1050.59 440.89 1045.68 427.23 C 1037.47 402.88 1020.69 381.49 998.79 368.01 C 995.53 366.25 992.13 363.80 991.40 359.93 C 989.42 354.05 993.39 347.03 999.48 345.76 C 1004.17 344.18 1008.88 346.62 1012.62 349.32 C 1039.16 366.32 1059.58 392.87 1068.59 423.13 C 1072.35 436.07 1074.76 449.52 1074.50 463.04 C 1074.39 467.36 1074.72 471.70 1074.33 476.00 C 1073.97 480.47 1070.50 483.63 1067.52 486.58 C 1054.75 498.23 1039.08 506.29 1022.78 511.80 C 994.57 521.24 964.61 524.49 934.96 524.10 C 901.47 524.21 867.34 519.75 836.43 506.28 C 825.65 501.44 815.44 495.18 806.59 487.31 C 803.02 483.97 798.94 480.24 798.79 474.99 C 798.46 461.65 798.66 448.18 801.69 435.11 C 808.96 398.24 832.95 365.22 865.44 346.45 Z" />
<path d=" M 571.83 513.67 C 577.04 510.89 584.20 512.46 587.40 517.55 C 590.01 521.52 589.80 527.12 586.83 530.85 C 585.21 533.01 582.67 534.13 580.46 535.54 C 551.29 553.90 531.35 586.49 529.12 620.97 C 528.72 626.29 528.81 631.63 528.80 636.96 C 539.55 646.71 553.05 652.81 566.62 657.56 C 586.35 664.28 607.25 666.76 627.99 667.64 C 655.45 668.38 683.31 667.69 710.03 660.68 C 727.28 655.85 744.63 649.05 758.15 636.97 C 758.29 627.20 758.06 617.38 756.15 607.77 C 750.05 577.10 730.41 549.38 703.37 533.64 C 700.95 532.19 698.88 529.90 698.28 527.09 C 696.16 521.14 700.24 513.95 706.44 512.72 C 711.45 511.10 716.25 514.01 720.19 516.81 C 749.23 535.62 770.70 566.00 777.96 599.90 C 781.45 613.99 781.75 628.60 781.16 643.02 C 780.81 647.43 777.40 650.57 774.45 653.48 C 763.39 663.62 750.08 671.06 736.14 676.44 C 706.49 687.61 674.52 691.42 642.98 691.10 C 620.51 691.28 597.94 689.36 576.06 684.10 C 556.69 679.55 537.56 672.50 521.38 660.69 C 516.40 657.03 511.46 653.14 507.73 648.18 C 504.58 643.76 505.79 638.05 505.56 632.99 C 505.13 615.48 508.42 597.98 514.43 581.57 C 525.13 553.30 545.78 528.98 571.83 513.67 Z" />
</g>
</svg>
