<?xml version="1.0" encoding="UTF-8" ?>
<!DOCTYPE svg PUBLIC "-//W3C//DTD SVG 1.1//EN" "http://www.w3.org/Graphics/SVG/1.1/DTD/svg11.dtd">
<svg width="1136pt" height="1253pt" viewBox="0 0 1136 1253" version="1.1" xmlns="http://www.w3.org/2000/svg">
<g id="#ffffffff">
<path d=" M 485.95 124.09 C 565.32 108.63 649.36 117.72 723.35 150.47 C 783.40 176.84 836.68 218.33 877.15 269.93 C 914.35 317.22 940.71 372.99 953.46 431.80 C 959.42 459.14 962.46 487.11 962.65 515.09 C 972.11 515.23 981.63 514.61 991.03 516.03 C 1011.75 518.92 1031.36 529.03 1045.79 544.18 C 1061.43 560.40 1070.92 582.41 1071.87 604.93 C 1072.09 641.93 1071.93 678.94 1071.96 715.94 C 1071.75 739.52 1062.14 762.81 1045.77 779.76 C 1027.68 798.86 1001.32 809.62 975.05 808.83 C 975.25 830.23 975.16 851.76 971.40 872.90 C 960.43 938.89 925.72 1001.43 873.13 1043.22 C 840.40 1069.25 799.97 1086.26 757.99 1088.38 C 755.98 1102.93 747.91 1116.52 735.99 1125.13 C 726.52 1132.10 714.75 1135.84 702.99 1135.67 C 664.32 1135.64 625.66 1135.72 587.00 1135.63 C 565.33 1135.21 544.92 1120.48 537.56 1100.12 C 532.99 1088.94 534.22 1076.72 534.09 1064.95 C 534.07 1047.92 542.66 1031.21 556.44 1021.22 C 565.80 1014.30 577.41 1010.52 589.05 1010.60 C 622.70 1010.60 656.35 1010.60 690.01 1010.60 C 700.33 1010.69 710.97 1009.80 720.88 1013.36 C 741.59 1019.92 757.03 1039.83 758.37 1061.51 C 792.94 1059.35 826.15 1045.46 853.51 1024.50 C 879.52 1004.69 900.77 978.96 916.52 950.38 C 936.41 914.23 947.69 873.24 948.22 831.94 C 948.26 824.04 948.23 816.14 948.24 808.24 C 928.14 805.52 909.73 792.81 900.13 774.94 C 894.97 765.50 892.21 754.77 892.21 744.02 C 892.20 693.69 892.21 643.37 892.21 593.04 C 892.31 583.65 891.59 574.10 894.00 564.90 C 898.91 543.70 915.27 525.70 935.86 518.67 C 936.09 457.84 921.32 396.98 892.85 343.20 C 862.64 285.74 817.17 236.44 762.37 201.64 C 703.79 164.19 634.51 143.87 565.00 143.58 C 510.77 143.15 456.46 154.68 407.18 177.35 C 351.46 202.86 302.27 242.40 265.23 291.21 C 230.23 337.15 206.11 391.31 195.53 448.09 C 191.23 470.93 189.11 494.17 189.08 517.41 C 210.79 523.29 228.70 541.18 234.44 562.94 C 237.44 573.02 236.65 583.60 236.74 593.96 C 236.74 643.98 236.75 694.01 236.73 744.03 C 236.76 760.04 230.54 775.93 219.70 787.70 C 207.45 801.22 189.31 809.12 171.06 808.83 C 159.09 808.59 146.99 809.59 135.13 807.45 C 115.24 804.05 96.58 794.01 82.75 779.32 C 66.66 762.42 57.20 739.36 57.00 716.01 C 57.00 687.34 57.00 658.67 57.00 630.00 C 57.27 617.17 56.07 604.18 58.66 591.51 C 62.86 569.34 75.41 548.92 93.22 535.08 C 106.95 524.30 123.73 517.48 141.09 515.64 C 148.13 514.83 155.22 515.16 162.28 515.09 C 162.58 456.71 175.75 398.42 200.85 345.70 C 228.69 286.92 271.12 235.16 323.22 196.25 C 371.11 160.36 427.17 135.42 485.95 124.09 M 140.46 542.76 C 115.08 546.58 93.06 566.24 86.31 590.98 C 82.93 602.01 83.89 613.64 83.76 625.00 C 83.76 650.00 83.76 675.00 83.76 700.01 C 83.86 710.74 83.04 721.69 86.09 732.13 C 92.01 754.74 110.56 773.44 133.12 779.55 C 145.43 783.20 158.38 781.71 171.01 782.03 C 180.82 782.24 190.62 778.50 197.76 771.78 C 205.40 764.72 209.94 754.45 209.93 744.05 C 209.94 689.37 209.94 634.68 209.93 580.00 C 210.00 568.58 204.53 557.34 195.58 550.26 C 188.43 544.44 179.12 541.53 169.92 541.89 C 160.10 542.14 150.20 541.25 140.46 542.76 M 949.44 542.68 C 932.56 545.91 919.21 561.75 919.04 578.97 C 918.98 633.98 919.02 689.00 919.02 744.02 C 918.98 755.15 924.20 766.12 932.79 773.19 C 939.78 779.07 948.92 782.23 958.04 782.03 C 971.03 781.72 984.38 783.24 996.98 779.21 C 1019.13 772.79 1037.18 754.17 1042.94 731.83 C 1046.14 720.50 1044.97 708.63 1045.19 697.01 C 1045.18 667.69 1045.20 638.36 1045.18 609.04 C 1045.15 594.77 1040.41 580.56 1031.86 569.15 C 1021.66 555.36 1006.05 545.69 989.12 542.86 C 981.50 541.48 973.73 541.99 966.04 541.90 C 960.50 541.99 954.89 541.51 949.44 542.68 M 586.37 1037.52 C 573.60 1038.40 562.45 1049.18 561.10 1061.91 C 560.64 1068.23 560.99 1074.59 560.89 1080.94 C 560.47 1096.31 574.69 1109.86 590.00 1108.87 C 628.05 1108.84 666.09 1108.89 704.14 1108.85 C 713.52 1108.83 722.60 1103.58 727.49 1095.59 C 730.83 1090.38 731.96 1084.07 731.66 1077.95 C 731.37 1069.65 732.87 1060.78 728.83 1053.11 C 724.23 1043.45 713.73 1037.03 703.02 1037.40 C 664.14 1037.49 625.25 1037.26 586.37 1037.52 Z" />
</g>
</svg>
