<?xml version="1.0" encoding="UTF-8" ?>
<!DOCTYPE svg PUBLIC "-//W3C//DTD SVG 1.1//EN" "http://www.w3.org/Graphics/SVG/1.1/DTD/svg11.dtd">
<svg width="1136pt" height="1253pt" viewBox="0 0 1136 1253" version="1.1" xmlns="http://www.w3.org/2000/svg">
<g id="#ffffffff">
<path d=" M 237.31 213.16 C 244.71 209.30 252.83 207.09 261.01 205.63 C 271.75 204.65 282.56 208.04 291.88 213.22 C 296.41 215.83 300.86 218.92 303.65 223.47 C 321.33 248.94 338.19 274.99 355.36 300.81 C 378.23 335.92 401.42 370.83 423.73 406.31 C 428.98 416.17 432.29 427.82 429.91 438.97 C 428.18 449.10 424.61 458.88 419.59 467.84 C 405.11 493.83 390.34 519.66 375.50 545.44 C 372.90 549.15 374.51 553.90 374.08 558.10 C 395.71 588.28 420.35 616.16 445.65 643.29 C 471.40 670.55 498.08 696.92 525.04 722.99 C 554.80 751.34 585.33 778.97 617.96 804.00 C 621.23 806.30 624.27 808.97 627.69 811.05 C 631.96 810.81 636.85 812.28 640.54 809.46 C 664.46 795.69 688.42 781.99 712.52 768.52 C 725.56 761.01 740.06 755.64 755.14 754.47 C 764.37 754.93 773.50 757.83 781.20 762.98 C 813.53 783.46 845.41 804.66 877.45 825.61 C 902.92 842.46 928.48 859.20 953.83 876.25 C 959.17 880.12 965.49 883.12 969.19 888.83 C 975.00 896.76 978.25 906.28 979.79 915.91 C 980.63 923.85 978.44 931.65 975.97 939.11 C 973.00 947.71 968.29 955.60 962.81 962.82 C 950.15 979.66 936.69 995.89 922.75 1011.69 C 908.65 1027.53 894.13 1043.07 878.02 1056.91 C 863.42 1069.22 847.85 1081.75 828.93 1086.47 C 822.48 1088.03 815.76 1086.92 809.24 1086.38 C 767.54 1082.31 727.34 1068.78 689.37 1051.51 C 649.65 1033.25 612.07 1010.62 576.12 985.80 C 537.04 958.75 499.82 929.09 463.97 897.90 C 411.62 852.11 361.89 803.34 314.89 752.08 C 264.38 696.78 216.87 638.41 176.89 574.98 C 154.98 539.91 135.31 503.28 120.63 464.56 C 108.67 432.96 100.18 399.80 98.05 366.00 C 97.09 352.05 104.31 339.24 111.62 327.89 C 130.79 300.11 156.06 277.31 181.48 255.39 C 192.25 246.14 203.30 237.22 214.51 228.52 C 221.91 223.11 229.00 217.15 237.31 213.16 M 253.39 234.56 C 247.16 236.68 241.93 240.80 236.74 244.72 C 206.95 267.62 178.51 292.37 152.61 319.61 C 143.91 329.02 135.21 338.64 128.79 349.81 C 127.46 352.36 125.86 355.03 126.05 358.02 C 125.76 379.66 128.98 401.24 134.48 422.14 C 145.28 462.03 163.09 499.67 183.61 535.42 C 204.14 571.04 227.65 604.86 252.73 637.40 C 297.40 695.14 346.99 748.89 398.86 800.18 C 441.81 843.01 486.69 883.97 534.12 921.80 C 569.66 950.03 606.70 976.47 645.89 999.42 C 679.49 1018.99 714.70 1036.20 751.94 1047.66 C 776.85 1055.17 802.86 1060.00 828.96 1059.05 C 832.70 1057.76 836.07 1055.58 839.43 1053.51 C 850.68 1045.97 860.67 1036.74 870.44 1027.42 C 896.54 1002.01 920.68 974.59 942.74 945.61 C 947.81 939.18 952.51 931.53 951.84 923.00 C 951.44 917.73 953.09 911.76 949.66 907.20 C 946.94 904.02 943.96 900.99 940.41 898.76 C 914.44 881.25 888.23 864.11 862.11 846.82 C 830.09 825.87 798.21 804.71 765.90 784.20 C 762.49 781.56 758.00 782.74 754.05 782.48 C 744.28 782.07 734.89 785.72 726.57 790.53 C 694.66 808.35 662.99 826.59 631.31 844.82 C 621.30 838.95 611.78 832.28 602.50 825.33 C 549.03 784.83 500.78 737.99 453.55 690.51 C 424.18 660.39 395.58 629.42 369.67 596.25 C 359.22 582.65 348.84 568.90 340.61 553.82 C 359.21 521.32 377.94 488.90 396.17 456.20 C 398.31 452.78 399.85 449.03 401.22 445.25 C 403.41 438.69 402.60 431.69 402.70 424.90 C 402.70 420.24 399.12 416.82 397.04 412.96 C 361.45 357.68 325.47 302.64 288.82 248.06 C 285.77 243.23 282.08 238.83 277.68 235.18 C 274.86 233.22 271.23 233.42 267.96 233.38 C 263.10 233.48 258.08 232.95 253.39 234.56 Z" />
<path d=" M 688.38 476.14 C 754.82 412.13 821.24 348.09 887.64 284.04 C 895.56 292.11 903.34 300.34 911.24 308.44 C 855.51 362.27 799.68 416.01 743.91 469.82 C 733.22 480.19 722.37 490.39 711.83 500.92 C 711.82 504.30 711.82 507.68 711.83 511.06 C 733.25 533.24 754.58 555.52 776.08 577.63 C 716.80 580.68 657.52 583.74 598.24 586.79 C 603.46 527.69 608.69 468.59 613.88 409.48 C 635.38 431.67 656.66 454.05 678.28 476.11 C 681.64 476.13 685.01 476.11 688.38 476.14 Z" />
</g>
</svg>
