<?xml version="1.0" encoding="UTF-8" ?>
<!DOCTYPE svg PUBLIC "-//W3C//DTD SVG 1.1//EN" "http://www.w3.org/Graphics/SVG/1.1/DTD/svg11.dtd">
<svg width="1136pt" height="1253pt" viewBox="0 0 1136 1253" version="1.1" xmlns="http://www.w3.org/2000/svg">
<g id="#ffffffff">
<path d=" M 126.85 39.75 C 135.66 31.36 147.70 26.34 159.90 26.31 C 354.95 26.32 550.00 26.31 745.05 26.31 C 749.99 26.40 754.97 26.02 759.88 26.80 C 774.02 28.92 787.26 36.98 795.37 48.80 C 799.18 54.42 801.74 61.07 801.68 67.93 C 801.68 148.06 801.68 228.20 801.68 308.33 C 863.46 308.33 925.24 308.34 987.02 308.33 C 1005.60 308.04 1024.19 318.44 1033.07 334.86 C 1035.54 339.51 1037.04 344.73 1037.00 350.03 C 1037.00 454.38 1037.00 558.72 1037.00 663.07 C 1037.30 673.80 1036.12 684.77 1031.80 694.70 C 1026.45 707.60 1015.58 718.34 1002.10 722.44 C 992.73 725.57 982.76 724.37 973.07 724.60 C 915.94 724.57 858.81 724.67 801.68 724.60 C 801.68 867.75 801.68 1010.90 801.68 1154.05 C 801.56 1165.45 802.45 1177.10 799.24 1188.20 C 795.45 1202.86 785.43 1216.25 771.28 1222.24 C 764.29 1225.35 756.56 1226.34 748.97 1226.02 C 554.98 1226.01 360.99 1226.03 167.00 1226.01 C 145.67 1225.12 124.24 1212.64 115.03 1193.03 C 110.56 1184.00 111.56 1173.74 111.50 1164.01 C 111.50 801.33 111.50 438.65 111.50 75.96 C 111.29 62.45 117.00 49.00 126.85 39.75 M 135.03 74.92 C 134.98 441.98 135.03 809.04 135.01 1176.09 C 134.76 1182.59 138.76 1188.34 143.45 1192.47 C 150.46 1198.58 159.60 1202.51 168.97 1202.57 C 363.66 1202.54 558.36 1202.59 753.06 1202.54 C 761.47 1202.59 769.35 1197.44 773.28 1190.10 C 778.39 1181.30 778.33 1170.82 778.16 1160.96 C 778.16 1015.51 778.16 870.06 778.16 724.61 C 754.72 724.60 731.28 724.60 707.84 724.61 C 707.83 803.74 707.87 882.88 707.82 962.02 C 707.95 979.52 692.45 995.15 674.96 995.20 C 529.63 995.25 384.31 995.21 238.98 995.22 C 224.27 995.39 210.36 984.75 206.59 970.55 C 204.96 965.18 205.37 959.54 205.33 954.02 C 205.33 706.69 205.35 459.35 205.32 212.02 C 205.18 207.07 205.79 202.06 207.64 197.44 C 212.41 184.75 225.43 175.76 239.01 175.89 C 384.03 175.88 529.04 175.89 674.06 175.89 C 687.94 175.71 701.23 185.07 705.80 198.16 C 708.54 205.10 707.73 212.67 707.84 219.95 C 707.84 249.41 707.84 278.87 707.85 308.33 C 731.28 308.33 754.72 308.33 778.15 308.33 C 778.17 228.56 778.14 148.78 778.17 69.01 C 778.42 64.99 775.86 61.54 773.25 58.77 C 767.74 53.10 759.91 49.65 751.97 49.77 C 554.66 49.79 357.35 49.75 160.05 49.79 C 146.76 49.77 134.95 61.64 135.03 74.92 M 236.89 199.66 C 232.21 200.64 228.64 205.21 228.85 210.00 C 228.83 460.33 228.84 710.66 228.85 961.00 C 228.67 964.91 230.93 968.77 234.42 970.55 C 237.36 972.16 240.80 971.61 244.01 971.70 C 385.67 971.69 527.32 971.69 668.97 971.70 C 672.14 971.59 675.55 972.16 678.50 970.67 C 682.11 968.95 684.51 965.02 684.32 961.01 C 684.33 882.21 684.32 803.41 684.32 724.60 C 666.08 724.59 647.84 724.63 629.61 724.59 C 590.86 763.86 552.17 803.19 513.45 842.48 C 510.78 845.23 508.06 848.46 504.03 849.05 C 497.30 850.56 490.20 844.96 490.12 838.07 C 490.03 800.25 490.11 762.43 490.08 724.61 C 475.72 724.60 461.36 724.61 447.00 724.60 C 435.37 724.63 423.93 720.83 414.12 714.69 C 404.08 708.34 395.47 699.07 391.67 687.66 C 389.92 682.65 389.50 677.31 389.65 672.05 C 389.66 567.36 389.65 462.68 389.65 358.00 C 389.48 345.27 394.52 332.58 403.38 323.44 C 412.51 313.85 425.66 308.24 438.91 308.33 C 520.71 308.33 602.52 308.34 684.32 308.33 C 684.33 276.89 684.31 245.45 684.33 214.01 C 684.26 211.16 684.66 208.14 683.41 205.48 C 681.81 201.89 678.04 199.37 674.08 199.42 C 530.70 199.38 387.32 199.43 243.94 199.40 C 241.59 199.44 239.21 199.23 236.89 199.66 M 413.19 356.97 C 413.15 462.99 413.19 569.00 413.18 675.02 C 413.06 681.23 416.87 686.70 421.30 690.72 C 428.57 697.19 438.20 701.26 448.01 701.09 C 465.71 701.07 483.41 701.09 501.10 701.08 C 505.90 700.80 510.73 703.63 512.60 708.10 C 513.91 710.89 513.56 714.04 513.61 717.03 C 513.59 747.62 513.60 778.20 513.61 808.79 C 547.73 774.16 581.85 739.53 615.96 704.89 C 618.25 702.43 621.56 700.98 624.94 701.09 C 745.93 701.07 866.93 701.07 987.93 701.08 C 994.72 701.16 1001.44 698.05 1005.74 692.78 C 1011.44 685.92 1013.41 676.73 1013.47 668.00 C 1013.49 562.35 1013.46 456.69 1013.49 351.03 C 1013.72 347.68 1011.87 344.69 1009.81 342.22 C 1003.38 334.43 992.96 330.93 983.06 331.84 C 801.70 331.86 620.34 331.83 438.99 331.85 C 425.43 331.43 413.11 343.41 413.19 356.97 Z" />
<path d=" M 530.11 449.13 C 577.06 448.80 624.04 449.08 671.01 448.99 C 750.34 448.99 829.67 448.98 909.00 448.99 C 915.20 448.57 921.05 453.78 921.29 460.00 C 921.87 466.41 916.31 472.54 909.86 472.48 C 783.90 472.52 657.95 472.50 532.00 472.50 C 526.52 472.67 521.35 468.48 520.36 463.11 C 518.86 456.77 523.65 449.91 530.11 449.13 Z" />
<path d=" M 527.37 559.58 C 530.41 558.28 533.78 558.76 537.00 558.68 C 660.98 558.70 784.97 558.68 908.95 558.68 C 915.28 558.23 921.22 563.63 921.30 569.98 C 921.76 576.64 915.65 582.68 909.00 582.20 C 783.32 582.21 657.64 582.20 531.96 582.19 C 526.24 582.38 520.94 577.77 520.24 572.13 C 519.39 566.95 522.51 561.51 527.37 559.58 Z" />
<path d=" M 454.46 1043.75 C 468.84 1041.55 484.04 1045.58 495.38 1054.72 C 508.11 1064.72 515.75 1080.80 515.43 1097.00 C 515.33 1114.29 506.08 1131.16 491.59 1140.59 C 479.51 1148.63 464.06 1151.40 449.96 1147.92 C 435.16 1144.47 422.13 1134.25 415.19 1120.74 C 408.01 1107.10 407.29 1090.30 413.21 1076.08 C 420.04 1059.07 436.29 1046.30 454.46 1043.75 M 455.47 1062.65 C 446.79 1064.37 438.92 1069.66 433.96 1076.98 C 424.66 1090.09 426.55 1109.60 438.22 1120.67 C 449.49 1132.27 469.17 1133.87 482.17 1124.25 C 495.08 1115.43 500.27 1097.30 493.96 1082.99 C 488.04 1068.23 471.02 1059.15 455.47 1062.65 Z" />
</g>
</svg>
