<?xml version="1.0" encoding="UTF-8" ?>
<!DOCTYPE svg PUBLIC "-//W3C//DTD SVG 1.1//EN" "http://www.w3.org/Graphics/SVG/1.1/DTD/svg11.dtd">
<svg width="1136pt" height="1186pt" viewBox="0 0 1136 1186" version="1.1" xmlns="http://www.w3.org/2000/svg">
<g id="#ffffffff">
<path d=" M 195.74 126.80 C 212.07 122.94 229.73 125.37 244.52 133.25 C 266.68 144.81 281.48 168.93 281.72 193.94 C 281.77 302.35 281.72 410.77 281.74 519.19 C 309.58 532.57 333.46 554.03 349.63 580.35 C 369.95 613.04 377.90 653.14 371.73 691.12 C 367.02 721.13 353.60 749.67 333.54 772.47 C 319.16 788.91 301.41 802.36 281.74 811.85 C 281.73 875.59 281.76 939.32 281.73 1003.06 C 281.56 1019.85 275.14 1036.50 263.91 1049.00 C 254.20 1059.92 241.00 1067.71 226.71 1070.81 C 208.44 1074.99 188.55 1071.33 172.93 1061.00 C 157.06 1050.71 145.75 1033.73 142.39 1015.12 C 140.81 1007.50 141.22 999.70 141.18 991.98 C 141.18 931.94 141.18 871.89 141.18 811.85 C 112.90 798.27 88.72 776.33 72.54 749.45 C 51.88 715.56 44.47 673.91 52.07 634.97 C 57.52 606.04 71.13 578.75 90.85 556.91 C 104.96 541.22 122.18 528.36 141.18 519.19 C 141.17 411.46 141.18 303.73 141.18 196.00 C 141.06 181.71 145.33 167.37 153.46 155.60 C 163.26 141.13 178.69 130.61 195.74 126.80 M 179.47 160.39 C 169.87 169.12 164.07 181.93 164.13 194.94 C 164.11 300.05 164.13 405.15 164.12 510.25 C 194.77 500.89 228.15 500.90 258.79 510.25 C 258.79 405.15 258.81 300.05 258.78 194.94 C 258.81 184.60 255.20 174.34 248.83 166.21 C 240.55 155.54 227.57 148.58 214.04 148.01 C 201.46 147.22 188.70 151.82 179.47 160.39 M 197.61 526.84 C 183.28 528.36 168.89 531.58 155.96 538.03 C 145.37 541.79 135.84 548.14 126.84 554.79 C 111.58 566.49 98.72 581.33 89.42 598.18 C 70.06 632.73 66.79 675.70 80.34 712.88 C 90.95 742.41 111.93 768.02 138.69 784.39 C 144.66 787.91 150.67 791.62 157.45 793.31 C 161.52 796.14 166.33 797.43 170.99 798.93 C 195.86 806.47 222.86 806.82 247.96 800.08 C 278.91 791.76 306.64 772.28 325.15 746.14 C 345.13 718.31 354.01 682.93 349.85 648.95 C 345.73 612.23 325.94 577.76 296.70 555.27 C 268.93 533.53 232.68 523.20 197.61 526.84 M 164.13 820.78 C 164.12 881.20 164.12 941.62 164.13 1002.05 C 163.51 1024.72 181.61 1045.88 204.03 1049.00 C 215.62 1050.83 227.87 1048.27 237.61 1041.69 C 250.40 1033.27 258.75 1018.38 258.78 1003.02 C 258.82 942.27 258.78 881.53 258.79 820.79 C 228.15 830.14 194.77 830.15 164.13 820.78 Z" />
<path d=" M 521.52 140.39 C 533.98 130.35 549.96 124.87 565.94 125.00 C 581.67 125.11 597.32 130.64 609.54 140.57 C 625.85 153.56 635.70 174.14 635.69 194.98 C 635.70 225.18 635.71 255.38 635.69 285.58 C 663.65 299.04 687.63 320.64 703.81 347.13 C 723.88 379.63 731.77 419.37 725.75 457.08 C 721.08 487.39 707.52 516.22 687.22 539.20 C 672.89 555.49 655.23 568.83 635.70 578.27 C 635.69 719.49 635.70 860.72 635.70 1001.95 C 635.83 1021.66 627.23 1041.24 612.53 1054.38 C 596.21 1069.29 572.58 1075.72 550.97 1070.98 C 534.50 1067.61 519.42 1058.02 509.33 1044.57 C 500.11 1032.45 495.10 1017.24 495.14 1002.03 C 495.13 860.77 495.14 719.52 495.13 578.27 C 466.78 564.63 442.54 542.61 426.35 515.63 C 405.92 481.97 398.53 440.70 405.90 402.03 C 411.13 373.67 424.19 346.83 443.19 325.15 C 457.60 308.64 475.38 295.11 495.13 285.61 C 495.14 259.07 495.13 232.53 495.13 206.00 C 495.20 198.26 494.74 190.44 496.27 182.80 C 499.18 166.22 508.34 150.86 521.52 140.39 M 533.41 160.41 C 523.82 169.14 518.03 181.94 518.09 194.94 C 518.08 222.18 518.09 249.42 518.09 276.66 C 548.73 267.30 582.11 267.30 612.75 276.66 C 612.75 249.77 612.75 222.88 612.75 195.99 C 612.87 188.25 611.13 180.47 607.51 173.61 C 600.22 159.25 585.18 149.10 569.06 148.08 C 556.14 146.98 542.89 151.57 533.41 160.41 M 547.45 293.71 C 509.93 298.36 474.90 319.29 452.75 349.90 C 432.36 377.57 423.03 412.96 426.87 447.10 C 430.30 480.44 446.56 512.17 471.32 534.71 C 494.60 556.12 525.35 569.28 556.95 571.03 C 579.41 572.37 602.27 568.41 622.69 558.91 C 651.58 546.16 675.60 522.92 689.83 494.78 C 707.74 459.85 709.61 417.22 695.10 380.78 C 683.74 351.87 662.37 327.07 635.53 311.46 C 609.19 296.02 577.73 289.73 547.45 293.71 M 518.08 587.20 C 518.09 724.14 518.09 861.08 518.08 998.03 C 517.91 1004.63 518.34 1011.36 520.62 1017.63 C 526.09 1033.84 540.96 1046.46 557.92 1048.98 C 571.22 1051.15 585.36 1047.36 595.66 1038.64 C 606.42 1029.78 612.96 1016.00 612.75 1002.04 C 612.75 863.76 612.74 725.48 612.75 587.20 C 582.10 596.55 548.73 596.55 518.08 587.20 Z" />
<path d=" M 902.93 126.97 C 930.77 119.81 962.14 132.11 977.78 156.20 C 985.65 167.85 989.75 181.93 989.66 195.97 C 989.66 335.29 989.66 474.61 989.66 613.93 C 1016.91 627.04 1040.38 647.88 1056.52 673.47 C 1077.45 706.24 1085.81 746.72 1079.76 785.12 C 1075.03 816.17 1060.98 845.68 1039.90 868.96 C 1025.80 884.61 1008.62 897.44 989.66 906.59 C 989.66 934.73 989.66 962.87 989.66 991.01 C 989.60 999.33 990.09 1007.74 988.28 1015.93 C 984.89 1033.51 974.40 1049.56 959.71 1059.77 C 943.84 1070.99 923.17 1075.15 904.21 1070.83 C 887.78 1067.30 872.82 1057.55 862.87 1044.02 C 853.90 1031.98 849.05 1016.99 849.09 1001.99 C 849.10 970.20 849.09 938.40 849.10 906.61 C 821.77 893.46 798.24 872.54 782.09 846.86 C 765.17 820.21 756.43 788.50 757.10 756.95 C 757.71 725.07 767.95 693.43 786.30 667.34 C 802.18 644.52 824.07 625.99 849.10 613.92 C 849.09 474.30 849.09 334.67 849.10 195.04 C 849.15 180.79 853.61 166.56 861.84 154.91 C 871.53 141.01 886.43 130.83 902.93 126.97 M 898.13 152.96 C 885.28 159.37 875.64 171.88 872.93 185.99 C 871.81 191.25 872.05 196.64 872.04 201.98 C 872.04 336.32 872.05 470.65 872.04 604.99 C 902.69 595.64 936.06 595.64 966.71 604.99 C 966.69 470.67 966.71 336.35 966.71 202.04 C 966.68 196.99 966.92 191.91 965.99 186.92 C 963.50 172.32 953.59 159.30 940.31 152.80 C 927.26 146.25 911.12 146.31 898.13 152.96 M 903.54 621.79 C 872.47 625.15 842.83 639.61 820.82 661.76 C 799.03 683.43 784.69 712.49 781.06 743.03 C 777.46 771.95 783.05 801.98 797.25 827.46 C 812.50 855.21 837.47 877.49 866.82 889.38 C 902.76 904.16 944.96 902.90 979.89 885.83 C 1010.06 871.35 1034.62 845.61 1047.67 814.78 C 1062.85 779.46 1062.39 737.78 1046.38 702.82 C 1033.10 673.36 1009.23 648.87 980.14 634.81 C 956.55 623.24 929.62 618.84 903.54 621.79 M 872.04 915.53 C 872.05 943.02 872.04 970.52 872.04 998.02 C 871.83 1005.16 872.42 1012.45 875.13 1019.13 C 881.65 1036.64 899.33 1049.35 918.07 1049.54 C 935.27 1050.28 952.23 1040.53 960.59 1025.54 C 964.66 1018.43 966.77 1010.24 966.70 1002.05 C 966.71 973.21 966.70 944.37 966.71 915.53 C 936.06 924.88 902.68 924.89 872.04 915.53 Z" />
</g>
</svg>
