<?xml version="1.0" encoding="UTF-8" ?>
<!DOCTYPE svg PUBLIC "-//W3C//DTD SVG 1.1//EN" "http://www.w3.org/Graphics/SVG/1.1/DTD/svg11.dtd">
<svg width="1136pt" height="1253pt" viewBox="0 0 1136 1253" version="1.1" xmlns="http://www.w3.org/2000/svg">
<g id="#ffffffff">
<path d=" M 526.39 39.43 C 547.81 29.01 573.20 27.08 595.91 34.33 C 606.66 37.50 616.22 43.47 626.13 48.55 C 658.42 65.61 691.13 81.92 724.57 96.64 C 746.68 106.58 768.86 116.37 791.07 126.09 C 798.12 129.22 805.35 132.02 811.91 136.12 C 826.82 145.12 839.07 158.38 847.00 173.88 C 854.45 188.42 862.22 202.86 871.81 216.14 C 878.80 226.16 886.12 235.96 893.57 245.64 C 903.93 260.56 903.19 281.92 892.21 296.31 C 887.40 303.18 880.06 307.45 873.41 312.27 C 864.61 318.50 855.81 324.74 847.01 330.96 C 836.62 338.23 824.47 342.86 811.93 344.61 C 813.23 346.20 814.37 347.95 814.89 349.98 C 826.96 390.73 828.74 434.47 819.98 476.07 C 807.86 535.13 773.96 589.29 726.39 626.28 C 698.01 648.50 664.93 664.71 629.92 673.32 C 587.73 683.86 542.87 683.44 500.87 672.15 C 437.55 655.48 381.54 613.38 347.59 557.43 C 311.66 499.20 300.73 426.35 317.69 360.08 C 319.30 354.86 319.76 349.01 323.27 344.58 C 310.69 342.82 298.52 338.14 288.13 330.82 C 278.92 324.32 269.73 317.80 260.53 311.29 C 254.83 307.19 248.66 303.47 244.30 297.83 C 232.44 283.63 231.06 261.80 241.27 246.32 C 252.17 230.91 263.16 215.57 274.09 200.17 C 280.54 190.88 285.44 180.65 290.77 170.71 C 301.03 152.50 317.50 137.89 336.84 129.93 C 375.16 113.76 413.31 97.12 450.43 78.31 C 475.86 65.56 501.11 52.47 526.39 39.43 M 555.60 56.80 C 548.79 57.99 542.19 60.26 536.06 63.43 C 506.46 78.79 476.81 94.07 446.93 108.86 C 413.64 125.11 379.66 139.86 345.54 154.26 C 331.34 160.40 319.42 171.56 312.22 185.24 C 306.87 195.66 301.45 206.10 294.70 215.70 C 284.15 230.52 273.59 245.33 263.04 260.16 C 257.79 267.81 259.98 279.24 267.50 284.60 C 277.03 291.42 286.64 298.15 296.19 304.94 C 300.72 308.09 305.08 311.55 310.08 313.93 C 317.76 317.77 326.36 319.66 334.94 319.54 C 490.28 319.54 645.63 319.54 800.98 319.54 C 812.21 319.65 823.39 316.07 832.56 309.60 C 843.30 302.01 854.02 294.39 864.77 286.80 C 867.54 284.91 870.36 282.89 872.17 279.99 C 876.21 273.93 876.31 265.19 871.66 259.42 C 864.50 250.16 857.54 240.73 850.83 231.13 C 840.58 216.92 832.17 201.53 824.21 185.96 C 817.15 171.96 805.20 160.48 790.85 154.13 C 760.75 140.98 730.68 127.75 700.76 114.18 C 666.31 98.71 632.77 81.31 599.43 63.59 C 586.11 56.51 570.43 54.21 555.60 56.80 M 343.36 345.36 C 362.77 366.14 386.74 382.20 411.95 395.10 C 449.19 413.97 490.15 425.02 531.62 429.15 C 571.68 433.05 612.42 431.60 651.86 423.33 C 690.61 415.08 728.21 399.69 760.07 375.93 C 771.90 366.98 783.11 357.04 792.32 345.37 C 642.67 345.32 493.02 345.34 343.36 345.36 M 356.53 519.42 C 371.24 551.70 393.53 580.45 421.00 602.89 C 450.23 626.83 485.41 643.49 522.50 650.76 C 563.19 658.71 606.03 655.83 645.12 641.91 C 677.66 630.39 707.53 611.45 731.89 586.99 C 755.80 563.08 774.41 533.88 785.90 502.07 C 800.08 463.14 803.26 420.38 795.62 379.70 C 760.42 412.71 715.56 434.19 669.00 445.78 C 627.28 456.17 583.85 458.87 541.03 455.86 C 500.96 452.93 461.19 444.25 423.99 428.95 C 393.61 416.46 364.95 399.54 340.01 378.10 C 330.76 425.40 336.32 475.60 356.53 519.42 Z" />
<path d=" M 553.62 103.84 C 569.08 101.07 585.32 103.02 599.75 109.20 C 603.36 110.77 606.00 114.13 606.92 117.92 C 609.96 129.36 620.40 137.95 631.90 139.93 C 636.23 140.38 640.36 142.87 642.35 146.81 C 645.64 153.11 647.40 160.11 648.31 167.12 C 650.71 189.45 648.23 212.60 639.09 233.25 C 626.46 261.98 602.19 284.83 573.87 297.87 C 569.67 300.07 564.63 299.68 560.53 297.46 C 535.98 286.07 514.60 267.29 501.29 243.62 C 490.10 223.77 485.23 200.64 486.36 177.95 C 486.91 167.34 489.11 156.65 493.96 147.13 C 495.79 143.22 499.72 140.58 503.97 140.03 C 513.00 138.46 521.49 132.95 525.82 124.75 C 528.55 120.02 528.39 113.49 533.53 110.37 C 539.69 106.90 546.72 105.22 553.62 103.84 M 551.44 130.73 C 545.34 146.78 531.28 159.30 514.79 163.90 C 511.69 173.27 511.68 183.33 512.37 193.07 C 513.55 208.86 518.86 224.32 527.74 237.43 C 537.76 252.21 551.80 264.08 567.61 272.29 C 586.50 262.37 602.99 247.23 612.92 228.21 C 620.07 214.64 623.42 199.24 623.33 183.94 C 623.26 177.23 623.30 170.39 621.46 163.88 C 604.86 159.30 590.55 146.86 584.10 130.84 C 573.53 127.59 562.04 127.64 551.44 130.73 Z" />
<path d=" M 356.58 706.48 C 362.44 703.17 370.62 705.05 374.33 710.70 C 377.40 715.12 377.14 721.46 373.72 725.62 C 371.81 728.24 368.66 729.33 366.02 731.00 C 311.67 765.52 266.35 814.16 235.91 870.90 C 211.49 916.22 196.57 966.63 192.52 1017.96 C 190.68 1039.18 191.44 1060.49 191.29 1081.76 C 206.02 1097.38 223.58 1110.04 241.87 1121.15 C 272.59 1139.62 305.99 1153.32 340.22 1163.79 C 386.49 1177.87 434.43 1185.93 482.55 1190.15 C 529.92 1194.22 577.58 1194.73 625.05 1192.14 C 670.51 1189.55 715.88 1183.77 760.22 1173.24 C 799.32 1163.87 837.70 1150.83 873.46 1132.33 C 899.12 1118.84 923.97 1102.88 944.04 1081.75 C 943.92 1058.78 944.71 1035.74 942.36 1012.85 C 936.06 944.17 910.03 877.53 868.44 822.55 C 842.45 788.13 810.60 758.08 774.52 734.43 C 769.04 731.85 765.55 725.30 767.55 719.37 C 769.78 711.45 780.01 707.82 787.02 711.78 C 852.25 754.05 904.66 815.75 935.91 886.91 C 951.62 922.54 962.01 960.49 966.81 999.12 C 970.73 1028.25 969.76 1057.69 969.80 1086.99 C 969.64 1093.49 964.13 1097.75 960.18 1102.23 C 938.53 1124.09 912.42 1141.05 885.27 1155.26 C 851.90 1172.54 816.33 1185.28 780.02 1194.80 C 733.86 1206.88 686.44 1213.79 638.87 1217.12 C 593.65 1220.20 548.22 1220.31 502.98 1217.55 C 453.82 1214.45 404.79 1207.60 357.07 1195.26 C 321.97 1186.17 287.57 1174.07 255.12 1157.85 C 231.84 1146.13 209.48 1132.35 189.51 1115.54 C 182.13 1109.25 174.98 1102.63 168.78 1095.16 C 166.58 1092.63 165.41 1089.30 165.49 1085.96 C 165.50 1072.97 165.50 1059.98 165.50 1046.99 C 165.66 977.04 184.55 907.22 219.84 846.82 C 252.99 789.76 300.41 741.11 356.58 706.48 Z" />
<path d=" M 711.57 860.86 C 727.26 858.97 743.42 861.31 757.98 867.45 C 761.82 868.99 764.65 872.52 765.57 876.53 C 769.28 890.39 782.01 900.76 795.98 903.04 C 800.23 903.51 804.28 905.97 806.24 909.84 C 810.16 917.29 812.14 925.63 813.08 933.97 C 815.26 956.85 813.11 980.41 804.72 1001.93 C 794.10 1029.62 773.75 1052.97 749.09 1069.16 C 741.78 1073.88 734.23 1078.38 726.08 1081.47 C 720.78 1083.35 715.60 1080.37 710.95 1078.15 C 684.06 1064.63 660.75 1043.31 646.53 1016.63 C 634.52 994.18 629.52 968.26 631.11 942.92 C 631.89 931.46 634.41 919.94 639.78 909.71 C 641.75 905.88 645.77 903.51 649.98 903.02 C 663.22 900.74 675.29 890.95 678.77 877.75 C 679.58 873.61 681.95 869.64 685.88 867.83 C 694.01 864.19 702.75 861.98 711.57 860.86 M 702.22 889.11 C 695.56 907.69 679.20 922.04 660.22 927.08 C 657.60 934.40 656.76 942.23 656.64 949.97 C 656.47 962.98 658.16 976.08 662.36 988.43 C 672.07 1017.69 695.08 1041.31 722.34 1055.00 C 742.14 1044.72 759.69 1029.63 771.62 1010.68 C 781.93 994.37 787.47 975.23 787.96 955.97 C 788.08 946.34 788.25 936.51 785.64 927.15 C 766.44 922.07 749.75 907.79 742.59 889.16 C 729.56 885.00 715.26 884.98 702.22 889.11 Z" />
</g>
</svg>
