<?xml version="1.0" encoding="UTF-8" ?>
<!DOCTYPE svg PUBLIC "-//W3C//DTD SVG 1.1//EN" "http://www.w3.org/Graphics/SVG/1.1/DTD/svg11.dtd">
<svg width="1136pt" height="1253pt" viewBox="0 0 1136 1253" version="1.1" xmlns="http://www.w3.org/2000/svg">
<g id="#ffffffff">
<path d=" M 809.52 128.60 C 813.03 127.49 816.76 129.23 819.09 131.88 C 853.65 166.99 888.21 202.10 922.78 237.20 C 924.64 239.20 927.01 241.06 927.55 243.90 C 928.59 247.36 926.97 251.07 924.35 253.38 C 888.57 288.61 852.80 323.85 817.00 359.06 C 813.63 363.06 806.99 363.30 803.45 359.42 C 767.89 323.33 732.35 287.22 696.81 251.12 C 693.86 248.36 693.01 243.70 694.95 240.13 C 696.20 238.07 698.06 236.50 699.76 234.82 C 734.87 200.25 770.00 165.69 805.10 131.11 C 806.32 129.89 807.79 128.92 809.52 128.60 M 811.53 157.70 C 782.14 186.69 752.72 215.65 723.28 244.59 C 752.28 273.96 781.22 303.40 810.17 332.82 C 839.61 303.88 869.03 274.92 898.43 245.93 C 869.46 216.52 840.53 187.08 811.53 157.70 Z" />
<path d=" M 490.83 231.81 C 493.24 230.16 496.25 230.52 499.00 230.49 C 540.38 230.52 581.75 230.48 623.12 230.51 C 627.34 230.30 631.35 233.78 631.60 238.02 C 631.74 242.67 631.67 247.32 631.64 251.98 C 631.64 256.43 627.48 260.27 623.05 259.99 C 587.53 260.01 552.02 259.99 516.50 260.00 C 516.50 377.17 516.50 494.33 516.50 611.50 C 550.66 611.51 584.81 611.47 618.96 611.52 C 623.03 611.47 626.81 614.86 627.09 618.94 C 627.26 623.65 627.18 628.38 627.13 633.10 C 627.07 637.32 623.24 641.03 619.03 640.97 C 584.85 641.04 550.68 640.98 516.50 641.00 C 516.50 760.89 516.51 880.77 516.50 1000.66 C 551.99 1000.68 587.49 1000.65 622.99 1000.67 C 627.52 1000.36 631.75 1004.34 631.64 1008.89 C 631.65 1013.56 631.77 1018.24 631.58 1022.91 C 631.18 1027.10 627.13 1030.44 622.94 1030.16 C 580.63 1030.18 538.32 1030.16 496.02 1030.17 C 492.85 1030.38 489.62 1028.76 488.09 1025.96 C 486.49 1023.26 487.11 1020.01 486.99 1017.04 C 487.01 891.70 487.00 766.35 487.00 641.00 C 449.99 640.99 412.98 641.01 375.97 640.99 C 371.54 641.27 367.37 637.46 367.36 633.01 C 367.29 628.67 367.32 624.33 367.34 619.99 C 367.23 616.75 369.21 613.58 372.17 612.26 C 374.29 611.24 376.70 611.53 378.97 611.48 C 414.98 611.52 450.99 611.49 487.00 611.50 C 486.99 487.64 487.01 363.79 486.99 239.94 C 486.73 236.79 488.09 233.50 490.83 231.81 Z" />
<path d=" M 181.43 510.64 C 185.01 509.23 189.10 510.71 191.56 513.52 C 226.45 548.95 261.33 584.39 296.21 619.82 C 297.93 621.61 299.94 623.44 300.29 626.05 C 301.21 629.37 299.60 632.91 297.10 635.12 C 261.19 670.49 225.29 705.88 189.33 741.20 C 185.90 745.06 179.36 744.92 175.95 741.10 C 140.57 705.17 105.20 669.22 69.80 633.30 C 67.29 631.00 65.82 627.31 66.90 623.98 C 67.46 621.00 70.02 619.09 72.02 617.06 C 106.12 583.48 140.24 549.91 174.33 516.33 C 176.55 514.29 178.44 511.59 181.43 510.64 M 95.95 626.39 C 124.91 655.81 153.89 685.22 182.84 714.65 C 212.27 685.70 241.74 656.78 271.08 627.73 C 242.10 598.36 213.19 568.90 184.20 539.53 C 154.80 568.50 125.42 597.49 95.95 626.39 Z" />
<path d=" M 809.45 513.62 C 814.14 512.05 818.18 515.57 821.04 518.85 C 855.59 554.00 890.21 589.08 924.75 624.23 C 928.78 627.66 928.86 634.40 924.84 637.87 C 888.94 673.29 852.98 708.65 817.04 744.02 C 814.78 746.47 811.22 747.94 807.94 746.94 C 804.49 746.30 802.37 743.21 799.99 740.94 C 766.79 707.18 733.54 673.45 700.34 639.70 C 698.67 637.99 696.87 636.40 695.46 634.47 C 692.96 630.93 693.56 625.71 696.76 622.79 C 732.86 587.22 769.01 551.67 805.12 516.09 C 806.31 514.91 807.75 513.93 809.45 513.62 M 723.28 629.59 C 752.28 658.96 781.22 688.40 810.17 717.82 C 839.61 688.88 869.03 659.92 898.43 630.94 C 869.48 601.52 840.52 572.11 811.56 542.70 C 782.13 571.66 752.73 600.65 723.28 629.59 Z" />
<path d=" M 809.40 898.63 C 812.93 897.47 816.72 899.18 819.07 901.86 C 853.47 936.80 887.87 971.75 922.27 1006.69 C 924.28 1008.88 926.95 1010.84 927.56 1013.94 C 928.57 1017.36 926.99 1021.03 924.40 1023.32 C 888.61 1058.58 852.81 1093.83 816.99 1129.06 C 814.74 1131.49 811.19 1132.93 807.93 1131.94 C 804.50 1131.30 802.39 1128.24 800.03 1125.98 C 765.65 1091.02 731.23 1056.10 696.84 1021.15 C 694.70 1019.05 693.41 1015.88 694.06 1012.91 C 694.57 1008.86 698.26 1006.51 700.85 1003.77 C 735.57 969.54 770.34 935.37 805.06 901.15 C 806.27 899.95 807.70 898.94 809.40 898.63 M 723.28 1014.59 C 752.28 1043.96 781.22 1073.40 810.17 1102.82 C 839.61 1073.88 869.03 1044.92 898.43 1015.93 C 869.47 986.52 840.52 957.10 811.56 927.70 C 782.13 956.66 752.73 985.65 723.28 1014.59 Z" />
</g>
</svg>
