<?xml version="1.0" encoding="UTF-8" ?>
<!DOCTYPE svg PUBLIC "-//W3C//DTD SVG 1.1//EN" "http://www.w3.org/Graphics/SVG/1.1/DTD/svg11.dtd">
<svg width="1136pt" height="1186pt" viewBox="0 0 1136 1186" version="1.1" xmlns="http://www.w3.org/2000/svg">
<g id="#fefefefe">
<path d=" M 575.53 142.00 C 583.58 140.44 591.53 142.97 599.28 144.85 C 606.30 147.61 612.66 151.82 618.69 156.31 C 624.92 161.10 629.30 167.70 634.62 173.39 C 640.80 179.89 646.21 187.06 652.22 193.72 C 658.11 201.50 665.14 208.36 670.83 216.30 C 677.37 224.98 685.61 232.24 691.93 241.11 C 696.24 247.33 701.83 252.47 706.71 258.21 C 715.43 268.83 723.82 279.73 733.01 289.97 C 738.03 295.97 743.47 301.60 748.09 307.93 C 760.16 321.87 771.70 336.27 784.00 350.01 C 785.44 351.65 786.27 353.69 787.05 355.71 C 790.08 364.19 794.93 372.11 796.29 381.13 C 796.74 385.97 796.61 390.86 796.09 395.69 C 794.21 403.85 789.74 411.20 784.79 417.85 C 773.88 428.51 759.29 435.44 744.03 436.61 C 735.97 436.59 727.79 435.07 720.46 431.67 C 717.15 430.23 714.80 427.29 711.59 425.71 C 708.11 425.42 704.05 424.77 701.19 427.27 C 690.56 435.65 679.73 443.78 669.05 452.10 C 663.77 457.32 657.08 460.68 651.45 465.47 C 645.65 470.28 639.17 474.32 633.78 479.61 C 633.48 483.20 632.36 487.82 635.44 490.53 C 638.02 493.29 640.88 495.77 643.46 498.54 C 646.90 502.14 649.33 506.59 653.00 510.00 C 656.90 513.76 660.75 517.60 664.11 521.87 C 673.99 532.35 683.67 543.03 693.02 553.99 C 709.95 571.11 724.65 590.28 741.39 607.59 C 746.52 614.40 753.56 619.49 758.48 626.47 C 761.78 631.14 766.23 634.80 769.84 639.21 C 774.77 645.54 781.38 650.37 786.00 656.98 C 793.54 665.75 801.23 674.39 809.48 682.50 C 815.00 689.61 821.23 696.10 827.08 702.93 C 831.06 707.25 835.59 711.06 839.23 715.71 C 842.73 720.16 847.13 723.81 850.76 728.16 C 854.89 733.37 859.91 737.80 863.91 743.13 C 868.59 749.39 875.06 754.06 879.49 760.52 C 882.85 765.43 887.66 769.06 891.31 773.73 C 894.36 777.63 898.04 780.97 901.54 784.46 C 905.28 788.11 907.81 792.79 911.57 796.43 C 917.00 801.68 921.49 807.81 926.96 813.03 C 934.13 821.51 941.86 829.49 949.06 837.95 C 952.86 842.10 957.26 845.72 960.71 850.20 C 964.91 855.64 970.58 859.80 974.38 865.58 C 980.99 875.25 987.72 884.83 994.25 894.54 C 998.74 903.11 1002.33 912.29 1003.81 921.90 C 1005.34 930.08 1004.19 938.49 1002.33 946.51 C 998.70 957.63 992.31 967.79 984.36 976.33 C 970.45 988.74 952.63 996.88 934.02 998.56 C 923.17 999.12 912.28 997.05 902.25 992.94 C 897.84 991.05 893.22 989.47 889.32 986.62 C 880.62 979.73 872.97 971.65 864.56 964.43 C 858.04 957.85 853.46 949.67 847.10 942.95 C 834.74 927.59 823.09 911.67 810.88 896.19 C 807.94 892.39 805.50 888.24 802.31 884.64 C 798.17 880.04 795.23 874.53 791.08 869.95 C 786.15 864.41 782.38 858.00 777.65 852.32 C 773.22 846.44 768.05 841.14 764.01 834.98 C 760.96 830.42 757.12 826.46 754.03 821.93 C 750.63 817.08 747.03 812.37 743.13 807.91 C 738.56 802.70 735.14 796.61 730.62 791.37 C 726.17 786.13 722.44 780.31 717.68 775.34 C 710.38 766.21 703.30 756.89 696.67 747.25 C 682.52 729.71 669.57 711.22 654.99 694.03 C 651.45 688.92 647.94 683.79 643.98 679.00 C 640.89 675.05 637.36 671.45 634.68 667.20 C 631.50 662.22 627.48 657.89 623.74 653.35 C 612.06 638.65 600.90 623.54 589.32 608.77 C 584.28 602.72 580.05 596.04 574.92 590.06 C 569.64 583.95 565.59 576.89 560.18 570.89 C 555.03 565.06 551.79 557.46 545.37 552.83 C 542.45 552.58 539.12 552.00 536.49 553.57 C 529.49 558.81 522.78 564.42 516.06 570.01 C 504.05 577.86 493.69 587.94 481.69 595.82 C 476.96 598.94 473.02 603.07 468.42 606.36 C 465.03 609.07 461.06 611.31 458.70 615.06 C 457.18 621.78 460.54 628.48 458.98 635.20 C 458.10 645.91 452.18 655.43 445.39 663.44 C 434.82 673.55 420.49 679.18 406.02 680.37 C 393.22 679.56 380.41 675.61 370.03 667.94 C 361.90 661.45 355.57 653.10 348.81 645.27 C 340.52 634.57 330.93 624.95 322.91 614.05 C 316.77 607.79 312.13 600.27 306.03 593.98 C 302.22 589.12 297.63 584.94 294.02 579.94 C 287.41 571.32 279.95 563.42 272.82 555.25 C 268.97 551.03 266.11 546.00 261.99 542.02 C 257.61 537.37 253.63 532.38 249.43 527.57 C 245.97 523.66 243.24 519.16 239.51 515.48 C 231.93 507.05 224.76 498.26 217.41 489.63 C 211.09 481.68 203.83 474.45 198.26 465.92 C 191.96 455.14 187.59 442.37 190.05 429.79 C 191.35 417.55 198.67 406.71 207.55 398.54 C 224.55 384.35 250.78 380.30 270.12 392.10 C 273.96 394.17 276.16 398.38 280.19 400.14 C 284.49 401.20 289.59 401.17 292.91 397.82 C 300.81 390.64 309.76 384.79 318.00 378.04 C 322.66 374.25 327.81 371.14 332.60 367.54 C 340.07 361.65 347.59 355.80 355.19 350.07 C 360.85 346.16 365.67 341.21 371.34 337.32 C 384.74 327.00 397.87 316.31 411.80 306.72 C 427.79 294.36 443.79 282.03 459.89 269.82 C 468.02 262.20 477.44 256.17 486.10 249.18 C 497.13 240.49 508.51 232.28 519.54 223.61 C 522.84 221.14 526.33 218.62 528.47 215.02 C 529.92 207.84 526.01 201.12 526.46 193.98 C 526.89 184.72 528.66 175.01 534.46 167.49 C 537.63 163.36 540.71 159.09 544.53 155.52 C 553.15 147.91 564.38 144.05 575.53 142.00 M 574.55 168.96 C 568.94 170.41 564.10 174.00 560.10 178.09 C 554.52 184.60 553.54 193.90 555.19 202.04 C 557.05 210.54 564.12 216.24 569.09 222.94 C 579.26 235.03 589.96 246.68 600.05 258.84 C 611.15 273.62 623.71 287.20 635.83 301.13 C 654.03 323.25 672.91 344.79 691.09 366.93 C 696.30 372.70 701.33 378.64 706.40 384.53 C 708.96 387.96 711.68 391.27 714.75 394.26 C 718.34 397.73 720.98 402.16 725.11 405.07 C 728.97 407.53 733.42 409.09 737.98 409.60 C 744.38 410.09 751.46 409.99 756.75 405.81 C 761.03 402.28 765.74 398.46 767.14 392.80 C 769.33 385.07 769.67 375.92 764.91 369.04 C 758.18 359.25 749.45 351.08 742.43 341.52 C 732.08 329.24 722.02 316.72 711.11 304.94 C 704.69 296.40 697.67 288.34 690.65 280.30 C 684.83 273.15 678.83 266.15 672.88 259.12 C 667.35 253.24 661.91 247.24 657.17 240.69 C 649.33 231.57 641.07 222.76 633.88 213.10 C 627.95 206.97 623.28 199.77 617.45 193.54 C 611.77 186.60 605.45 180.23 599.03 173.98 C 592.30 168.19 582.93 167.82 574.55 168.96 M 540.56 241.76 C 536.83 243.79 534.19 247.24 530.81 249.73 C 515.30 261.55 499.77 273.34 484.37 285.31 C 480.41 288.38 476.06 290.94 472.36 294.35 C 466.48 299.60 459.54 303.45 453.47 308.46 C 438.54 319.89 423.57 331.28 408.67 342.75 C 397.84 352.45 385.56 360.27 374.10 369.17 C 359.34 380.75 344.20 391.84 329.61 403.63 C 324.18 408.67 317.37 411.92 311.99 416.99 C 308.42 419.60 309.27 424.58 309.88 428.35 C 320.07 441.66 332.19 453.38 342.13 466.89 C 345.05 470.03 348.03 473.12 350.41 476.71 C 362.79 492.49 376.80 506.90 389.19 522.67 C 397.58 534.17 407.50 544.42 416.61 555.34 C 420.57 559.46 423.44 564.49 427.49 568.53 C 432.41 573.90 436.02 580.47 441.54 585.29 C 444.53 585.86 447.66 585.77 450.68 585.37 C 453.32 584.37 455.27 582.14 457.52 580.50 C 478.73 564.07 500.24 548.02 521.14 531.22 C 532.49 522.20 544.73 514.33 555.65 504.77 C 568.03 495.41 579.99 485.47 592.89 476.82 C 603.28 468.98 613.20 460.53 623.62 452.74 C 630.53 448.79 635.73 442.58 642.52 438.47 C 652.05 432.21 660.38 424.39 669.39 417.44 C 673.39 413.98 678.66 411.67 681.42 407.01 C 681.62 403.97 682.28 400.42 680.16 397.89 C 675.52 391.91 670.75 386.02 665.70 380.36 C 659.72 373.61 654.83 365.96 648.50 359.50 C 644.05 355.17 641.07 349.63 636.78 345.16 C 632.55 340.74 628.88 335.83 624.70 331.37 C 620.03 326.29 616.51 320.25 611.53 315.45 C 606.71 310.55 602.97 304.74 598.49 299.56 C 587.65 288.00 578.24 275.21 567.76 263.34 C 562.14 256.89 557.45 249.68 551.51 243.49 C 548.90 240.26 544.14 241.41 540.56 241.76 M 238.51 411.98 C 233.40 412.80 228.83 415.58 225.39 419.39 C 220.93 423.32 217.78 428.93 217.60 434.95 C 217.55 439.61 217.18 444.51 219.15 448.88 C 220.86 453.76 225.22 456.86 228.01 461.05 C 232.87 467.75 238.84 473.52 244.03 479.95 C 254.96 494.60 268.43 507.14 279.27 521.87 C 281.13 524.24 283.41 526.25 285.24 528.65 C 292.01 537.78 299.76 546.12 307.21 554.68 C 312.14 561.40 317.75 567.56 323.16 573.88 C 329.75 580.70 335.01 588.65 341.40 595.65 C 356.02 612.05 370.33 628.74 384.56 645.49 C 391.73 653.09 403.07 653.75 412.77 652.11 C 426.15 648.59 434.17 633.46 431.02 620.26 C 429.89 614.80 426.21 610.46 423.42 605.79 C 419.61 599.68 414.65 594.44 409.59 589.37 C 398.90 576.74 387.53 564.70 377.28 551.71 C 371.44 545.50 366.88 538.22 360.99 532.05 C 355.80 525.90 350.27 520.06 345.09 513.91 C 320.59 484.77 295.98 455.72 271.37 426.67 C 265.90 420.55 259.82 414.08 251.62 411.88 C 247.27 411.49 242.84 411.46 238.51 411.98 M 602.21 503.88 C 594.06 509.37 586.82 516.06 578.75 521.67 C 575.24 524.59 570.93 526.93 568.63 531.01 C 568.29 534.01 567.88 537.49 569.93 540.01 C 577.39 549.89 585.39 559.37 592.48 569.53 C 596.66 575.95 602.20 581.33 606.40 587.73 C 612.23 596.45 619.92 603.73 625.52 612.62 C 639.10 630.33 652.76 647.99 666.37 665.68 C 670.97 671.71 675.38 677.91 680.47 683.54 C 683.53 687.21 685.87 691.42 688.94 695.09 C 693.11 700.54 697.69 705.65 701.92 711.06 C 706.43 716.88 710.67 722.91 715.41 728.56 C 719.52 733.56 722.87 739.13 726.94 744.18 C 734.49 754.50 743.31 763.82 750.71 774.27 C 765.23 793.07 779.65 811.94 794.21 830.71 C 799.27 836.75 803.07 843.75 808.48 849.50 C 812.26 853.54 814.89 858.45 818.31 862.76 C 822.42 868.00 826.65 873.16 830.56 878.57 C 835.63 885.76 841.93 891.99 846.67 899.43 C 858.04 914.31 869.45 929.16 881.32 943.65 C 886.35 949.60 890.28 956.74 896.93 961.12 C 901.88 964.54 906.56 968.70 912.56 970.18 C 922.72 972.74 933.57 972.79 943.71 970.03 C 960.73 965.80 974.10 950.29 976.36 932.99 C 976.41 925.40 977.25 917.51 974.45 910.27 C 971.50 901.27 965.03 894.09 958.49 887.50 C 954.60 883.70 951.51 879.18 947.54 875.46 C 942.89 871.04 939.79 865.29 935.01 861.02 C 928.86 855.46 924.11 848.60 918.07 842.93 C 911.85 835.54 904.94 828.75 898.82 821.26 C 894.94 816.46 890.02 812.58 886.51 807.47 C 883.38 802.99 879.24 799.40 875.48 795.50 C 864.99 783.67 853.92 772.37 843.79 760.22 C 840.12 755.92 835.83 752.19 832.30 747.78 C 828.47 742.94 823.61 739.01 820.04 733.95 C 815.71 727.73 809.41 723.29 804.83 717.30 C 801.11 712.35 795.97 708.67 792.50 703.52 C 789.08 698.36 784.13 694.54 780.01 689.99 C 771.42 679.32 762.20 669.18 752.52 659.49 C 748.62 654.43 744.02 650.01 739.62 645.41 C 734.11 638.62 727.76 632.57 722.32 625.73 C 718.62 621.12 713.99 617.39 710.32 612.77 C 706.66 608.09 701.97 604.31 698.54 599.45 C 695.55 595.17 691.63 591.70 687.97 588.03 C 684.59 584.71 681.99 580.70 678.55 577.44 C 675.45 574.49 672.59 571.28 670.11 567.79 C 666.28 562.41 660.74 558.59 656.78 553.32 C 653.00 548.15 647.81 544.25 643.77 539.30 C 639.21 533.55 633.76 528.59 629.31 522.75 C 625.75 518.00 621.00 514.36 617.17 509.85 C 615.20 507.67 613.52 505.13 611.01 503.53 C 608.11 503.28 604.99 502.89 602.21 503.88 Z" />
<path d=" M 187.45 933.86 C 190.93 933.29 194.48 933.48 198.00 933.44 C 324.34 933.48 450.67 933.39 577.01 933.48 C 583.79 933.09 590.14 935.75 596.44 937.87 C 601.03 939.43 605.19 941.99 609.08 944.86 C 619.89 951.52 627.16 963.05 630.48 975.13 C 633.76 986.14 632.31 997.69 632.62 1009.00 C 632.41 1016.84 633.03 1024.73 632.36 1032.55 C 630.56 1036.21 627.78 1041.17 623.04 1040.77 C 468.69 1040.74 314.35 1040.77 160.00 1040.75 C 155.02 1040.63 150.01 1041.09 145.06 1040.53 C 141.84 1038.89 139.29 1036.03 137.47 1032.96 C 136.90 1025.33 137.43 1017.65 137.25 1010.00 C 137.36 999.71 137.00 989.41 137.58 979.14 C 139.53 969.85 144.02 961.19 149.69 953.63 C 159.16 942.54 173.30 936.32 187.45 933.86 M 186.30 961.11 C 179.88 962.33 174.62 966.67 170.49 971.54 C 166.77 975.74 166.03 981.59 165.46 986.96 C 165.58 994.30 165.20 1001.66 165.62 1008.99 C 166.81 1011.80 169.59 1014.79 172.94 1014.54 C 313.98 1014.54 455.02 1014.51 596.06 1014.55 C 599.67 1015.07 603.15 1011.66 602.77 1008.05 C 602.73 999.02 602.80 989.99 602.67 980.96 C 602.64 974.50 597.43 969.98 593.07 965.95 C 588.80 961.91 582.73 960.59 577.02 960.49 C 451.68 960.53 326.34 960.51 201.00 960.50 C 196.11 960.59 191.13 960.08 186.30 961.11 Z" />
</g>
</svg>
