<?xml version="1.0" encoding="UTF-8" ?>
<!DOCTYPE svg PUBLIC "-//W3C//DTD SVG 1.1//EN" "http://www.w3.org/Graphics/SVG/1.1/DTD/svg11.dtd">
<svg width="1136pt" height="1186pt" viewBox="0 0 1136 1186" version="1.1" xmlns="http://www.w3.org/2000/svg">
<g id="#ffffffff">
<path d=" M 487.19 129.19 C 566.74 127.02 646.84 146.04 716.70 184.20 C 745.21 199.79 772.11 218.38 796.65 239.68 C 807.28 191.36 847.85 151.29 896.08 140.58 C 916.62 135.40 938.42 135.49 958.93 140.75 C 1007.03 151.66 1047.05 191.76 1057.87 239.87 C 1065.34 268.45 1061.88 299.28 1050.20 326.24 C 1036.82 356.37 1012.02 381.18 981.91 394.59 C 961.89 403.21 939.83 407.47 918.04 405.94 C 923.85 419.65 929.00 433.64 933.41 447.87 C 948.97 448.78 964.41 452.27 978.87 458.10 C 1003.25 468.30 1024.59 485.78 1039.17 507.86 C 1051.80 526.26 1058.88 548.07 1061.24 570.17 C 1063.34 590.91 1059.84 611.97 1052.60 631.43 C 1039.86 664.46 1013.45 691.83 981.03 705.98 C 966.20 712.30 950.25 716.03 934.17 717.07 C 929.58 732.11 924.20 746.90 918.07 761.38 C 939.02 759.88 960.19 763.84 979.59 771.73 C 1011.91 785.36 1038.42 812.11 1051.69 844.60 C 1059.82 865.23 1063.60 887.81 1061.06 909.93 C 1058.72 928.93 1053.10 947.70 1043.18 964.16 C 1027.33 991.04 1001.96 1012.25 972.51 1022.65 C 953.45 1029.15 933.02 1032.18 912.94 1029.78 C 893.09 1027.35 873.50 1021.24 856.55 1010.49 C 826.83 992.17 804.41 961.97 796.55 927.86 C 741.76 975.22 675.57 1009.44 605.00 1025.92 C 512.74 1048.23 413.61 1040.27 325.90 1004.06 C 271.52 981.65 221.69 948.39 179.84 907.09 C 128.16 855.97 88.71 792.43 66.61 723.14 C 41.36 644.61 37.81 559.20 57.02 478.95 C 71.03 418.68 97.83 361.47 134.92 311.96 C 178.47 253.37 236.45 205.65 302.18 173.93 C 359.77 146.18 423.31 130.92 487.19 129.19 M 395.49 169.69 C 326.64 187.05 262.22 221.83 210.14 270.12 C 162.83 313.68 125.58 368.05 102.11 427.93 C 68.75 512.12 63.94 607.05 87.22 694.45 C 96.66 729.39 110.56 763.11 128.47 794.56 C 160.75 851.45 206.44 900.61 260.57 937.29 C 311.20 971.44 369.15 994.90 429.47 1004.69 C 485.79 1013.85 543.94 1011.88 599.46 998.67 C 671.46 981.25 738.80 944.79 792.50 893.73 C 792.81 877.40 796.30 861.18 802.10 845.93 C 816.41 809.71 847.22 780.38 884.24 768.17 C 892.47 751.08 899.52 733.43 905.43 715.40 C 894.68 713.34 883.99 710.63 873.93 706.25 C 848.35 695.20 826.39 676.05 811.98 652.19 C 801.95 636.07 796.16 617.62 793.55 598.91 C 790.54 576.68 794.05 553.89 801.95 533.00 C 811.93 507.73 829.74 485.56 852.41 470.55 C 867.98 459.75 886.09 453.06 904.68 449.74 C 899.22 433.28 892.72 417.17 885.35 401.48 C 884.77 400.49 884.53 399.05 883.22 398.82 C 847.93 386.81 818.41 359.29 803.63 325.10 C 796.80 308.83 792.91 291.26 792.48 273.61 C 753.38 236.54 707.16 207.06 657.12 187.12 C 574.64 153.94 481.67 148.34 395.49 169.69 M 912.50 164.77 C 876.49 169.41 843.91 193.96 829.15 227.10 C 819.57 247.22 817.56 270.36 821.43 292.15 C 827.70 324.21 849.31 352.91 878.57 367.53 C 908.35 383.07 945.72 383.13 975.54 367.63 C 1004.94 353.04 1026.67 324.22 1032.92 292.04 C 1036.24 272.77 1035.26 252.41 1028.09 234.08 C 1017.82 206.26 995.59 183.14 968.12 171.92 C 950.72 164.32 931.23 162.46 912.50 164.77 M 912.50 475.77 C 899.67 477.23 887.36 481.76 876.01 487.80 C 843.88 504.98 821.44 539.46 819.77 575.98 C 818.85 592.34 821.23 609.01 827.90 624.05 C 839.34 651.64 862.80 673.86 890.91 683.92 C 906.76 689.96 924.15 691.21 940.91 689.33 C 954.05 687.96 966.68 683.39 978.29 677.20 C 1010.43 660.04 1032.87 625.56 1034.55 589.05 C 1035.37 573.63 1033.44 557.90 1027.51 543.57 C 1016.94 516.20 994.73 493.61 967.50 482.67 C 950.27 475.26 931.00 473.50 912.50 475.77 M 915.53 788.76 C 902.73 789.84 890.34 793.88 878.91 799.62 C 849.79 814.04 828.21 842.37 821.62 874.14 C 817.47 896.33 819.45 919.99 829.28 940.48 C 843.31 971.78 873.18 995.25 906.84 1001.69 C 928.15 1005.41 950.77 1003.55 970.52 994.36 C 1002.77 980.38 1026.99 949.63 1033.15 915.05 C 1036.21 896.00 1035.07 875.95 1027.90 857.91 C 1022.43 843.67 1014.12 830.48 1003.21 819.78 C 989.50 805.76 971.72 796.05 952.83 791.08 C 940.64 788.22 927.97 787.54 915.53 788.76 Z" />
<path d=" M 869.38 225.61 C 906.92 225.34 944.48 225.59 982.03 225.48 C 986.67 224.83 991.66 228.13 991.93 233.00 C 992.06 239.05 992.03 245.10 991.95 251.15 C 991.79 255.64 987.42 259.23 983.00 258.84 C 945.65 258.83 908.31 258.85 870.96 258.83 C 867.16 259.03 863.49 256.30 862.60 252.61 C 862.01 248.42 862.47 244.17 862.33 239.96 C 862.41 237.13 862.04 234.24 862.67 231.46 C 863.54 228.44 866.25 226.02 869.38 225.61 Z" />
<path d=" M 869.22 287.30 C 889.16 286.98 909.12 287.26 929.06 287.16 C 933.54 286.73 938.01 290.36 938.12 294.94 C 938.26 299.61 938.10 304.28 938.18 308.94 C 938.16 311.56 938.42 314.45 936.83 316.71 C 935.18 319.32 932.05 320.71 929.02 320.51 C 909.67 320.49 890.32 320.52 870.97 320.50 C 866.73 320.75 862.67 317.26 862.40 313.01 C 862.23 307.32 862.36 301.63 862.34 295.94 C 862.05 291.86 865.16 287.89 869.22 287.30 Z" />
<path d=" M 385.71 371.72 C 388.84 369.13 393.08 368.57 397.01 368.69 C 458.32 368.73 519.63 368.70 580.93 368.71 C 594.67 368.81 608.63 367.93 622.09 371.30 C 638.73 374.74 654.18 382.96 666.87 394.19 C 688.13 413.17 701.49 439.68 708.10 467.12 C 717.53 504.84 715.64 545.43 702.11 581.92 C 695.89 598.37 686.73 613.82 674.63 626.62 C 663.01 638.74 648.55 648.30 632.49 653.35 C 621.67 656.71 610.37 658.61 599.03 658.55 C 535.47 658.55 471.92 658.56 408.37 658.55 C 408.36 689.77 408.35 720.99 408.37 752.21 C 476.62 752.20 544.86 752.21 613.10 752.21 C 619.75 751.93 626.33 756.74 627.39 763.44 C 629.43 771.64 622.47 780.29 614.03 780.21 C 545.48 780.31 476.92 780.22 408.36 780.25 C 408.37 807.16 408.35 834.08 408.37 860.99 C 408.48 865.53 406.76 870.26 403.05 873.06 C 397.45 877.65 388.32 876.84 383.72 871.21 C 381.25 868.46 380.31 864.67 380.31 861.05 C 380.34 834.12 380.30 807.20 380.33 780.27 C 363.90 780.23 347.47 780.25 331.04 780.26 C 326.50 780.36 321.76 778.71 318.93 775.02 C 314.77 770.00 314.87 762.06 319.16 757.14 C 322.00 753.64 326.61 752.10 331.02 752.20 C 347.45 752.21 363.88 752.21 380.32 752.21 C 380.32 720.99 380.32 689.77 380.32 658.55 C 363.87 658.55 347.42 658.54 330.96 658.56 C 326.60 658.66 322.06 657.14 319.23 653.69 C 314.74 648.64 314.77 640.31 319.30 635.30 C 322.14 631.91 326.64 630.41 330.97 630.51 C 347.42 630.53 363.87 630.52 380.32 630.51 C 380.31 548.35 380.34 466.18 380.31 384.01 C 380.18 379.39 381.91 374.54 385.71 371.72 M 408.37 630.52 C 471.91 630.52 535.45 630.52 598.99 630.52 C 609.65 630.55 620.40 628.78 630.15 624.35 C 645.71 617.70 658.23 605.21 666.82 590.80 C 676.21 574.97 681.94 557.09 684.33 538.88 C 687.21 517.24 686.24 495.04 681.10 473.81 C 676.21 455.01 668.19 436.56 655.11 421.98 C 641.22 405.97 620.31 396.19 599.02 396.75 C 535.47 396.75 471.92 396.76 408.37 396.75 C 408.36 474.67 408.37 552.59 408.37 630.52 Z" />
<path d=" M 897.39 505.50 C 899.15 504.69 901.13 504.85 903.03 504.82 C 920.04 504.88 937.05 504.77 954.05 504.87 C 958.23 504.90 961.95 508.64 961.97 512.83 C 962.03 518.58 962.02 524.34 961.97 530.10 C 962.01 534.70 957.61 538.57 953.06 538.17 C 935.69 538.16 918.32 538.18 900.96 538.16 C 896.45 538.44 892.26 534.49 892.35 529.97 C 892.32 524.26 892.29 518.55 892.37 512.85 C 892.38 509.68 894.49 506.71 897.39 505.50 Z" />
<path d=" M 867.45 566.64 C 869.51 565.76 871.80 566.04 873.98 565.99 C 910.32 566.02 946.65 565.99 982.98 566.00 C 987.52 565.57 991.95 569.37 991.97 573.97 C 992.04 579.67 992.01 585.38 991.98 591.08 C 992.11 595.76 987.66 599.77 983.03 599.34 C 945.70 599.33 908.37 599.34 871.05 599.33 C 866.48 599.66 862.21 595.63 862.35 591.05 C 862.33 585.32 862.28 579.59 862.38 573.87 C 862.44 570.73 864.57 567.82 867.45 566.64 Z" />
<path d=" M 899.22 629.30 C 917.18 628.98 935.16 629.25 953.13 629.17 C 957.51 628.82 961.80 632.42 961.95 636.87 C 962.06 642.62 961.99 648.36 961.98 654.11 C 962.15 658.45 958.35 662.47 953.99 662.47 C 936.32 662.54 918.65 662.49 900.99 662.49 C 896.40 662.80 892.17 658.72 892.35 654.13 C 892.33 648.38 892.27 642.64 892.38 636.90 C 892.52 633.18 895.56 629.85 899.22 629.30 Z" />
<path d=" M 909.37 818.48 C 915.82 817.41 922.46 818.27 928.99 818.00 C 941.02 818.01 953.05 817.97 965.08 818.01 C 969.45 817.84 973.49 821.65 973.47 826.05 C 973.53 831.67 973.51 837.30 973.49 842.93 C 973.68 847.49 969.51 851.57 964.96 851.32 C 947.30 851.33 929.64 851.36 911.99 851.31 C 907.58 851.38 903.69 847.36 903.85 842.97 C 903.82 837.29 903.78 831.62 903.87 825.94 C 903.91 822.62 906.26 819.55 909.37 818.48 Z" />
<path d=" M 861.21 879.28 C 879.15 879.01 897.12 879.24 915.08 879.17 C 918.20 879.01 921.30 880.70 922.80 883.46 C 924.13 885.72 923.79 888.46 923.85 890.99 C 923.76 895.65 923.95 900.33 923.77 905.00 C 923.50 909.34 919.30 912.83 914.99 912.50 C 897.65 912.50 880.31 912.50 862.96 912.50 C 858.29 912.87 853.95 908.72 854.18 904.04 C 854.17 898.33 854.10 892.62 854.21 886.91 C 854.34 883.14 857.47 879.76 861.21 879.28 Z" />
<path d=" M 911.28 937.40 C 929.19 937.25 947.10 937.36 965.01 937.34 C 969.28 937.15 973.31 940.75 973.45 945.06 C 973.54 951.03 973.55 957.01 973.45 962.98 C 973.28 967.26 969.26 970.84 965.01 970.66 C 947.36 970.67 929.71 970.68 912.06 970.65 C 908.79 970.68 905.70 968.55 904.47 965.56 C 903.11 958.83 904.09 951.78 903.89 944.93 C 904.09 941.07 907.43 937.68 911.28 937.40 Z" />
</g>
</svg>
