<?xml version="1.0" encoding="UTF-8" ?>
<!DOCTYPE svg PUBLIC "-//W3C//DTD SVG 1.1//EN" "http://www.w3.org/Graphics/SVG/1.1/DTD/svg11.dtd">
<svg width="1136pt" height="1253pt" viewBox="0 0 1136 1253" version="1.1" xmlns="http://www.w3.org/2000/svg">
<g id="#ffffffff">
<path d=" M 512.06 208.96 C 559.16 203.84 606.61 202.28 653.96 203.51 C 702.25 204.89 750.52 209.32 798.06 218.11 C 832.93 224.67 867.57 233.33 900.53 246.65 C 918.48 254.00 936.02 262.77 951.50 274.57 C 962.81 283.26 973.10 293.91 978.95 307.09 C 981.40 313.07 983.26 319.42 983.35 325.93 C 983.34 532.96 983.35 739.99 983.34 947.01 C 982.72 962.55 974.32 976.70 963.54 987.48 C 949.49 1001.59 932.00 1011.68 914.09 1020.08 C 883.75 1034.05 851.44 1043.21 818.89 1050.34 C 770.56 1060.75 721.26 1066.23 671.91 1068.48 C 625.63 1070.48 579.20 1069.68 533.04 1065.72 C 486.66 1061.67 440.42 1054.57 395.46 1042.30 C 371.05 1035.54 346.94 1027.27 324.32 1015.79 C 309.77 1008.30 295.70 999.45 284.04 987.86 C 276.49 980.22 269.96 971.26 266.57 960.97 C 205.54 946.39 150.30 909.38 113.28 858.77 C 92.03 830.01 76.60 796.96 68.40 762.14 C 57.90 718.90 58.49 673.05 69.94 630.05 C 86.04 568.02 125.56 512.57 178.53 476.59 C 204.40 458.83 233.44 445.71 263.88 438.08 C 263.88 401.06 263.90 364.04 263.87 327.03 C 263.91 317.48 267.12 308.14 271.98 300.00 C 278.77 288.77 288.57 279.71 299.11 272.06 C 322.04 255.72 348.45 245.08 375.08 236.40 C 419.56 222.26 465.73 214.07 512.06 208.96 M 612.30 226.34 C 585.19 226.63 558.09 227.92 531.09 230.36 C 486.25 234.48 441.53 241.39 398.13 253.56 C 371.90 261.07 345.88 270.29 322.31 284.24 C 310.43 291.51 298.71 300.06 291.15 312.01 C 286.42 319.36 284.59 328.86 287.88 337.16 C 292.97 350.28 304.29 359.63 315.57 367.39 C 339.20 382.95 366.03 392.79 392.99 400.87 C 434.75 413.07 477.85 420.16 521.08 424.60 C 568.53 429.36 616.32 430.63 663.97 428.87 C 709.61 427.11 755.20 422.53 800.07 413.89 C 831.53 407.75 862.74 399.69 892.49 387.62 C 909.74 380.46 926.77 372.11 941.29 360.22 C 949.51 353.33 957.29 345.00 960.23 334.43 C 962.44 326.25 959.93 317.58 955.27 310.74 C 947.80 299.63 936.77 291.52 925.50 284.59 C 907.42 273.71 887.71 265.84 867.73 259.23 C 830.80 247.20 792.53 239.73 754.08 234.57 C 707.11 228.36 659.67 225.88 612.30 226.34 M 286.13 372.97 C 286.32 393.11 286.14 413.25 286.22 433.39 C 352.72 422.16 423.31 437.07 479.34 474.68 C 533.52 510.47 574.06 566.48 590.57 629.33 C 634.72 630.67 678.98 629.39 722.95 625.13 C 758.80 621.61 794.50 616.16 829.53 607.70 C 856.54 601.07 883.31 592.80 908.44 580.74 C 922.75 573.74 936.81 565.57 948.12 554.18 C 954.92 547.12 961.09 538.19 961.02 528.00 C 961.05 476.40 960.99 424.79 961.05 373.19 C 951.85 381.93 941.22 389.03 930.16 395.20 C 904.64 409.27 876.87 418.75 848.83 426.38 C 808.03 437.29 766.19 443.98 724.18 448.08 C 678.63 452.47 632.79 453.72 587.06 452.21 C 538.43 450.54 489.83 445.76 442.05 436.44 C 403.94 428.83 365.99 418.80 330.71 402.22 C 314.72 394.45 298.92 385.48 286.13 372.97 M 312.62 451.90 C 253.86 455.70 197.03 481.86 155.47 523.49 C 130.43 548.31 110.86 578.56 98.37 611.53 C 83.64 649.96 79.28 692.12 84.69 732.85 C 89.66 770.64 103.92 807.06 125.30 838.57 C 143.64 865.43 167.25 888.70 194.45 906.56 C 225.23 926.70 260.49 940.14 297.01 944.88 C 331.89 949.45 367.79 946.93 401.50 936.77 C 451.76 921.77 496.83 890.28 528.36 848.37 C 551.37 817.86 567.32 781.98 574.19 744.37 C 581.88 701.64 578.71 656.82 563.94 615.92 C 552.98 585.33 536.03 556.88 514.15 532.84 C 491.05 507.30 462.62 486.61 431.14 472.62 C 394.18 455.93 353.03 449.04 312.62 451.90 M 916.43 602.48 C 891.12 614.44 864.28 622.85 837.16 629.60 C 801.29 638.44 764.71 644.19 727.97 647.92 C 684.06 652.33 639.86 653.78 595.74 652.68 C 606.85 715.28 594.85 781.70 562.31 836.34 C 635.46 840.40 709.15 837.63 781.49 825.71 C 821.67 818.86 861.72 809.41 899.24 793.23 C 916.89 785.34 934.50 776.14 948.24 762.28 C 954.84 755.45 960.77 746.86 961.00 737.04 C 961.12 682.44 960.90 627.83 961.11 573.24 C 948.23 585.69 932.47 594.72 916.43 602.48 M 922.12 807.94 C 903.51 817.32 883.87 824.51 863.94 830.54 C 821.64 843.18 777.97 850.77 734.12 855.54 C 672.20 862.10 609.68 862.97 547.57 858.60 C 528.92 884.01 505.79 906.09 479.55 923.54 C 425.98 959.56 359.11 974.80 295.19 966.35 C 301.24 973.52 308.59 979.50 316.41 984.67 C 339.24 999.52 365.02 1009.10 390.96 1016.99 C 434.91 1030.02 480.37 1037.35 525.94 1041.80 C 574.14 1046.38 622.66 1047.42 671.02 1045.31 C 716.60 1043.23 762.11 1038.34 806.84 1029.27 C 840.61 1022.27 874.19 1013.13 905.57 998.62 C 921.02 991.26 936.29 982.70 948.39 970.41 C 955.19 963.31 961.25 954.28 961.03 944.06 C 961.05 889.92 960.98 835.79 961.06 781.65 C 949.63 792.47 936.09 800.81 922.12 807.94 Z" />
<path d=" M 875.59 460.80 C 885.64 458.04 896.88 460.54 904.96 467.09 C 917.01 476.52 921.55 493.96 916.12 508.19 C 912.41 518.52 903.68 527.02 893.03 529.93 C 883.33 532.77 872.42 530.72 864.31 524.72 C 856.30 518.97 851.12 509.68 849.90 499.94 C 847.49 482.98 858.73 464.93 875.59 460.80 M 881.18 483.21 C 875.58 484.63 871.62 490.41 872.06 496.12 C 872.22 502.36 877.69 508.19 884.07 508.01 C 890.72 508.14 896.35 501.75 895.94 495.22 C 896.22 487.77 888.53 481.10 881.18 483.21 Z" />
<path d=" M 322.41 538.32 C 325.24 535.21 330.10 534.27 333.91 536.03 C 336.38 537.10 338.03 539.32 339.86 541.20 C 374.92 578.50 410.00 615.77 445.06 653.06 C 448.86 656.75 448.94 663.41 445.23 667.18 C 441.53 671.35 434.37 671.47 430.57 667.37 C 400.34 635.31 370.19 603.16 339.97 571.08 C 339.94 665.07 339.99 759.07 339.94 853.06 C 340.13 859.14 333.95 864.29 327.99 863.03 C 323.27 862.28 319.47 857.83 319.59 853.03 C 319.55 759.11 319.59 665.18 319.57 571.26 C 289.78 603.25 260.03 635.27 230.22 667.24 C 226.47 671.42 219.27 671.41 215.51 667.26 C 211.65 663.43 211.81 656.58 215.76 652.87 C 251.32 614.70 286.83 576.48 322.41 538.32 Z" />
<path d=" M 876.53 661.70 C 891.13 657.99 907.21 665.87 914.02 679.14 C 920.43 690.89 919.71 706.14 912.10 717.17 C 904.21 729.30 888.10 735.39 874.25 730.83 C 858.44 726.21 848.00 709.31 849.78 693.13 C 850.99 678.46 861.97 664.86 876.53 661.70 M 880.45 684.56 C 875.29 686.24 871.74 691.65 872.05 697.04 C 872.10 703.32 877.56 709.27 883.99 709.13 C 890.75 709.31 896.49 702.73 895.93 696.09 C 896.08 688.45 887.85 681.85 880.45 684.56 Z" />
<path d=" M 877.49 869.76 C 892.25 866.48 908.13 874.90 914.54 888.42 C 919.54 898.39 919.65 910.66 914.80 920.71 C 909.64 931.87 898.25 939.94 885.89 940.54 C 870.95 941.60 856.50 931.33 851.81 917.25 C 846.13 902.33 851.77 884.00 865.04 875.05 C 868.76 872.43 873.04 870.65 877.49 869.76 M 878.51 893.68 C 874.15 896.08 871.50 901.22 872.10 906.17 C 872.59 912.83 879.17 918.58 885.93 917.26 C 893.92 916.05 898.41 906.18 894.70 899.17 C 892.06 893.23 884.21 890.30 878.51 893.68 Z" />
</g>
</svg>
