<?xml version="1.0" encoding="UTF-8" ?>
<!DOCTYPE svg PUBLIC "-//W3C//DTD SVG 1.1//EN" "http://www.w3.org/Graphics/SVG/1.1/DTD/svg11.dtd">
<svg width="1136pt" height="1253pt" viewBox="0 0 1136 1253" version="1.1" xmlns="http://www.w3.org/2000/svg">
<g id="#ffffffff">
<path d=" M 599.99 173.05 C 676.23 126.61 771.99 113.87 857.75 138.59 C 857.87 138.21 858.11 137.43 858.23 137.04 C 865.26 139.20 872.37 141.17 879.21 143.90 C 879.29 144.30 879.46 145.09 879.55 145.49 C 940.10 167.12 993.82 207.27 1031.96 259.01 C 1064.24 302.39 1085.23 353.96 1092.76 407.49 C 1103.63 482.91 1087.11 562.01 1046.53 626.56 C 1013.42 679.79 964.68 723.09 907.95 749.76 C 917.46 757.31 926.96 764.88 936.47 772.44 C 942.90 777.30 949.87 782.61 951.99 790.83 C 956.53 804.11 949.09 820.07 935.87 824.91 C 923.02 829.31 910.12 833.58 897.24 837.91 C 912.95 850.46 928.76 862.88 944.40 875.52 C 955.59 885.32 956.19 904.20 945.85 914.83 C 940.97 920.42 933.67 922.47 926.87 924.65 C 916.99 927.96 907.11 931.29 897.23 934.59 C 912.83 947.03 928.50 959.39 944.04 971.90 C 954.99 981.15 956.31 999.10 947.13 1010.02 C 943.95 1013.95 939.67 1016.99 934.89 1018.64 C 728.54 1087.91 522.18 1157.17 315.82 1226.45 C 310.07 1228.47 304.12 1230.20 297.98 1230.33 C 286.01 1230.53 273.98 1226.00 265.36 1217.63 C 190.20 1144.80 115.05 1071.95 39.88 999.13 C 35.46 995.12 32.12 989.83 31.01 983.93 C 27.97 971.30 35.33 957.19 47.47 952.52 C 58.33 948.74 69.28 945.19 80.17 941.47 C 66.03 927.73 51.80 914.08 37.73 900.27 C 28.27 890.51 27.97 873.77 36.86 863.54 C 40.11 859.67 44.46 856.73 49.27 855.17 C 59.56 851.71 69.87 848.28 80.16 844.79 C 66.16 831.17 52.07 817.64 38.10 803.98 C 28.68 794.61 27.81 778.36 36.00 767.94 C 39.37 763.42 44.24 760.08 49.59 758.38 C 59.78 754.98 69.96 751.54 80.14 748.13 C 66.28 734.58 52.28 721.17 38.42 707.62 C 33.44 702.76 30.69 695.95 30.34 689.06 C 30.07 679.85 34.48 670.50 42.20 665.33 C 46.01 662.51 50.67 661.38 55.07 659.86 C 63.71 656.95 72.37 654.06 81.01 651.15 C 66.80 637.31 52.51 623.55 38.30 609.71 C 33.36 604.81 30.63 597.98 30.33 591.08 C 30.15 582.14 34.31 573.07 41.69 567.89 C 45.80 564.68 50.96 563.50 55.78 561.81 C 184.68 518.52 313.60 475.25 442.50 431.94 C 445.62 381.76 460.56 332.41 485.64 288.84 C 506.64 253.52 533.86 221.86 566.14 196.36 C 566.34 195.99 566.76 195.25 566.96 194.88 C 575.48 187.99 584.53 181.75 593.74 175.81 C 595.63 174.46 598.15 174.53 599.99 173.05 M 742.58 150.86 C 675.65 156.26 611.03 185.17 562.01 230.98 C 516.05 273.50 483.77 330.56 471.20 391.91 C 462.50 434.67 462.98 479.29 472.67 521.85 C 480.96 557.70 495.88 591.99 516.37 622.56 C 550.24 673.11 599.56 713.16 656.13 735.65 C 713.40 758.78 777.79 763.20 837.90 749.37 C 878.77 739.79 917.59 721.61 951.13 696.38 C 999.23 660.28 1036.28 609.66 1055.88 552.77 C 1071.25 508.78 1075.80 461.20 1070.06 415.01 C 1063.38 360.69 1041.24 308.46 1007.35 265.53 C 972.37 221.09 924.81 186.68 871.56 167.58 C 830.48 152.64 786.10 147.21 742.58 150.86 M 274.59 517.36 C 352.55 588.71 430.53 660.05 508.50 731.39 C 514.14 736.16 518.96 742.01 525.47 745.66 C 529.98 748.87 531.50 754.88 530.50 760.14 C 530.32 788.09 530.51 816.05 530.41 844.01 C 530.11 847.48 532.57 850.46 532.38 853.95 C 532.49 857.13 530.32 859.86 530.42 863.02 C 530.44 889.37 530.44 915.72 530.42 942.06 C 530.22 945.16 532.04 947.97 531.89 951.08 C 531.75 953.76 530.33 956.22 530.42 958.93 C 530.44 985.64 530.44 1012.34 530.42 1039.05 C 530.25 1041.78 531.56 1044.29 531.76 1046.99 C 531.89 1049.74 530.43 1052.26 530.43 1055.00 C 530.43 1078.46 530.43 1101.92 530.43 1125.38 C 603.80 1100.75 677.17 1076.13 750.53 1051.50 C 750.54 1025.99 750.50 1000.49 750.55 974.98 C 750.86 971.51 748.49 968.49 748.71 965.03 C 748.67 961.90 750.74 959.19 750.55 956.07 C 750.51 897.46 750.54 838.86 750.53 780.25 C 720.47 778.57 690.64 772.73 662.20 762.85 C 602.84 742.39 549.73 704.33 511.21 654.75 C 468.21 599.83 443.57 530.89 441.94 461.16 C 386.15 479.89 330.37 498.63 274.59 517.36 M 57.81 590.17 C 133.26 663.39 208.81 736.51 284.30 809.69 C 288.85 814.34 295.99 816.08 302.19 814.14 C 364.59 793.20 426.98 772.25 489.37 751.30 C 407.82 676.66 326.23 602.06 244.70 527.40 C 182.40 548.32 120.10 569.23 57.81 590.17 M 59.92 687.24 C 59.26 687.44 56.94 688.06 58.79 688.99 C 133.99 761.81 209.15 834.69 284.34 907.53 C 289.01 912.29 296.41 913.94 302.70 911.78 C 369.41 889.38 436.11 866.99 502.83 844.61 C 502.84 821.68 502.83 798.75 502.83 775.82 C 438.86 797.26 374.93 818.79 310.95 840.20 C 295.34 845.49 277.11 841.22 265.33 829.75 C 211.30 777.40 157.29 725.03 103.25 672.69 C 88.82 677.56 74.38 682.41 59.92 687.24 M 802.03 779.06 C 794.10 780.10 786.04 779.88 778.14 781.03 C 778.10 803.65 778.15 826.26 778.12 848.87 C 827.37 832.34 876.64 815.83 925.87 799.26 C 910.20 786.73 894.48 774.25 878.77 761.76 C 854.00 770.53 828.18 776.38 802.03 779.06 M 57.81 784.67 C 132.02 856.64 206.28 928.55 280.51 1000.51 C 283.21 1003.03 285.68 1006.00 289.10 1007.59 C 293.19 1009.69 298.11 1009.89 302.47 1008.54 C 369.25 986.12 436.04 963.70 502.83 941.28 C 502.83 918.73 502.83 896.17 502.83 873.62 C 438.91 895.06 375.00 916.56 311.07 937.97 C 299.07 942.03 285.48 940.55 274.48 934.36 C 269.73 931.71 265.67 928.05 261.88 924.21 C 208.71 872.69 155.57 821.16 102.39 769.67 C 87.54 774.70 72.66 779.64 57.81 784.67 M 778.13 877.90 C 778.13 900.45 778.13 923.01 778.13 945.56 C 827.35 928.98 876.64 912.57 925.84 895.91 C 905.95 880.04 886.02 864.21 866.12 848.36 C 836.79 858.21 807.46 868.06 778.13 877.90 M 57.81 881.34 C 133.24 954.52 208.75 1027.62 284.21 1100.78 C 288.83 1105.55 296.15 1107.30 302.45 1105.24 C 369.24 1082.79 436.05 1060.40 502.83 1037.96 C 502.82 1015.40 502.84 992.86 502.82 970.31 C 440.39 991.27 377.96 1012.21 315.53 1033.18 C 309.87 1035.18 303.99 1036.84 297.95 1036.96 C 286.05 1037.15 274.09 1032.67 265.50 1024.38 C 211.12 971.72 156.79 919.01 102.40 866.36 C 87.54 871.37 72.67 876.33 57.81 881.34 M 778.14 974.56 C 778.12 997.12 778.13 1019.68 778.13 1042.24 C 827.37 1025.69 876.63 1009.19 925.87 992.63 C 905.99 976.73 886.02 960.93 866.13 945.04 C 836.79 954.87 807.48 964.75 778.14 974.56 M 57.82 978.03 C 132.62 1050.62 207.54 1123.10 282.35 1195.68 C 287.07 1201.27 294.86 1204.34 302.02 1202.04 C 368.96 1179.60 435.88 1157.10 502.82 1134.66 C 502.84 1112.10 502.82 1089.55 502.83 1066.99 C 444.22 1086.65 385.62 1106.34 327.01 1126.01 C 320.71 1128.03 314.51 1130.41 308.13 1132.16 C 293.12 1136.26 276.24 1131.60 265.16 1120.75 C 210.91 1068.18 156.67 1015.60 102.41 963.04 C 87.55 968.03 72.68 973.01 57.82 978.03 Z" />
<path d=" M 897.31 218.47 C 902.25 216.16 908.66 217.82 911.76 222.34 C 914.47 226.09 914.61 231.39 912.22 235.33 C 882.69 285.39 853.18 335.46 823.64 385.50 C 820.57 391.21 812.55 393.14 807.16 389.60 C 801.84 386.42 800.09 378.84 803.35 373.59 C 832.81 323.62 862.29 273.65 891.76 223.69 C 893.03 221.45 894.91 219.50 897.31 218.47 Z" />
<path d=" M 762.50 408.71 C 776.49 406.66 791.31 411.72 801.12 421.91 C 809.45 430.34 814.06 442.18 813.96 454.00 C 813.80 467.13 807.73 480.09 797.50 488.37 C 786.76 497.31 771.67 500.85 758.12 497.38 C 747.90 495.05 738.66 488.87 732.46 480.45 C 724.09 469.35 721.33 454.22 725.35 440.89 C 729.92 424.05 745.21 410.91 762.50 408.71 M 762.46 432.68 C 752.28 435.64 745.32 446.64 747.32 457.13 C 748.95 467.66 759.25 476.04 769.95 475.13 C 781.97 474.83 792.03 462.95 790.30 451.03 C 789.23 438.04 774.85 428.51 762.46 432.68 Z" />
<path d=" M 564.35 418.49 C 566.72 417.42 569.38 417.19 571.94 417.59 C 612.25 422.28 652.59 426.79 692.89 431.52 C 699.45 432.15 704.33 439.12 702.78 445.51 C 701.80 451.36 695.78 455.57 689.96 454.81 C 649.35 450.15 608.74 445.52 568.15 440.82 C 563.33 440.39 558.96 436.73 557.96 431.96 C 556.49 426.71 559.37 420.70 564.35 418.49 Z" />
</g>
</svg>
