<?xml version="1.0" encoding="UTF-8" ?>
<!DOCTYPE svg PUBLIC "-//W3C//DTD SVG 1.1//EN" "http://www.w3.org/Graphics/SVG/1.1/DTD/svg11.dtd">
<svg width="1136pt" height="1253pt" viewBox="0 0 1136 1253" version="1.1" xmlns="http://www.w3.org/2000/svg">
<g id="#ffffffff">
<path fill="#ffffff" opacity="1.00" d=" M 527.07 80.62 C 536.82 77.98 546.99 78.78 556.98 78.67 C 568.99 78.67 581.01 78.66 593.03 78.67 C 608.46 78.81 623.84 84.33 635.65 94.31 C 647.38 104.06 655.66 117.88 658.53 132.87 C 660.31 140.80 659.81 148.95 659.87 157.01 C 659.88 187.68 659.87 218.36 659.88 249.04 C 794.92 249.04 929.97 249.04 1065.01 249.04 C 1072.05 249.08 1079.19 248.68 1086.12 250.27 C 1101.04 253.14 1114.63 262.08 1123.33 274.52 C 1130.47 284.49 1134.21 296.74 1134.33 308.97 C 1134.33 546.30 1134.33 783.64 1134.33 1020.98 C 1134.00 1032.74 1135.49 1044.77 1132.20 1056.25 C 1126.92 1076.79 1109.77 1093.74 1089.15 1098.73 C 1078.35 1101.72 1067.06 1100.36 1056.01 1100.67 C 724.33 1100.66 392.65 1100.67 60.98 1100.66 C 43.18 1100.63 25.62 1092.26 14.53 1078.32 C 5.78 1067.61 1.10 1053.78 1.16 1039.98 C 1.17 796.31 1.16 552.64 1.17 308.98 C 1.23 293.32 7.58 277.76 18.72 266.72 C 29.75 255.50 45.34 249.10 61.05 249.04 C 199.24 249.03 337.43 249.05 475.62 249.04 C 475.62 219.36 475.62 189.68 475.62 160.00 C 475.73 150.01 474.95 139.85 477.60 130.09 C 483.10 106.08 503.05 86.11 527.07 80.62 M 533.53 106.84 C 516.28 110.86 502.78 127.26 502.75 145.06 C 502.70 202.03 502.75 259.00 502.72 315.96 C 502.55 322.14 503.13 328.45 505.62 334.17 C 511.34 348.75 526.22 359.29 541.95 359.39 C 556.62 359.45 571.30 359.40 585.97 359.42 C 592.98 359.52 600.24 359.59 606.83 356.81 C 621.82 351.25 632.72 336.06 632.75 320.00 C 632.79 263.99 632.75 207.97 632.77 151.96 C 632.90 145.15 632.85 138.12 630.16 131.73 C 624.67 116.95 609.84 106.10 594.02 105.82 C 579.69 105.75 565.36 105.81 551.03 105.79 C 545.18 105.85 539.25 105.43 533.53 106.84 M 28.31 307.89 C 28.24 549.60 28.29 791.32 28.27 1033.04 C 28.34 1037.32 28.03 1041.66 28.68 1045.93 C 30.97 1061.26 45.32 1073.76 60.90 1073.53 C 398.94 1073.54 736.97 1073.56 1075.01 1073.52 C 1091.83 1073.61 1106.95 1058.74 1107.19 1041.93 C 1107.29 797.62 1107.18 553.30 1107.22 308.99 C 1107.62 291.74 1092.28 276.08 1075.02 276.19 C 936.64 276.14 798.26 276.18 659.88 276.17 C 659.87 286.79 659.88 297.42 659.87 308.05 C 659.81 316.32 660.33 324.69 658.43 332.82 C 655.07 349.72 644.79 365.06 630.56 374.74 C 619.07 382.73 604.98 386.74 591.03 386.54 C 574.68 386.52 558.33 386.57 541.98 386.52 C 524.40 386.28 507.04 378.90 494.82 366.24 C 482.78 354.05 475.85 337.11 475.63 320.00 C 475.61 305.39 475.63 290.78 475.63 276.17 C 337.43 276.17 199.23 276.16 61.03 276.18 C 43.97 275.80 28.48 290.84 28.31 307.89 Z" />
<path fill="#ffffff" opacity="1.00" d=" M 298.57 423.84 C 335.29 419.11 373.76 431.79 400.40 457.50 C 428.77 484.16 443.28 524.55 438.48 563.17 C 434.70 596.51 416.84 627.92 390.10 648.18 C 360.92 670.83 321.36 679.33 285.46 670.69 C 253.54 663.50 225.03 642.96 207.72 615.25 C 188.60 585.11 183.40 546.65 193.77 512.50 C 201.96 484.52 220.43 459.76 244.75 443.72 C 260.80 432.96 279.43 426.26 298.57 423.84 M 300.63 450.89 C 267.79 455.05 238.10 477.28 224.52 507.43 C 215.46 526.79 213.40 549.14 217.91 569.98 C 222.32 589.56 232.84 607.72 247.72 621.21 C 259.64 632.16 274.33 640.00 290.00 644.01 C 312.92 649.64 337.89 647.02 358.85 636.03 C 386.91 621.79 407.24 593.34 411.33 562.11 C 413.97 542.70 410.96 522.47 402.14 504.93 C 392.17 484.56 374.90 467.88 354.19 458.62 C 337.55 450.97 318.74 448.50 300.63 450.89 Z" />
<path fill="#ffffff" opacity="1.00" d=" M 610.33 523.60 C 613.44 522.55 616.76 522.86 619.99 522.83 C 738.33 522.85 856.67 522.80 975.01 522.86 C 983.19 522.62 990.11 530.96 988.24 538.96 C 987.19 545.61 980.60 550.43 973.98 549.97 C 854.28 549.95 734.57 549.99 614.87 549.95 C 608.48 550.09 602.41 545.23 601.43 538.87 C 600.09 532.50 604.11 525.56 610.33 523.60 Z" />
<path fill="#ffffff" opacity="1.00" d=" M 613.23 632.29 C 733.15 631.99 853.10 632.27 973.03 632.15 C 977.77 631.84 982.80 633.52 985.69 637.46 C 990.20 643.04 989.10 652.09 983.34 656.39 C 979.35 659.78 973.83 659.35 968.96 659.30 C 851.00 659.30 733.03 659.31 615.07 659.30 C 608.56 659.53 602.34 654.55 601.41 648.06 C 599.87 640.68 605.69 632.86 613.23 632.29 Z" />
<path fill="#ffffff" opacity="1.00" d=" M 209.56 687.55 C 215.44 682.14 225.70 683.08 230.16 689.83 C 235.24 696.55 232.20 707.19 224.43 710.38 C 182.42 737.14 154.14 784.24 150.25 833.92 C 149.45 842.64 149.68 851.40 149.64 860.14 C 162.75 872.50 178.99 880.97 195.60 887.61 C 231.91 901.81 271.24 906.31 309.99 906.74 C 348.91 906.92 388.42 903.21 425.33 890.21 C 444.44 883.29 463.26 874.17 478.21 860.14 C 478.65 840.93 477.51 821.50 471.99 802.99 C 461.00 764.30 435.27 730.02 401.11 708.79 C 396.52 705.59 394.42 699.35 396.01 694.01 C 397.77 687.23 405.24 682.67 412.08 684.29 C 416.23 685.00 419.09 688.34 422.54 690.45 C 463.81 718.70 493.17 763.74 502.05 812.99 C 505.56 830.43 505.52 848.28 505.26 865.99 C 505.17 869.97 503.00 873.50 500.29 876.27 C 491.15 886.07 480.02 893.79 468.45 900.43 C 440.11 916.38 408.21 924.91 376.22 929.66 C 339.13 934.85 301.39 935.18 264.17 931.26 C 228.39 927.14 192.51 918.64 160.75 901.19 C 149.10 894.66 137.94 886.99 128.60 877.38 C 125.79 874.48 122.99 871.15 122.68 866.93 C 122.07 846.17 122.53 825.15 127.52 804.87 C 138.24 757.06 168.53 714.22 209.56 687.55 Z" />
<path fill="#ffffff" opacity="1.00" d=" M 610.40 734.56 C 613.49 733.54 616.78 733.85 619.99 733.82 C 738.32 733.84 856.66 733.80 974.99 733.84 C 981.76 733.72 987.94 739.32 988.44 746.07 C 989.41 753.71 982.79 761.10 975.09 760.93 C 855.05 760.97 735.01 760.95 614.97 760.94 C 607.06 761.30 600.14 753.71 601.28 745.87 C 601.80 740.76 605.48 736.10 610.40 734.56 Z" />
<path fill="#ffffff" opacity="1.00" d=" M 613.50 835.57 C 690.35 835.36 767.21 835.54 844.06 835.48 C 852.23 835.05 859.35 843.12 857.76 851.18 C 856.91 857.76 850.62 862.85 844.04 862.60 C 767.67 862.60 691.31 862.61 614.94 862.60 C 607.15 862.92 600.31 855.56 601.25 847.82 C 601.70 841.48 607.13 835.98 613.50 835.57 Z" />
</g>
</svg>
