<?xml version="1.0" encoding="UTF-8" ?>
<!DOCTYPE svg PUBLIC "-//W3C//DTD SVG 1.1//EN" "http://www.w3.org/Graphics/SVG/1.1/DTD/svg11.dtd">
<svg width="1136pt" height="1186pt" viewBox="0 0 1136 1186" version="1.1" xmlns="http://www.w3.org/2000/svg">
<g id="#ffffffff">
<path d=" M 93.14 188.20 C 101.57 181.52 112.26 177.87 122.98 177.65 C 334.33 177.65 545.68 177.65 757.03 177.65 C 764.06 177.74 771.23 177.13 778.11 179.01 C 794.82 182.67 809.01 195.77 814.17 212.06 C 815.76 217.21 816.76 222.59 816.72 228.00 C 816.72 242.67 816.72 257.34 816.72 272.00 C 816.70 275.39 816.93 278.82 816.21 282.16 C 870.68 301.59 920.49 333.71 961.04 374.91 C 995.74 410.28 1023.71 452.31 1042.58 498.15 C 1073.18 572.25 1079.97 655.99 1061.32 733.99 C 1046.98 795.93 1016.59 853.93 974.38 901.41 C 930.89 950.41 874.78 988.20 812.84 1009.63 C 770.86 1024.14 726.40 1031.51 681.98 1031.01 C 642.10 1030.64 602.31 1023.92 564.44 1011.45 C 488.13 986.36 420.34 936.45 373.38 871.32 C 293.58 871.30 213.77 871.32 133.97 871.31 C 126.95 871.24 119.81 871.77 112.93 870.01 C 96.28 866.53 82.05 853.73 76.63 837.64 C 74.88 832.26 73.79 826.64 73.83 820.98 C 73.84 623.00 73.82 425.02 73.84 227.05 C 74.03 212.07 81.21 197.32 93.14 188.20 M 99.34 227.94 C 99.33 425.65 99.33 623.35 99.34 821.06 C 98.88 833.89 110.19 845.70 123.02 845.77 C 200.81 845.82 278.59 845.79 356.37 845.78 C 333.31 808.12 317.01 766.38 308.16 723.13 C 266.09 723.10 224.03 723.18 181.97 723.09 C 174.39 723.18 168.05 715.49 169.72 708.08 C 170.59 702.19 176.13 697.62 182.05 697.63 C 222.62 697.57 263.20 697.62 303.77 697.61 C 299.17 663.93 299.06 629.65 303.38 595.94 C 263.22 595.94 223.07 595.93 182.92 595.94 C 179.24 595.96 175.44 594.71 172.94 591.92 C 168.85 587.71 168.36 580.63 171.77 575.87 C 174.22 572.19 178.69 570.30 183.03 570.42 C 224.54 570.44 266.05 570.42 307.56 570.43 C 314.54 535.11 326.39 500.75 342.90 468.75 C 289.57 468.77 236.23 468.74 182.89 468.76 C 179.07 468.80 175.16 467.38 172.64 464.43 C 168.13 459.49 168.55 451.03 173.59 446.61 C 176.58 443.70 180.93 443.03 184.94 443.22 C 242.40 443.26 299.87 443.23 357.34 443.24 C 381.34 404.36 412.18 369.69 448.21 341.57 C 361.16 341.58 274.11 341.56 187.06 341.58 C 184.11 341.56 181.07 341.81 178.22 340.88 C 173.42 339.46 169.93 334.88 169.53 329.93 C 168.70 322.84 174.78 316.06 181.92 316.09 C 279.92 316.01 377.93 316.10 475.93 316.05 C 478.57 315.98 481.23 316.06 483.81 316.71 C 538.20 283.09 601.12 263.60 664.94 260.15 C 707.43 257.79 750.26 262.64 791.21 274.18 C 791.19 258.47 791.24 242.75 791.19 227.04 C 791.24 214.34 779.77 202.95 767.06 203.12 C 552.69 203.09 338.32 203.11 123.95 203.11 C 110.74 202.67 98.80 214.74 99.34 227.94 M 676.35 287.47 C 600.28 289.07 525.20 316.30 465.43 363.29 C 415.49 402.35 376.12 454.81 352.89 513.82 C 321.73 592.04 319.76 681.43 347.07 761.04 C 366.11 816.79 399.18 867.65 442.42 907.67 C 485.31 947.67 538.25 976.75 594.96 991.68 C 636.63 1002.59 680.28 1005.72 723.11 1001.38 C 790.99 994.65 856.56 967.45 909.70 924.75 C 957.62 886.38 995.50 835.56 1018.30 778.54 C 1048.39 704.23 1051.97 619.67 1029.10 542.90 C 1013.01 489.10 984.09 439.18 945.29 398.58 C 905.35 356.45 854.98 324.33 799.95 305.84 C 760.29 292.37 718.19 286.39 676.35 287.47 Z" />
<path d=" M 839.39 367.67 C 846.17 365.48 854.23 369.60 856.31 376.44 C 857.78 380.50 857.03 385.10 854.77 388.71 C 819.98 447.60 785.29 506.55 750.50 565.43 C 746.67 572.29 736.70 574.22 730.49 569.51 C 724.70 565.50 723.09 556.94 726.81 551.01 C 761.59 492.07 796.34 433.11 831.13 374.17 C 832.90 371.04 835.87 368.56 839.39 367.67 Z" />
<path d=" M 677.48 592.72 C 691.85 590.31 707.20 594.24 718.67 603.25 C 728.03 610.51 734.95 620.99 737.63 632.56 C 741.60 647.83 738.06 664.80 728.53 677.34 C 721.11 687.27 710.09 694.53 697.96 697.16 C 682.70 700.91 665.86 697.16 653.47 687.56 C 643.86 680.21 636.82 669.48 634.17 657.66 C 630.30 642.30 634.02 625.27 643.74 612.79 C 651.85 602.09 664.21 594.79 677.48 592.72 M 681.16 620.15 C 669.23 622.29 659.74 633.79 660.41 645.99 C 660.35 659.38 672.60 671.30 685.99 670.85 C 700.07 671.30 712.65 658.07 711.47 644.02 C 711.22 629.06 695.78 616.93 681.16 620.15 Z" />
<path d=" M 446.34 603.57 C 450.15 602.12 454.21 603.09 458.12 603.50 C 503.78 608.74 549.45 613.97 595.12 619.21 C 598.86 619.53 602.60 621.00 605.07 623.93 C 609.42 628.71 609.65 636.58 605.61 641.63 C 602.70 645.45 597.68 647.43 592.94 646.86 C 545.90 641.47 498.87 636.05 451.83 630.69 C 446.84 630.47 441.69 628.38 439.12 623.88 C 434.50 616.79 438.17 606.06 446.34 603.57 Z" />
</g>
</svg>
