<?xml version="1.0" encoding="UTF-8" ?>
<!DOCTYPE svg PUBLIC "-//W3C//DTD SVG 1.1//EN" "http://www.w3.org/Graphics/SVG/1.1/DTD/svg11.dtd">
<svg width="1136pt" height="1186pt" viewBox="0 0 1136 1186" version="1.1" xmlns="http://www.w3.org/2000/svg">
<g id="#ffffffff">
<path d=" M 274.87 78.89 C 288.97 63.80 309.31 54.67 329.98 54.49 C 515.33 54.48 700.68 54.49 886.03 54.49 C 901.10 54.56 915.97 60.80 926.79 71.26 C 938.09 82.03 944.90 97.35 945.25 112.97 C 945.33 118.07 945.25 123.17 945.29 128.26 C 958.86 128.72 973.00 126.55 985.98 131.61 C 1006.35 138.88 1021.18 159.34 1021.36 181.02 C 1021.36 416.04 1021.38 651.05 1021.36 886.07 C 1021.28 909.32 1012.30 932.33 996.94 949.74 C 979.05 970.26 952.33 982.84 925.08 983.17 C 896.06 983.18 867.04 983.17 838.03 983.18 C 838.04 998.78 838.02 1014.39 838.04 1030.00 C 838.30 1051.70 830.84 1073.34 817.54 1090.47 C 802.02 1110.68 778.39 1124.45 753.12 1127.81 C 744.82 1129.08 736.42 1128.57 728.07 1128.67 C 534.18 1128.66 340.29 1128.70 146.40 1128.66 C 121.11 1102.18 95.88 1075.62 70.53 1049.19 C 70.41 792.13 70.53 535.07 70.48 278.01 C 70.28 264.06 74.12 250.13 81.20 238.14 C 94.39 215.44 119.75 200.36 146.04 200.00 C 181.97 199.99 217.89 199.99 253.82 199.99 C 253.82 177.01 253.82 154.02 253.82 131.03 C 253.90 111.82 261.68 92.82 274.87 78.89 M 291.03 93.00 C 280.97 103.31 275.14 117.61 275.21 132.02 C 275.19 154.68 275.21 177.34 275.20 199.99 C 417.79 199.98 560.39 200.00 702.99 199.99 C 715.77 200.13 728.42 204.67 738.51 212.49 C 750.07 221.37 758.22 234.57 760.89 248.91 C 762.52 257.09 761.78 265.48 761.95 273.76 C 775.27 274.24 789.11 272.11 801.91 276.85 C 822.46 283.84 837.59 304.22 838.02 325.97 C 838.06 511.42 838.00 696.88 838.06 882.33 C 858.70 882.32 879.35 882.35 900.00 882.32 C 908.85 882.31 917.33 876.90 921.25 869.00 C 923.52 864.71 924.04 859.78 923.85 855.00 C 923.83 608.32 923.85 361.65 923.85 114.97 C 924.00 104.03 919.20 93.18 911.05 85.89 C 903.75 79.21 893.83 75.59 883.96 75.86 C 854.28 76.03 824.62 75.55 794.95 75.67 C 717.28 75.74 639.61 75.48 561.95 75.89 C 484.98 75.85 408.00 75.87 331.03 75.87 C 316.10 75.89 301.36 82.24 291.03 93.00 M 945.18 149.66 C 945.40 259.44 945.23 369.22 945.28 479.01 C 945.28 603.67 945.32 728.33 945.28 852.98 C 945.48 859.88 945.08 866.92 942.63 873.44 C 937.82 887.19 926.03 898.22 911.98 902.07 C 903.88 904.52 895.34 903.59 887.02 903.77 C 870.69 903.77 854.36 903.77 838.03 903.77 C 838.03 923.11 838.04 942.45 838.03 961.79 C 865.68 961.80 893.34 961.78 921.00 961.80 C 946.60 962.63 972.03 949.63 986.40 928.45 C 995.39 915.51 1000.18 899.73 999.99 883.98 C 999.97 650.00 1000.01 416.01 999.98 182.03 C 1000.12 166.04 986.87 151.41 970.97 149.92 C 962.38 149.37 953.77 149.81 945.18 149.66 M 109.10 237.11 C 98.32 247.40 91.93 262.11 91.88 277.03 C 91.84 527.29 91.91 777.56 91.86 1027.83 C 299.92 1027.83 507.98 1027.83 716.04 1027.83 C 726.02 1028.08 735.65 1021.41 739.00 1012.02 C 740.66 1007.89 740.57 1003.38 740.51 999.02 C 740.50 752.67 740.52 506.32 740.51 259.97 C 740.70 243.71 729.38 228.25 713.92 223.33 C 706.87 220.79 699.30 221.43 691.95 221.36 C 663.51 221.37 635.07 221.36 606.62 221.37 C 606.63 348.91 606.63 476.45 606.62 603.99 C 606.79 610.76 602.30 617.27 595.95 619.58 C 590.40 621.77 583.80 620.56 579.30 616.68 C 557.98 599.65 536.61 582.69 515.31 565.64 C 494.54 582.12 473.83 598.67 453.10 615.20 C 449.93 617.96 446.20 620.37 441.88 620.61 C 432.54 621.67 423.56 613.44 423.92 604.03 C 423.90 476.47 423.94 348.91 423.91 221.36 C 331.94 221.42 239.98 221.33 148.02 221.37 C 133.65 221.31 119.40 227.10 109.10 237.11 M 445.35 221.37 C 445.34 345.56 445.38 469.75 445.33 593.94 C 465.35 578.06 485.28 562.07 505.29 546.19 C 511.07 541.63 519.89 541.76 525.57 546.43 C 545.45 562.26 565.31 578.11 585.19 593.95 C 585.24 469.78 585.09 345.60 585.26 221.43 C 538.63 221.28 491.99 221.41 445.35 221.37 M 761.84 295.17 C 762.08 395.76 761.89 496.35 761.95 596.94 C 761.94 732.62 762.00 868.31 761.94 1004.00 C 761.91 1016.00 756.83 1027.88 748.22 1036.24 C 739.76 1044.57 727.96 1049.38 716.08 1049.27 C 511.53 1049.23 306.97 1049.36 102.42 1049.24 C 120.58 1068.80 139.23 1087.95 157.62 1107.31 C 350.08 1107.25 542.54 1107.30 735.00 1107.29 C 743.59 1107.51 752.26 1106.82 760.54 1104.42 C 784.94 1097.71 805.26 1078.14 812.92 1054.03 C 815.78 1045.34 816.88 1036.15 816.66 1027.02 C 816.65 794.70 816.65 562.38 816.66 330.05 C 816.79 325.47 816.24 320.83 814.60 316.54 C 810.28 304.64 798.56 295.86 785.88 295.27 C 777.87 295.05 769.85 295.22 761.84 295.17 Z" />
</g>
</svg>
