<?xml version="1.0" encoding="UTF-8" ?>
<!DOCTYPE svg PUBLIC "-//W3C//DTD SVG 1.1//EN" "http://www.w3.org/Graphics/SVG/1.1/DTD/svg11.dtd">
<svg width="1136pt" height="1186pt" viewBox="0 0 1136 1186" version="1.1" xmlns="http://www.w3.org/2000/svg">
<g id="#ffffffff">
<path d=" M 230.57 377.19 C 241.27 377.14 251.96 377.17 262.66 377.17 C 312.94 510.07 363.26 642.94 413.53 775.83 C 401.84 775.82 390.14 775.86 378.45 775.82 C 364.70 738.59 350.91 701.39 337.12 664.18 C 276.79 664.17 216.47 664.18 156.14 664.17 C 142.41 701.38 128.76 738.62 115.04 775.83 C 103.27 775.83 91.49 775.84 79.71 775.83 C 129.99 642.95 180.31 510.08 230.57 377.19 M 166.53 635.33 C 219.83 635.33 273.13 635.34 326.43 635.33 C 299.83 562.97 273.08 490.66 246.55 418.27 C 219.76 490.58 193.22 562.98 166.53 635.33 Z" />
<path d=" M 754.67 377.17 C 768.09 377.16 781.51 377.17 794.93 377.17 C 832.36 433.38 869.77 489.60 907.20 545.81 C 944.61 489.61 982.05 433.42 1019.43 377.19 C 1032.86 377.13 1046.30 377.19 1059.73 377.16 C 1015.76 442.71 971.73 508.22 927.76 573.76 C 973.11 641.12 1018.48 708.47 1063.84 775.83 C 1050.33 775.84 1036.82 775.83 1023.31 775.83 C 984.59 717.80 945.92 659.74 907.20 601.71 C 868.32 659.75 829.43 717.77 790.58 775.82 C 777.24 775.85 763.90 775.83 750.56 775.83 C 795.98 708.42 841.59 641.13 886.91 573.65 C 842.75 508.21 798.75 442.66 754.67 377.17 Z" />
<path d=" M 464.30 548.84 C 464.35 539.15 464.20 529.47 464.38 519.79 C 540.48 519.88 616.58 519.81 692.68 519.83 C 692.72 529.50 692.68 539.17 692.70 548.84 C 616.57 548.85 540.43 548.85 464.30 548.84 Z" />
<path d=" M 464.30 632.33 C 540.44 632.33 616.57 632.33 692.70 632.34 C 692.68 642.01 692.73 651.68 692.67 661.35 C 616.56 661.31 540.44 661.33 464.33 661.35 C 464.27 651.68 464.31 642.01 464.30 632.33 Z" />
</g>
</svg>
