<?xml version="1.0" encoding="UTF-8" ?>
<!DOCTYPE svg PUBLIC "-//W3C//DTD SVG 1.1//EN" "http://www.w3.org/Graphics/SVG/1.1/DTD/svg11.dtd">
<svg width="1200pt" height="1263pt" viewBox="0 0 1200 1263" version="1.1" xmlns="http://www.w3.org/2000/svg">
<g id="#ffffffff">
<path d=" M 511.30 232.22 C 553.10 215.18 600.11 211.15 644.16 221.13 C 694.77 232.16 740.83 261.74 772.66 302.51 C 804.16 279.04 843.72 266.71 882.97 267.87 C 918.48 268.80 953.66 280.66 982.34 301.65 C 1004.20 317.38 1022.32 338.16 1035.26 361.75 C 1046.96 383.07 1054.14 406.79 1056.72 430.95 C 1061.53 476.42 1048.78 523.64 1021.14 560.14 C 995.46 594.67 957.06 619.64 914.85 628.31 C 863.99 639.50 808.56 626.36 767.92 593.87 C 748.71 616.78 724.99 635.91 698.45 649.69 C 665.45 666.83 628.11 675.51 590.94 674.76 C 550.63 673.91 510.57 662.01 476.48 640.46 C 457.49 628.52 440.31 613.73 425.61 596.79 C 394.61 619.16 356.25 631.03 318.04 630.18 C 281.50 629.33 245.23 617.07 215.96 595.11 C 183.93 571.42 160.04 536.88 149.36 498.48 C 140.88 468.79 139.97 436.95 146.98 406.85 C 154.82 371.54 173.67 338.83 200.07 314.13 C 223.17 292.49 252.01 276.92 282.98 270.16 C 330.60 259.13 382.59 269.24 422.69 297.18 C 446.35 268.75 477.00 246.12 511.30 232.22 M 572.54 243.69 C 537.02 247.64 502.82 261.85 474.58 283.69 C 447.61 304.49 426.04 332.20 412.51 363.46 C 395.29 402.59 391.30 447.16 400.18 488.90 C 408.32 526.64 427.43 561.96 454.71 589.28 C 480.20 615.11 512.88 633.78 548.11 642.49 C 590.15 652.76 635.65 649.13 675.21 631.41 C 706.89 617.49 734.69 595.03 755.29 567.25 C 778.17 536.50 792.16 499.18 794.84 460.92 C 797.91 421.36 789.36 380.94 770.05 346.24 C 751.10 311.81 721.93 283.05 687.08 264.85 C 652.21 246.37 611.70 239.10 572.54 243.69 M 290.52 295.79 C 263.00 301.64 237.21 315.37 216.93 334.86 C 193.66 357.02 177.61 386.58 171.56 418.12 C 166.23 447.01 168.56 477.46 179.36 504.86 C 192.44 538.76 217.75 567.86 249.79 585.11 C 283.62 603.81 324.74 608.22 361.95 598.09 C 378.88 593.41 394.93 585.70 409.32 575.66 C 380.71 533.86 366.69 482.44 369.68 431.92 C 371.97 391.79 384.78 352.27 406.83 318.64 C 397.71 312.48 387.93 307.32 377.72 303.22 C 350.25 292.10 319.48 289.88 290.52 295.79 M 837.98 299.92 C 819.97 304.91 802.90 313.29 787.87 324.39 C 814.19 367.34 825.75 419.02 820.51 469.10 C 816.75 505.83 804.17 541.66 783.81 572.49 C 808.27 591.87 838.76 603.79 870.01 605.16 C 898.77 606.80 927.91 599.99 952.89 585.63 C 977.33 571.78 997.76 551.00 1011.41 526.46 C 1024.45 503.24 1031.34 476.64 1031.17 450.01 C 1031.38 421.45 1023.39 392.95 1008.53 368.58 C 992.89 342.72 969.54 321.53 942.11 308.79 C 909.96 293.46 872.28 290.61 837.98 299.92 Z" />
<path d=" M 170.53 644.62 C 174.32 641.92 179.10 639.88 183.79 641.20 C 190.42 642.39 195.34 649.31 194.24 655.96 C 193.77 659.50 191.78 662.80 188.84 664.83 C 160.98 681.14 136.59 703.21 116.92 728.77 C 85.96 769.28 67.31 819.16 64.76 870.13 C 64.04 882.02 64.57 893.94 64.37 905.84 C 76.66 918.67 91.67 928.55 107.18 937.03 C 149.58 959.82 197.18 971.16 244.74 976.50 C 247.96 936.14 257.84 896.28 274.20 859.24 C 302.36 795.12 349.86 739.65 409.03 702.17 C 412.57 700.14 415.79 697.27 419.89 696.43 C 425.61 695.08 432.08 697.83 434.91 703.04 C 438.02 708.41 436.49 715.91 431.46 719.58 C 370.31 755.52 321.81 812.18 294.92 877.76 C 279.30 915.48 270.95 956.13 270.06 996.93 C 270.00 1008.99 269.94 1021.05 270.07 1033.10 C 276.64 1040.75 284.63 1047.10 292.58 1053.26 C 324.40 1076.95 361.22 1093.09 398.94 1104.80 C 448.83 1120.11 500.89 1127.29 552.90 1129.88 C 601.66 1131.94 650.65 1131.24 699.16 1125.53 C 744.67 1120.11 789.89 1110.33 832.61 1093.48 C 852.02 1085.80 870.90 1076.66 888.62 1065.58 C 903.26 1056.34 917.36 1045.94 929.20 1033.23 C 929.15 1009.40 929.85 985.47 926.52 961.80 C 916.60 881.69 875.90 805.94 814.70 753.33 C 802.06 742.38 788.57 732.42 774.41 723.54 C 771.27 721.43 767.34 720.20 765.16 716.92 C 761.62 712.25 761.91 705.19 765.83 700.84 C 769.96 695.93 777.61 694.69 783.16 697.84 C 851.05 738.55 904.33 802.78 932.21 876.84 C 944.53 909.43 952.05 943.82 954.62 978.57 C 1000.04 973.55 1045.41 963.00 1086.43 942.39 C 1104.28 933.20 1121.67 922.39 1135.64 907.81 C 1135.42 893.85 1136.08 879.85 1134.83 865.92 C 1131.75 824.56 1118.04 784.16 1095.88 749.15 C 1074.59 715.61 1045.43 686.96 1011.16 666.83 C 1006.55 663.69 1004.40 657.37 1006.30 652.10 C 1008.18 645.68 1015.44 641.64 1021.91 643.09 C 1025.70 643.72 1028.70 646.26 1031.91 648.17 C 1090.06 685.04 1133.69 744.04 1151.77 810.49 C 1157.84 832.48 1161.35 855.20 1162.05 878.02 C 1162.16 889.67 1162.10 901.33 1162.10 912.99 C 1162.15 916.76 1160.37 920.26 1157.86 922.98 C 1148.72 933.49 1137.66 942.15 1126.23 950.02 C 1097.68 969.27 1065.31 982.21 1032.21 991.23 C 1007.07 998.06 981.34 1002.59 955.46 1005.46 C 955.45 1016.64 955.50 1027.81 955.44 1038.99 C 955.14 1045.86 949.15 1050.26 944.96 1055.01 C 918.06 1081.61 884.51 1100.49 849.86 1115.11 C 807.45 1132.75 762.45 1143.54 717.06 1150.00 C 666.39 1157.21 615.05 1158.49 563.95 1156.97 C 510.93 1155.15 457.88 1148.57 406.62 1134.62 C 367.74 1123.97 329.77 1109.00 295.57 1087.46 C 278.37 1076.45 261.85 1063.98 248.30 1048.61 C 245.85 1045.96 243.83 1042.69 243.77 1038.99 C 243.70 1027.11 243.76 1015.24 243.73 1003.36 C 209.34 999.51 175.17 992.70 142.41 981.45 C 115.42 972.11 89.29 959.70 66.26 942.69 C 57.40 936.02 48.79 928.87 41.63 920.36 C 39.35 917.81 37.90 914.50 37.90 911.06 C 38.01 891.42 37.18 871.69 39.70 852.15 C 44.57 810.14 58.73 769.17 81.37 733.41 C 103.92 697.61 134.61 666.99 170.53 644.62 Z" />
</g>
</svg>
