<?xml version="1.0" encoding="UTF-8" ?>
<!DOCTYPE svg PUBLIC "-//W3C//DTD SVG 1.1//EN" "http://www.w3.org/Graphics/SVG/1.1/DTD/svg11.dtd">
<svg width="1136pt" height="1253pt" viewBox="0 0 1136 1253" version="1.1" xmlns="http://www.w3.org/2000/svg">
<g id="#ffffffff">
<path d=" M 574.05 167.83 C 612.79 166.60 651.67 168.37 690.03 174.00 C 728.61 179.73 766.73 189.66 802.45 205.48 C 829.57 217.48 855.20 232.93 878.09 251.82 C 904.47 273.55 927.12 299.76 945.05 328.85 C 972.84 373.79 989.02 425.13 996.83 477.17 C 1004.00 524.74 1004.52 573.10 1001.38 621.03 C 998.24 664.13 988.63 706.91 971.38 746.59 C 958.47 776.37 941.04 804.72 917.04 826.85 C 893.36 848.81 863.17 863.92 831.10 868.40 C 806.83 871.74 781.56 870.76 758.24 862.82 C 733.64 854.54 712.35 837.09 699.23 814.71 C 688.87 797.24 683.42 777.24 681.22 757.15 C 667.83 782.77 650.89 806.88 629.00 825.96 C 609.21 843.39 585.40 856.22 559.93 863.11 C 539.81 868.60 518.83 870.70 498.01 870.07 C 476.10 869.31 454.04 863.52 435.67 851.32 C 410.24 834.69 393.56 807.68 383.42 779.57 C 368.80 738.53 367.24 694.08 370.73 651.03 C 374.10 613.94 381.34 577.04 394.05 541.98 C 406.08 508.78 423.39 477.33 446.31 450.38 C 467.34 425.53 493.11 404.21 522.96 390.84 C 556.37 375.68 594.11 371.25 630.36 375.85 C 651.49 378.59 672.21 385.01 690.84 395.41 C 707.23 404.32 721.00 417.09 735.85 428.22 C 727.13 525.12 718.34 622.01 709.61 718.90 C 707.93 738.93 708.50 759.46 714.20 778.86 C 718.73 794.40 727.03 809.01 739.02 820.00 C 749.65 829.86 763.06 836.41 777.11 839.75 C 813.32 847.86 853.35 841.58 883.76 819.74 C 909.13 801.73 927.56 775.50 940.66 747.59 C 959.34 707.28 967.49 662.95 971.01 618.92 C 975.56 557.49 974.14 494.93 959.16 434.90 C 950.77 401.39 937.89 368.85 919.51 339.53 C 903.79 314.36 883.98 291.75 861.08 272.87 C 836.30 252.38 807.98 236.36 778.10 224.59 C 741.33 210.09 702.34 201.80 663.11 197.58 C 624.92 193.70 586.32 192.64 548.06 196.13 C 500.60 200.52 453.78 212.53 410.41 232.38 C 360.57 255.13 315.05 287.62 278.26 328.29 C 244.09 365.90 217.53 410.09 198.43 457.09 C 180.70 500.75 169.73 547.03 164.66 593.84 C 160.08 636.42 160.07 679.55 165.28 722.08 C 173.64 789.81 196.67 856.57 237.00 912.02 C 273.44 962.31 324.54 1001.36 381.72 1025.26 C 428.56 1044.94 479.30 1054.30 529.95 1055.92 C 568.02 1057.33 606.29 1053.88 643.42 1045.29 C 670.81 1038.99 697.75 1030.08 722.65 1016.92 C 726.84 1024.42 730.98 1031.95 735.31 1039.37 C 721.03 1048.33 705.31 1054.78 689.39 1060.21 C 666.56 1067.86 642.93 1072.83 619.19 1076.68 C 580.45 1083.07 540.98 1084.18 501.87 1081.23 C 454.06 1077.76 406.47 1067.96 362.07 1049.66 C 308.65 1027.79 260.09 993.36 223.55 948.51 C 180.62 896.16 154.22 831.69 141.74 765.51 C 133.42 721.58 130.99 676.68 132.64 632.04 C 134.45 583.33 141.30 534.67 154.83 487.80 C 175.81 414.93 213.47 346.15 267.49 292.53 C 311.88 248.31 366.85 215.22 425.92 194.63 C 473.50 178.00 523.75 169.61 574.05 167.83 M 577.93 402.30 C 547.73 406.26 519.09 419.45 495.63 438.75 C 470.41 459.25 450.49 485.79 436.04 514.80 C 418.46 549.91 408.47 588.31 402.35 626.95 C 396.14 667.15 395.18 708.56 403.32 748.56 C 407.45 767.89 414.39 786.89 425.80 803.17 C 435.08 816.47 447.40 827.89 462.14 834.85 C 475.75 841.39 491.02 843.93 506.04 843.60 C 529.28 843.35 552.70 839.39 574.09 830.09 C 597.60 820.12 617.65 803.29 633.58 783.52 C 654.39 757.80 669.14 727.75 680.62 696.88 C 681.48 694.27 682.84 691.76 682.99 688.97 C 690.50 606.35 698.08 523.73 705.61 441.11 C 689.91 423.63 668.66 411.59 645.95 405.92 C 623.79 400.39 600.55 399.39 577.93 402.30 Z" />
</g>
</svg>
