<?xml version="1.0" encoding="UTF-8" ?>
<!DOCTYPE svg PUBLIC "-//W3C//DTD SVG 1.1//EN" "http://www.w3.org/Graphics/SVG/1.1/DTD/svg11.dtd">
<svg width="1136pt" height="1253pt" viewBox="0 0 1136 1253" version="1.1" xmlns="http://www.w3.org/2000/svg">
<g id="#ffffffff">
<path d=" M 233.88 194.11 C 304.92 166.02 381.94 155.70 458.01 156.39 C 508.17 156.82 558.42 162.28 607.11 174.55 C 672.03 190.85 734.78 220.05 784.56 265.40 C 811.07 289.52 833.56 318.17 850.01 350.04 C 883.24 414.16 891.08 490.82 872.26 560.48 C 858.00 613.90 827.31 662.31 786.88 699.81 C 744.45 739.42 692.16 767.44 637.18 785.36 C 569.56 807.37 497.85 814.88 426.97 812.59 C 370.66 810.71 314.35 801.93 260.84 784.02 C 196.62 810.38 132.42 836.80 68.19 863.12 C 61.17 866.07 52.38 861.41 50.83 853.98 C 49.59 849.88 51.31 845.79 53.04 842.14 C 73.63 794.62 94.33 747.14 114.84 699.59 C 89.40 675.93 67.80 648.06 51.78 617.21 C 15.43 547.98 10.04 463.93 34.94 390.03 C 45.93 357.28 63.02 326.65 84.78 299.85 C 123.64 251.80 176.74 216.71 233.88 194.11 M 218.46 229.48 C 187.57 244.21 158.53 263.08 133.40 286.36 C 110.06 307.93 90.15 333.32 75.51 361.56 C 36.58 436.05 35.75 529.50 74.62 604.20 C 90.57 635.27 112.83 662.93 138.97 686.03 C 142.20 688.69 144.07 692.90 143.78 697.09 C 143.56 700.24 141.98 703.03 140.79 705.89 C 123.35 746.07 105.91 786.25 88.48 826.43 C 142.79 804.11 197.11 781.82 251.42 759.50 C 254.80 758.11 258.31 756.32 262.09 756.98 C 265.25 757.53 268.20 758.88 271.26 759.82 C 335.13 780.94 402.95 788.19 469.99 786.45 C 539.51 784.52 609.51 772.06 673.18 743.33 C 723.45 720.68 769.61 687.22 802.94 642.94 C 823.60 615.59 839.02 584.24 847.62 551.05 C 864.03 487.14 856.29 417.02 824.95 358.82 C 809.12 329.20 787.52 302.80 762.25 280.73 C 737.68 259.22 709.73 241.71 680.16 227.93 C 644.59 211.35 606.70 200.03 568.16 192.87 C 521.33 184.21 473.52 181.47 425.96 183.05 C 354.81 185.55 283.07 198.71 218.46 229.48 Z" />
<path d=" M 892.18 334.18 C 896.25 331.99 901.13 332.62 905.15 334.60 C 956.41 355.45 1004.18 386.32 1041.15 427.80 C 1063.33 452.65 1081.46 481.18 1094.06 512.04 C 1124.89 587.36 1122.94 675.79 1087.14 749.07 C 1070.83 782.80 1047.83 813.12 1020.47 838.65 C 1041.61 887.44 1062.83 936.18 1083.93 984.98 C 1086.84 991.57 1083.03 999.99 1076.21 1002.22 C 1072.49 1003.67 1068.38 1002.91 1064.89 1001.24 C 1001.46 975.15 937.98 949.15 874.56 923.03 C 794.52 949.65 708.82 956.34 625.06 949.50 C 567.77 944.54 510.79 932.01 457.88 909.16 C 433.74 898.70 410.48 886.12 388.83 871.16 C 383.25 867.37 381.70 859.05 385.44 853.47 C 389.03 847.49 397.67 845.52 403.48 849.40 C 452.65 883.21 509.78 904.15 568.18 915.25 C 619.12 924.89 671.27 927.46 722.99 924.63 C 770.82 921.89 818.51 913.92 864.05 898.84 C 869.34 897.01 875.22 894.29 880.69 897.18 C 936.15 920.01 991.67 942.70 1047.10 965.59 C 1029.57 926.13 1012.66 886.38 995.38 846.81 C 993.64 842.43 990.71 838.02 991.71 833.10 C 992.21 829.77 994.14 826.81 996.72 824.71 C 1023.53 800.96 1046.22 772.38 1062.20 740.27 C 1098.39 668.41 1098.29 579.84 1063.32 507.54 C 1045.38 470.23 1018.34 437.63 986.15 411.73 C 959.98 390.59 930.50 373.75 899.53 360.70 C 895.08 358.70 889.68 357.55 887.03 353.01 C 882.80 346.80 885.34 337.34 892.18 334.18 Z" />
</g>
</svg>
