<?xml version="1.0" encoding="UTF-8" ?>
<!DOCTYPE svg PUBLIC "-//W3C//DTD SVG 1.1//EN" "http://www.w3.org/Graphics/SVG/1.1/DTD/svg11.dtd">
<svg width="1136pt" height="1186pt" viewBox="0 0 1136 1186" version="1.1" xmlns="http://www.w3.org/2000/svg">
<g id="#ffffffff">
<path d=" M 367.52 151.71 C 372.29 150.71 377.18 150.98 382.02 150.96 C 500.36 150.96 618.69 150.96 737.03 150.96 C 747.23 151.24 757.83 149.78 767.60 153.55 C 784.85 159.47 797.33 176.71 797.55 194.96 C 797.61 244.99 797.55 295.03 797.58 345.06 C 797.65 350.78 796.66 356.51 794.64 361.86 C 788.46 378.92 771.15 391.05 753.01 391.08 C 627.33 391.11 501.65 391.09 375.97 391.09 C 357.99 391.28 340.65 379.61 334.12 362.86 C 331.53 356.57 330.58 349.73 330.79 342.97 C 330.81 293.97 330.79 244.98 330.80 195.99 C 330.83 186.05 334.21 176.14 340.35 168.32 C 346.99 159.72 356.85 153.72 367.52 151.71 M 371.16 175.19 C 361.74 177.27 354.39 186.32 354.57 196.02 C 354.56 246.02 354.56 296.03 354.57 346.03 C 354.48 354.29 359.78 362.21 367.32 365.50 C 372.20 367.87 377.74 367.27 382.98 367.33 C 506.00 367.33 629.01 367.33 752.03 367.33 C 761.09 367.64 769.77 361.43 772.65 352.89 C 774.07 349.09 773.80 344.99 773.82 341.02 C 773.80 292.69 773.83 244.35 773.80 196.02 C 774.06 184.86 764.21 174.71 753.05 174.68 C 627.69 174.62 502.33 174.69 376.97 174.65 C 375.02 174.66 373.06 174.76 371.16 175.19 Z" />
<path d=" M 617.39 207.55 C 624.34 205.23 632.36 210.84 632.56 218.16 C 632.67 250.44 632.57 282.72 632.61 315.01 C 632.73 319.04 630.78 323.11 627.38 325.33 C 623.02 328.36 616.67 327.93 612.79 324.32 C 610.12 322.00 608.74 318.46 608.84 314.96 C 608.83 283.99 608.86 253.01 608.83 222.04 C 607.98 215.97 611.12 209.14 617.39 207.55 Z" />
<path d=" M 692.44 207.61 C 699.70 205.02 708.15 211.18 707.87 218.89 C 707.91 250.93 707.88 282.98 707.88 315.03 C 708.10 320.10 704.80 325.09 699.95 326.68 C 694.55 328.72 687.93 326.09 685.43 320.89 C 683.76 317.84 684.15 314.29 684.12 310.96 C 684.15 280.27 684.10 249.58 684.14 218.89 C 684.07 213.85 687.60 209.03 692.44 207.61 Z" />
<path d=" M 555.39 421.57 C 558.43 420.32 561.82 420.99 565.03 420.82 C 568.28 420.97 571.92 420.22 574.81 422.14 C 577.46 423.75 578.86 426.88 578.67 429.93 C 578.64 449.61 578.70 469.29 578.65 488.97 C 578.71 493.08 575.22 496.88 571.11 497.10 C 566.71 497.22 562.30 497.24 557.91 497.09 C 553.80 496.79 550.41 492.95 550.51 488.85 C 550.49 468.95 550.49 449.05 550.51 429.15 C 550.46 425.94 552.46 422.86 555.39 421.57 Z" />
<path d=" M 551.51 532.83 C 565.71 529.81 580.91 531.83 593.88 538.35 C 606.31 544.55 616.64 554.87 622.84 567.31 C 629.57 580.66 631.50 596.39 628.08 610.95 C 624.90 625.19 616.67 638.21 605.25 647.27 C 593.40 656.78 578.12 661.85 562.94 661.40 C 546.97 660.98 531.24 654.45 519.77 643.32 C 510.18 634.18 503.55 622.03 501.02 609.03 C 497.61 592.22 501.30 574.14 510.97 559.98 C 520.29 546.13 535.14 536.15 551.51 532.83 M 561.27 555.36 C 546.12 556.44 532.22 566.79 526.58 580.84 C 522.06 591.78 522.58 604.71 528.05 615.22 C 533.86 626.67 545.29 635.13 558.00 637.12 C 568.68 638.90 580.04 636.34 588.80 629.93 C 599.27 622.48 605.94 609.93 605.97 597.05 C 606.29 584.77 600.61 572.59 591.15 564.78 C 582.95 557.84 571.96 554.40 561.27 555.36 Z" />
<path d=" M 231.68 590.01 C 231.57 585.62 235.56 581.69 239.94 581.85 C 311.62 581.82 383.31 581.83 454.99 581.84 C 458.81 581.57 462.58 584.20 463.53 587.93 C 464.18 592.57 463.73 597.31 463.80 601.99 C 463.80 606.51 459.53 610.34 455.04 610.00 C 389.97 610.01 324.90 609.99 259.84 610.00 C 259.84 637.36 259.83 664.72 259.84 692.08 C 260.03 695.13 258.60 698.28 255.94 699.89 C 252.99 701.80 249.31 701.00 246.00 701.18 C 242.46 700.97 238.48 701.89 235.36 699.76 C 232.78 698.10 231.46 695.00 231.66 691.99 C 231.69 658.00 231.64 624.00 231.68 590.01 Z" />
<path d=" M 668.72 582.73 C 670.97 581.53 673.61 581.88 676.07 581.82 C 746.72 581.86 817.37 581.80 888.01 581.84 C 892.40 581.66 896.43 585.60 896.32 590.00 C 896.36 624.01 896.31 658.02 896.34 692.02 C 896.76 696.34 893.45 700.68 889.07 701.07 C 884.69 701.27 880.30 701.19 875.93 701.12 C 871.76 701.00 868.16 697.20 868.19 693.05 C 868.12 665.37 868.18 637.68 868.16 610.00 C 803.09 609.99 738.01 610.01 672.93 609.99 C 668.46 610.33 664.20 606.51 664.20 602.00 C 664.12 597.99 664.13 593.99 664.19 589.99 C 664.18 586.96 666.02 584.07 668.72 582.73 Z" />
<path d=" M 38.54 760.70 C 41.34 760.15 44.20 759.92 47.05 759.91 C 172.70 759.92 298.36 759.89 424.01 759.93 C 442.51 760.00 460.07 772.69 465.91 790.25 C 469.25 799.11 468.31 808.69 468.43 817.96 C 468.39 864.29 468.49 910.61 468.38 956.94 C 467.87 979.72 447.73 999.78 424.92 1000.03 C 298.64 1000.06 172.35 1000.03 46.06 1000.04 C 41.31 1000.05 36.58 999.14 32.08 997.61 C 14.59 991.83 1.88 974.42 1.68 956.00 C 1.64 905.67 1.68 855.34 1.67 805.00 C 1.65 792.68 6.96 780.47 16.01 772.09 C 22.23 766.25 30.15 762.26 38.54 760.70 M 40.40 784.65 C 31.75 787.31 25.30 795.88 25.43 804.98 C 25.42 853.32 25.44 901.66 25.42 949.99 C 25.43 954.06 25.16 958.27 26.67 962.15 C 29.59 970.50 38.07 976.56 46.96 976.34 C 170.65 976.34 294.34 976.34 418.03 976.34 C 421.66 976.31 425.37 976.59 428.92 975.60 C 436.29 973.60 442.34 967.40 444.08 959.95 C 444.89 956.68 444.63 953.28 444.67 949.96 C 444.65 901.62 444.68 853.29 444.66 804.95 C 444.91 793.46 434.43 783.21 422.95 783.68 C 299.64 783.68 176.33 783.68 53.02 783.68 C 48.81 783.73 44.48 783.31 40.40 784.65 Z" />
<path d=" M 694.55 760.80 C 699.31 759.76 704.21 759.89 709.07 759.91 C 832.73 759.92 956.38 759.91 1080.04 759.92 C 1096.72 759.86 1112.88 769.92 1120.19 784.92 C 1123.60 791.73 1125.20 799.41 1124.90 807.03 C 1124.88 852.69 1124.90 898.34 1124.89 944.00 C 1124.79 952.25 1125.60 960.75 1122.79 968.70 C 1117.33 986.59 1099.73 999.89 1081.00 1000.04 C 954.67 1000.05 828.35 1000.05 702.02 1000.04 C 683.40 999.83 665.92 986.65 660.42 968.89 C 657.47 960.58 658.28 951.68 658.18 943.03 C 658.20 896.67 658.15 850.31 658.21 803.94 C 658.37 783.40 674.33 764.45 694.55 760.80 M 699.11 784.08 C 689.45 785.91 681.79 795.09 681.96 804.96 C 681.93 853.62 681.97 902.28 681.94 950.95 C 681.88 955.07 681.84 959.37 683.61 963.20 C 686.76 970.86 694.66 976.34 702.99 976.33 C 828.66 976.35 954.32 976.34 1079.99 976.33 C 1088.84 976.43 1097.20 970.28 1100.02 961.94 C 1101.57 957.81 1101.14 953.34 1101.20 949.03 C 1101.19 903.02 1101.19 857.00 1101.20 810.99 C 1101.15 806.62 1101.56 802.08 1099.96 797.91 C 1097.08 789.65 1088.76 783.59 1079.97 783.69 C 962.95 783.67 845.94 783.68 728.92 783.68 C 718.99 783.91 709.00 783.18 699.11 784.08 Z" />
<path d=" M 287.54 816.80 C 294.91 813.77 303.84 820.07 303.46 828.04 C 303.47 860.33 303.51 892.63 303.44 924.92 C 303.44 931.69 296.74 937.36 290.06 936.29 C 284.10 935.66 279.37 929.98 279.71 924.02 C 279.71 892.02 279.69 860.02 279.72 828.03 C 279.61 823.11 282.90 818.40 287.54 816.80 Z" />
<path d=" M 363.47 816.58 C 370.74 814.09 379.06 820.33 378.73 828.00 C 378.74 860.31 378.77 892.63 378.71 924.94 C 378.69 931.45 372.49 936.99 366.02 936.36 C 359.78 936.06 354.61 930.23 354.98 924.01 C 354.97 893.34 355.00 862.66 354.97 831.99 C 354.04 825.71 356.79 818.30 363.47 816.58 Z" />
<path d=" M 944.45 816.66 C 951.75 813.97 960.29 820.18 959.98 827.95 C 960.02 858.63 959.96 889.30 960.00 919.97 C 960.11 924.15 960.22 928.85 957.20 932.16 C 953.22 937.12 945.17 937.80 940.42 933.57 C 937.64 931.26 936.13 927.64 936.23 924.06 C 936.24 892.01 936.20 859.96 936.25 827.92 C 936.19 822.90 939.65 818.12 944.45 816.66 Z" />
<path d=" M 1019.52 816.73 C 1026.88 813.85 1035.61 820.15 1035.26 828.02 C 1035.29 860.00 1035.26 891.98 1035.27 923.96 C 1035.63 929.92 1030.93 935.62 1024.97 936.28 C 1018.29 937.39 1011.54 931.72 1011.54 924.94 C 1011.47 892.64 1011.52 860.34 1011.52 828.04 C 1011.41 823.06 1014.77 818.26 1019.52 816.73 Z" />
</g>
</svg>
