<?xml version="1.0" encoding="UTF-8" ?>
<!DOCTYPE svg PUBLIC "-//W3C//DTD SVG 1.1//EN" "http://www.w3.org/Graphics/SVG/1.1/DTD/svg11.dtd">
<svg width="1136pt" height="1253pt" viewBox="0 0 1136 1253" version="1.1" xmlns="http://www.w3.org/2000/svg">
<g id="#ffffffff">
<path d=" M 769.94 169.14 C 813.47 164.90 858.03 171.09 898.58 187.55 C 953.29 209.51 1000.32 249.87 1030.50 300.50 C 1055.46 342.09 1068.93 390.49 1068.93 439.01 C 1069.26 482.04 1059.07 525.09 1039.52 563.43 C 1017.50 606.84 983.57 644.11 942.45 670.17 C 956.96 681.74 971.49 693.28 986.00 704.84 C 993.62 710.90 997.37 721.40 995.34 730.91 C 993.73 740.09 986.88 748.11 978.06 751.12 C 965.71 755.31 953.33 759.42 940.97 763.59 C 956.25 775.79 971.61 787.91 986.86 800.16 C 997.85 809.43 998.84 827.61 989.19 838.19 C 984.43 844.03 977.03 846.22 970.14 848.38 C 960.41 851.64 950.69 854.91 940.96 858.18 C 956.32 870.44 971.76 882.60 987.06 894.93 C 997.57 904.01 998.77 921.37 989.87 931.96 C 985.51 937.74 978.58 940.46 971.86 942.40 C 772.40 1009.35 572.95 1076.30 373.49 1143.26 C 367.53 1145.34 361.41 1147.33 355.04 1147.44 C 343.75 1147.71 332.36 1143.66 324.00 1136.02 C 249.96 1064.41 176.05 992.64 102.04 920.99 C 97.89 917.13 94.77 912.10 93.70 906.50 C 90.75 894.17 97.88 880.39 109.73 875.82 C 120.41 872.12 131.16 868.60 141.87 864.98 C 128.04 851.53 114.12 838.17 100.34 824.67 C 90.61 814.75 90.77 797.34 100.52 787.48 C 103.52 784.39 107.24 781.97 111.35 780.63 C 121.53 777.23 131.69 773.79 141.88 770.39 C 128.00 756.89 114.02 743.50 100.21 729.94 C 90.87 720.26 90.77 703.59 99.80 693.68 C 102.86 690.24 106.81 687.56 111.19 686.10 C 121.41 682.65 131.65 679.25 141.87 675.79 C 128.04 662.37 114.15 649.01 100.37 635.53 C 91.21 626.16 90.67 610.04 99.04 600.00 C 102.24 595.99 106.66 592.97 111.54 591.38 C 121.93 587.90 132.32 584.40 142.71 580.92 C 128.59 567.19 114.37 553.55 100.30 539.76 C 91.13 530.33 90.70 514.14 99.18 504.14 C 102.59 499.92 107.35 496.89 112.53 495.35 C 254.66 447.64 396.79 399.92 538.91 352.16 C 558.84 293.20 599.87 241.77 652.72 208.95 C 688.02 186.87 728.49 173.11 769.94 169.14 M 774.60 194.83 C 731.71 198.55 689.92 213.91 654.80 238.80 C 626.21 258.96 601.99 285.25 584.26 315.40 C 565.52 347.16 554.13 383.22 551.20 419.98 C 547.48 464.93 556.30 510.88 576.75 551.12 C 604.11 605.56 652.38 649.09 709.43 670.53 C 764.46 691.50 827.06 691.71 882.24 671.15 C 920.83 656.88 955.67 632.69 982.62 601.61 C 1006.60 574.07 1024.38 541.13 1034.07 505.91 C 1049.14 451.65 1044.96 392.23 1022.08 340.75 C 999.06 288.32 957.11 244.53 905.73 219.26 C 865.39 199.20 819.45 190.76 774.60 194.83 M 331.82 449.95 C 412.07 523.50 492.43 596.93 572.73 670.43 C 576.68 672.86 581.48 675.67 581.96 680.83 C 582.14 802.21 581.78 923.60 582.16 1044.98 C 653.99 1020.87 725.82 996.75 797.65 972.65 C 797.69 885.91 797.64 799.18 797.65 712.44 C 745.99 712.75 694.35 697.92 650.80 670.11 C 598.17 636.85 557.64 585.01 538.16 525.87 C 523.53 481.91 520.49 434.18 529.24 388.70 C 527.81 387.48 526.36 386.29 524.91 385.10 C 460.56 406.73 396.18 428.33 331.82 449.95 M 119.71 521.19 C 193.46 592.81 267.36 664.28 341.15 735.85 C 345.64 740.54 352.76 742.38 358.96 740.43 C 420.06 719.94 481.14 699.41 542.24 678.91 C 462.39 605.86 382.55 532.80 302.71 459.74 C 241.70 480.21 180.71 500.69 119.71 521.19 M 119.80 616.84 C 136.07 633.04 152.75 648.83 169.18 664.88 C 226.70 720.61 284.21 776.36 341.74 832.09 C 346.98 837.30 355.29 838.08 361.89 835.16 C 426.35 813.48 490.85 791.88 555.31 770.20 C 555.31 747.72 555.32 725.24 555.31 702.76 C 492.82 723.72 430.35 744.72 367.85 765.67 C 354.24 770.34 338.43 767.76 327.01 759.01 C 323.96 756.76 321.36 754.02 318.64 751.41 C 267.19 701.58 215.78 651.68 164.30 601.88 C 149.48 606.90 134.63 611.85 119.80 616.84 M 858.52 705.33 C 847.32 707.33 836.12 709.29 824.90 711.17 C 824.30 713.39 824.51 715.70 824.50 717.98 C 824.51 736.80 824.49 755.63 824.50 774.46 C 872.76 758.24 921.03 742.08 969.28 725.83 C 951.97 711.95 934.57 698.18 917.22 684.36 C 898.55 693.57 878.83 700.73 858.52 705.33 M 119.72 711.48 C 193.60 783.20 267.60 854.80 341.52 926.48 C 345.94 930.89 352.78 932.55 358.75 930.77 C 424.28 908.81 489.79 886.79 555.31 864.81 C 555.31 842.69 555.32 820.57 555.31 798.45 C 492.72 819.44 430.14 840.49 367.54 861.45 C 354.05 866.00 338.46 863.39 327.13 854.79 C 323.53 852.14 320.51 848.83 317.28 845.78 C 266.00 796.11 214.77 746.40 163.47 696.76 C 148.90 701.70 134.29 706.55 119.72 711.48 M 824.50 802.69 C 824.50 824.80 824.51 846.91 824.50 869.03 C 872.76 852.83 921.04 836.69 969.27 820.39 C 949.78 804.81 930.22 789.33 910.73 773.76 C 881.98 783.37 853.24 793.04 824.50 802.69 M 119.71 806.10 C 193.00 877.18 266.35 948.19 339.65 1019.27 C 344.26 1024.71 351.89 1027.57 358.85 1025.34 C 424.34 1003.37 489.83 981.38 555.32 959.40 C 555.31 937.28 555.31 915.16 555.32 893.05 C 495.61 913.06 435.93 933.12 376.23 953.15 C 369.63 955.37 363.00 957.92 355.97 958.24 C 343.93 958.77 331.70 954.33 323.02 945.93 C 269.82 894.42 216.69 842.84 163.47 791.35 C 148.90 796.31 134.27 801.11 119.71 806.10 M 824.51 897.26 C 824.49 919.38 824.50 941.51 824.50 963.63 C 872.76 947.42 921.04 931.27 969.28 915.01 C 949.81 899.41 930.22 883.96 910.75 868.35 C 881.98 877.93 853.27 887.65 824.51 897.26 M 119.72 900.67 C 193.59 972.37 267.57 1043.96 341.48 1115.63 C 345.98 1120.15 353.01 1121.81 359.08 1119.86 C 424.49 1097.91 489.90 1075.95 555.31 1053.99 C 555.31 1031.87 555.32 1009.75 555.31 987.64 C 497.17 1007.14 439.03 1026.67 380.89 1046.18 C 372.74 1048.72 364.76 1052.35 356.12 1052.82 C 343.91 1053.42 331.51 1048.87 322.77 1040.28 C 269.69 988.84 216.59 937.41 163.52 885.95 C 148.92 890.84 134.31 895.74 119.72 900.67 Z" />
<path d=" M 720.61 308.05 C 720.36 300.90 726.88 294.61 733.99 294.96 C 773.33 294.93 812.66 294.96 852.00 294.94 C 860.10 294.83 868.27 295.82 875.95 298.47 C 889.86 303.13 901.71 312.93 909.90 324.99 C 920.93 341.14 926.24 360.67 927.22 380.07 C 928.13 400.23 924.50 420.95 914.74 438.77 C 908.17 450.85 898.43 461.40 886.23 467.91 C 876.39 473.24 865.15 475.75 853.99 475.69 C 818.20 475.69 782.41 475.68 746.62 475.69 C 746.61 490.78 746.62 505.87 746.61 520.96 C 785.44 520.99 824.28 520.93 863.11 521.00 C 869.03 520.87 874.59 525.37 875.78 531.17 C 877.15 536.82 874.12 543.11 868.90 545.63 C 865.55 547.41 861.67 546.97 858.03 547.03 C 820.89 547.02 783.75 547.03 746.61 547.03 C 746.59 561.97 746.67 576.92 746.57 591.86 C 746.37 599.17 739.02 605.17 731.82 603.94 C 725.52 603.19 720.39 597.29 720.61 590.94 C 720.60 576.30 720.60 561.67 720.61 547.04 C 712.40 546.97 704.19 547.11 695.99 546.98 C 689.15 547.02 683.11 540.82 683.30 533.99 C 683.10 527.17 689.13 520.97 695.96 521.01 C 704.17 520.90 712.39 521.01 720.61 520.96 C 720.58 505.87 720.63 490.77 720.59 475.68 C 712.12 475.65 703.65 475.77 695.19 475.63 C 688.38 475.25 682.73 468.72 683.32 461.93 C 683.52 455.37 689.44 449.63 696.02 449.69 C 704.21 449.63 712.41 449.69 720.61 449.67 C 720.61 402.46 720.60 355.25 720.61 308.05 M 746.63 320.95 C 746.59 363.85 746.64 406.75 746.61 449.66 C 782.74 449.68 818.87 449.68 855.00 449.66 C 866.39 449.74 877.66 444.71 885.09 436.06 C 895.86 423.69 900.36 407.04 901.24 390.95 C 902.01 372.70 898.30 353.56 887.56 338.47 C 880.61 328.55 869.29 321.51 857.03 321.09 C 820.23 320.87 783.43 321.18 746.63 320.95 Z" />
</g>
</svg>
