<?xml version="1.0" encoding="UTF-8" ?>
<!DOCTYPE svg PUBLIC "-//W3C//DTD SVG 1.1//EN" "http://www.w3.org/Graphics/SVG/1.1/DTD/svg11.dtd">
<svg width="1136pt" height="1186pt" viewBox="0 0 1136 1186" version="1.1" xmlns="http://www.w3.org/2000/svg">
<g id="#ffffffff">
<path d=" M 346.05 146.92 C 400.19 113.27 464.25 96.04 527.95 97.72 C 596.96 99.15 665.28 122.91 720.16 164.81 C 739.01 179.12 756.30 195.48 771.66 213.48 C 762.03 215.04 752.56 217.56 743.40 220.92 C 698.54 172.22 637.32 138.94 572.02 127.93 C 513.58 117.84 452.20 125.05 397.89 148.97 C 333.96 176.78 280.20 227.39 249.10 289.84 C 240.10 287.85 230.91 286.69 221.69 286.38 C 248.32 229.05 292.28 180.07 346.05 146.92 Z" />
<path d=" M 794.58 287.89 C 834.07 283.97 874.78 292.81 908.97 312.99 C 933.55 327.44 954.82 347.46 970.64 371.17 C 986.77 395.02 997.01 422.69 1000.89 451.19 C 1005.42 484.23 1000.80 518.38 988.09 549.18 C 970.70 591.26 937.53 626.47 896.66 646.50 C 865.35 661.84 829.74 668.39 795.03 664.99 C 762.86 661.86 731.45 650.56 704.99 631.94 C 674.77 610.98 650.87 581.01 637.24 546.85 C 622.97 511.10 619.76 470.97 628.66 433.48 C 637.23 395.64 658.10 360.83 687.05 335.05 C 716.69 308.42 754.93 291.72 794.58 287.89 M 792.55 312.83 C 750.63 317.82 711.21 340.03 684.82 372.91 C 661.19 402.05 647.88 439.45 648.33 477.01 C 648.12 517.08 663.63 556.85 690.46 586.54 C 711.50 610.09 739.46 627.29 769.91 635.60 C 803.65 644.63 840.34 642.94 872.89 630.11 C 897.28 620.63 919.33 605.24 936.64 585.61 C 955.38 564.50 968.53 538.47 974.44 510.87 C 981.42 477.26 978.12 441.40 964.05 410.01 C 950.18 378.34 926.02 351.31 896.13 333.96 C 865.19 315.67 828.16 308.35 792.55 312.83 Z" />
<path d=" M 194.60 351.82 C 219.32 348.91 244.82 353.67 267.05 364.80 C 293.71 378.34 315.37 401.44 327.00 429.01 C 337.17 453.50 340.11 481.16 333.93 507.05 C 327.53 536.93 309.63 564.08 284.98 582.07 C 254.89 604.53 214.46 612.57 178.10 603.09 C 146.57 595.60 118.55 575.12 101.20 547.83 C 88.75 528.61 82.07 505.86 81.16 483.05 C 80.25 452.50 90.47 421.66 109.96 398.05 C 120.17 385.44 132.92 374.98 147.04 367.02 C 161.66 358.80 178.01 353.93 194.60 351.82 M 195.56 375.79 C 163.92 379.65 134.79 399.33 119.00 426.97 C 108.41 445.00 103.69 466.25 105.39 487.09 C 107.75 524.50 132.59 559.20 166.89 574.12 C 185.83 582.88 207.46 584.88 227.92 581.43 C 260.48 575.61 289.54 553.20 303.37 523.14 C 312.96 503.43 315.25 480.64 311.38 459.19 C 305.52 428.53 285.06 401.04 257.29 386.75 C 238.54 376.64 216.63 373.15 195.56 375.79 Z" />
<path d=" M 109.29 610.21 C 115.31 606.94 123.79 609.63 126.39 616.08 C 128.67 621.22 126.64 627.86 121.73 630.68 C 84.08 652.54 55.59 689.34 43.40 731.11 C 37.31 750.99 36.21 771.94 36.70 792.61 C 49.60 805.23 65.81 813.83 82.30 820.80 C 121.68 837.05 164.75 841.73 207.03 842.09 C 250.89 842.56 295.63 839.33 337.15 824.15 C 356.74 816.81 376.05 807.30 391.31 792.71 C 391.80 772.35 390.79 751.71 384.91 732.08 C 372.90 689.97 344.32 652.81 306.45 630.77 C 300.84 627.69 299.04 619.79 302.46 614.47 C 305.74 609.09 313.28 607.29 318.77 610.22 C 353.09 630.37 380.91 661.29 397.52 697.45 C 405.56 714.99 410.79 733.77 413.53 752.85 C 415.78 767.79 415.35 782.94 415.22 798.00 C 415.01 803.26 410.85 806.92 407.43 810.41 C 396.28 821.00 383.19 829.41 369.49 836.32 C 337.40 852.16 301.93 859.97 266.52 863.77 C 241.11 866.40 215.51 866.46 189.99 865.74 C 148.19 864.06 106.01 857.23 67.44 840.50 C 50.64 833.05 34.60 823.47 21.11 810.91 C 18.34 808.09 15.20 805.36 13.60 801.66 C 11.94 796.29 13.02 790.58 12.72 785.05 C 11.71 744.52 23.14 703.56 45.98 669.97 C 62.24 645.63 84.07 625.06 109.29 610.21 Z" />
<path d=" M 658.19 685.21 C 662.25 682.52 666.89 679.54 672.00 680.78 C 678.91 681.74 684.11 689.37 681.82 696.12 C 680.78 700.18 677.28 702.86 673.67 704.58 C 623.06 735.02 583.10 782.70 561.87 837.80 C 549.91 868.36 543.92 901.18 543.86 933.99 C 543.87 941.88 543.85 949.77 543.88 957.66 C 558.25 972.34 575.74 983.56 593.89 992.99 C 631.32 1012.16 672.38 1023.33 713.82 1029.68 C 760.15 1036.87 807.20 1037.56 853.98 1036.31 C 899.78 1034.67 945.72 1029.02 989.72 1015.87 C 1019.62 1006.85 1048.81 994.50 1074.59 976.69 C 1082.69 971.05 1090.36 964.77 1097.29 957.73 C 1097.25 941.50 1097.80 925.23 1096.15 909.06 C 1090.07 841.21 1056.47 776.52 1005.04 731.96 C 992.44 720.98 978.88 711.04 964.36 702.75 C 958.74 699.39 957.16 691.16 961.03 685.91 C 964.66 680.62 972.39 678.99 977.95 682.14 C 1031.53 713.83 1074.57 762.99 1098.79 820.35 C 1111.33 850.08 1118.92 881.89 1121.24 914.07 C 1122.31 928.02 1121.77 942.02 1121.90 955.99 C 1121.82 959.01 1122.17 962.10 1121.55 965.09 C 1120.83 968.64 1118.10 971.23 1115.81 973.84 C 1105.21 985.09 1092.73 994.41 1079.76 1002.74 C 1051.07 1020.89 1019.13 1033.39 986.45 1042.27 C 934.24 1056.39 879.96 1061.47 825.99 1061.39 C 779.50 1061.85 732.80 1059.00 687.14 1049.86 C 649.93 1042.39 613.22 1031.07 579.59 1013.27 C 560.02 1002.76 541.20 990.30 525.75 974.21 C 522.54 970.88 519.06 967.00 519.30 962.04 C 519.47 945.35 518.74 928.63 520.13 911.98 C 524.52 854.71 546.12 798.88 581.74 753.78 C 602.94 726.67 628.98 703.39 658.19 685.21 Z" />
</g>
</svg>
