<?xml version="1.0" encoding="UTF-8" ?>
<!DOCTYPE svg PUBLIC "-//W3C//DTD SVG 1.1//EN" "http://www.w3.org/Graphics/SVG/1.1/DTD/svg11.dtd">
<svg width="1200pt" height="1263pt" viewBox="0 0 1200 1263" version="1.1" xmlns="http://www.w3.org/2000/svg">
<g id="#ffffffff">
<path d=" M 560.55 28.82 C 603.91 24.40 648.27 30.30 688.97 45.89 C 745.13 67.29 793.87 107.42 825.77 158.33 C 847.27 192.38 861.15 231.16 866.33 271.08 C 871.99 314.36 867.33 358.93 852.86 400.11 C 833.09 456.74 794.43 506.49 744.56 539.79 C 714.47 560.03 680.38 574.26 644.84 581.46 C 598.75 590.93 550.30 588.46 505.40 574.44 C 447.13 556.44 395.31 518.59 360.22 468.74 C 339.07 438.91 323.88 404.86 315.87 369.18 C 305.93 325.52 306.72 279.48 318.10 236.18 C 333.79 175.48 370.86 120.67 421.10 83.21 C 461.48 52.81 510.27 33.84 560.55 28.82 M 565.61 56.83 C 528.96 60.07 493.12 71.69 461.43 90.37 C 410.31 120.32 370.37 168.86 351.09 224.91 C 329.64 286.47 333.33 356.43 361.60 415.22 C 388.50 472.10 437.55 518.07 496.11 541.13 C 537.41 557.65 583.14 562.51 627.08 555.87 C 664.43 550.26 700.38 535.85 731.46 514.40 C 756.57 497.06 778.50 475.14 795.86 450.04 C 817.04 419.39 831.38 383.98 837.16 347.16 C 844.11 303.15 839.49 257.25 823.13 215.75 C 799.78 155.51 752.19 105.22 693.38 78.48 C 653.68 60.14 609.12 52.84 565.61 56.83 Z" />
<path d=" M 363.18 621.20 C 367.69 617.95 373.69 616.47 379.00 618.61 C 386.64 621.11 390.87 630.79 386.85 637.94 C 384.38 643.27 378.31 644.79 373.85 647.93 C 312.89 685.75 262.10 739.84 228.41 803.20 C 197.75 860.42 181.30 925.11 180.70 990.02 C 180.67 1003.46 180.62 1016.92 180.75 1030.36 C 189.58 1040.46 200.23 1048.87 210.93 1056.92 C 248.48 1084.24 291.43 1103.28 335.50 1117.37 C 377.99 1130.88 421.92 1139.52 466.14 1144.88 C 513.19 1150.55 560.64 1152.48 608.01 1151.73 C 657.11 1150.91 706.24 1146.97 754.65 1138.53 C 734.39 1104.36 723.57 1064.71 723.45 1025.01 C 723.26 986.37 733.20 947.71 752.16 914.03 C 769.72 882.67 794.90 855.62 824.97 835.92 C 860.90 812.12 903.84 799.23 946.92 798.93 C 911.91 735.13 859.59 680.93 796.98 643.85 C 790.81 639.52 789.10 630.01 794.22 624.22 C 799.87 616.95 811.11 617.72 817.75 623.19 C 854.44 646.00 887.91 674.04 916.44 706.51 C 941.65 735.11 963.06 767.03 980.07 801.15 C 1018.04 806.42 1054.58 821.64 1085.03 844.94 C 1115.68 868.22 1140.17 899.52 1155.41 934.87 C 1171.37 971.81 1177.16 1013.07 1171.96 1052.98 C 1167.24 1089.79 1153.28 1125.38 1131.53 1155.47 C 1109.65 1186.02 1079.96 1210.89 1046.08 1227.15 C 1008.69 1245.17 966.25 1252.41 924.98 1248.05 C 887.42 1244.12 850.89 1230.60 819.95 1208.92 C 801.95 1196.41 785.84 1181.22 772.19 1164.08 C 722.02 1173.76 670.99 1178.48 619.95 1179.86 C 534.05 1181.96 447.39 1175.89 363.87 1154.86 C 322.46 1144.36 281.86 1130.08 243.89 1110.40 C 220.53 1098.24 198.12 1084.07 177.98 1067.04 C 169.76 1059.95 161.67 1052.57 154.95 1044.00 C 151.41 1039.40 152.53 1033.35 152.37 1027.98 C 152.55 1005.97 151.73 983.92 153.52 961.95 C 158.89 889.45 182.76 818.38 222.49 757.47 C 258.31 702.20 306.83 655.28 363.18 621.20 M 933.59 827.87 C 889.86 830.95 847.51 849.53 815.37 879.29 C 787.27 905.05 766.91 939.14 757.66 976.13 C 748.51 1013.02 750.07 1052.60 762.57 1088.52 C 773.28 1119.50 791.93 1147.66 816.19 1169.68 C 843.91 1195.02 879.04 1212.21 916.12 1218.27 C 952.28 1224.20 990.13 1220.17 1023.97 1206.00 C 1059.54 1191.31 1090.50 1165.85 1111.98 1133.93 C 1131.70 1104.73 1143.39 1070.14 1145.14 1034.93 C 1147.21 998.48 1138.95 961.50 1121.27 929.53 C 1102.21 894.74 1072.40 865.96 1036.94 848.18 C 1005.21 832.08 969.03 825.15 933.59 827.87 Z" />
<path d=" M 1050.92 953.87 C 1055.78 948.37 1064.96 947.79 1070.48 952.63 C 1074.80 956.19 1076.62 962.45 1074.85 967.78 C 1073.84 971.34 1071.03 973.90 1068.59 976.52 C 1029.73 1017.99 990.90 1059.49 952.03 1100.96 C 947.04 1106.67 937.45 1107.11 931.98 1101.86 C 902.47 1075.08 872.96 1048.31 843.48 1021.50 C 838.15 1016.68 837.59 1007.73 842.22 1002.26 C 846.32 996.98 854.33 995.48 860.12 998.80 C 862.98 1000.51 865.24 1003.02 867.74 1005.21 C 892.08 1027.30 916.41 1049.41 940.76 1071.51 C 977.46 1032.28 1014.18 993.07 1050.92 953.87 Z" />
</g>
</svg>
