<?xml version="1.0" encoding="UTF-8" ?>
<!DOCTYPE svg PUBLIC "-//W3C//DTD SVG 1.1//EN" "http://www.w3.org/Graphics/SVG/1.1/DTD/svg11.dtd">
<svg width="1136pt" height="1253pt" viewBox="0 0 1136 1253" version="1.1" xmlns="http://www.w3.org/2000/svg">
<g id="#ffffffff">
<path d=" M 291.47 192.39 C 350.39 158.70 418.11 140.63 485.97 140.33 C 562.34 139.62 638.80 161.53 703.07 202.81 C 763.32 241.21 812.89 296.10 844.97 359.94 C 875.69 420.87 890.19 489.82 886.88 557.97 C 883.55 630.04 860.24 701.11 819.86 760.93 C 895.55 836.66 971.28 912.36 1046.98 988.07 C 1051.27 992.40 1055.78 996.56 1059.37 1001.51 C 1071.78 1017.94 1076.17 1040.11 1070.94 1060.02 C 1066.76 1077.13 1055.59 1092.33 1040.66 1101.63 C 1019.24 1115.34 990.22 1115.67 968.47 1102.51 C 959.12 1097.19 952.04 1088.98 944.46 1081.54 C 870.91 1008.00 797.37 934.46 723.83 860.92 C 681.23 892.13 632.35 914.77 580.93 926.85 C 518.07 941.85 451.56 941.21 389.00 925.04 C 323.39 908.34 262.43 874.22 213.49 827.48 C 163.78 780.13 126.48 719.77 106.84 653.95 C 94.51 612.89 88.83 569.84 90.14 526.98 C 92.04 461.92 110.10 397.35 142.57 340.91 C 177.81 279.32 229.79 227.47 291.47 192.39 M 479.29 164.50 C 421.52 165.76 364.14 180.75 313.15 207.95 C 252.98 239.82 201.86 288.47 166.96 346.93 C 137.90 395.44 119.99 450.62 115.40 507.00 C 111.51 553.71 116.12 601.19 129.57 646.12 C 148.19 708.68 183.60 766.10 231.05 810.91 C 282.77 860.11 348.85 894.07 419.05 907.14 C 482.27 918.90 548.57 914.53 609.46 893.67 C 660.90 876.15 708.41 847.24 747.61 809.61 C 786.70 772.29 817.56 726.41 837.35 676.12 C 862.28 613.31 869.16 543.67 858.17 477.06 C 847.41 411.53 818.48 349.15 775.75 298.35 C 732.45 246.63 675.00 206.88 611.22 184.87 C 568.96 170.13 524.01 163.41 479.29 164.50 M 805.44 780.92 C 787.28 804.97 766.15 826.74 742.99 846.00 C 816.65 919.66 890.31 993.32 963.97 1066.98 C 970.01 1072.90 975.65 1079.60 983.47 1083.28 C 999.48 1091.66 1020.42 1088.98 1033.78 1076.79 C 1046.43 1065.89 1051.92 1047.71 1047.65 1031.59 C 1045.55 1023.65 1041.28 1016.31 1035.40 1010.57 C 970.58 945.75 905.77 880.92 840.94 816.10 C 829.06 804.44 817.57 792.29 805.44 780.92 Z" />
<path d=" M 567.20 245.22 C 569.68 244.29 572.46 244.03 575.02 244.92 C 644.07 265.48 705.21 311.13 744.86 371.24 C 748.05 376.45 746.36 383.95 741.20 387.24 C 735.88 391.01 727.72 389.37 724.33 383.78 C 687.82 328.99 632.05 287.31 569.01 268.19 C 562.76 266.93 558.34 260.17 559.87 253.96 C 560.58 250.03 563.48 246.63 567.20 245.22 Z" />
<path d=" M 480.53 337.79 C 515.77 333.72 552.46 347.49 576.26 373.79 C 590.40 389.16 600.16 408.48 604.03 429.01 C 611.08 464.16 599.95 502.27 575.18 528.16 C 549.15 556.18 508.31 569.27 470.85 561.50 C 440.48 555.71 413.01 536.69 396.74 510.43 C 384.56 491.06 378.58 467.90 379.66 445.07 C 380.74 422.78 388.43 400.80 401.83 382.92 C 420.26 357.77 449.52 341.03 480.53 337.79 M 482.61 361.78 C 462.41 363.96 443.16 373.52 429.03 388.08 C 417.57 399.70 409.50 414.57 405.81 430.45 C 401.66 449.20 403.37 469.33 411.38 486.84 C 420.10 506.40 436.12 522.57 455.59 531.47 C 473.06 539.67 493.22 541.56 512.04 537.55 C 529.81 533.61 546.31 524.10 558.56 510.63 C 568.79 499.56 576.06 485.81 579.62 471.18 C 583.89 452.67 582.46 432.75 574.83 415.29 C 566.30 395.27 550.16 378.63 530.41 369.50 C 515.62 362.47 498.85 359.97 482.61 361.78 Z" />
<path d=" M 391.87 559.81 C 392.97 558.85 394.80 559.21 395.60 560.38 C 399.41 565.17 403.98 569.32 408.98 572.85 C 410.90 573.85 410.35 576.76 408.49 577.52 C 379.28 597.53 357.62 628.23 348.69 662.51 C 344.39 678.33 343.60 694.81 343.93 711.12 C 354.30 721.01 367.01 728.07 380.06 733.78 C 403.51 743.88 428.79 749.07 454.11 751.57 C 477.35 753.82 500.78 753.96 524.06 752.23 C 556.41 749.67 589.09 743.12 617.98 727.80 C 626.47 723.26 634.54 717.87 641.58 711.28 C 642.25 693.08 640.86 674.62 635.40 657.15 C 626.10 626.25 606.38 598.70 580.28 579.75 C 578.45 578.89 578.20 576.04 580.06 575.07 C 584.81 571.56 589.22 567.53 592.83 562.84 C 593.56 561.45 595.65 560.95 596.82 562.08 C 625.43 583.47 647.09 614.04 657.76 648.13 C 663.66 666.83 666.25 686.49 665.78 706.08 C 665.44 711.99 667.15 718.90 662.79 723.77 C 653.46 734.47 641.44 742.46 629.05 749.20 C 595.53 766.84 557.56 774.15 520.06 776.66 C 477.49 779.09 434.11 776.51 393.11 764.13 C 369.89 756.96 347.15 746.49 328.94 730.10 C 324.95 726.19 319.83 722.08 319.86 715.94 C 319.80 702.89 319.51 689.77 321.43 676.82 C 327.53 630.33 353.66 586.96 391.87 559.81 Z" />
</g>
</svg>
