<?xml version="1.0" encoding="UTF-8" ?>
<!DOCTYPE svg PUBLIC "-//W3C//DTD SVG 1.1//EN" "http://www.w3.org/Graphics/SVG/1.1/DTD/svg11.dtd">
<svg width="1136pt" height="1253pt" viewBox="0 0 1136 1253" version="1.1" xmlns="http://www.w3.org/2000/svg">
<g id="#ffffffff">
<path d=" M 488.85 28.81 C 496.66 22.22 506.80 18.50 517.02 18.33 C 631.03 18.32 745.05 18.33 859.06 18.33 C 874.04 18.55 888.78 26.24 897.34 38.57 C 901.10 43.95 903.49 50.42 903.44 57.03 C 903.42 164.02 903.44 271.00 903.43 377.99 C 903.31 386.69 904.02 395.52 901.90 404.06 C 899.41 416.13 892.59 427.57 882.15 434.37 C 875.07 439.11 866.49 441.41 858.01 441.42 C 831.75 441.41 805.48 441.46 779.22 441.41 C 745.83 475.26 712.46 509.13 679.11 543.03 C 676.76 545.69 673.64 547.80 670.03 548.18 C 662.83 549.29 655.65 543.23 655.60 535.92 C 655.49 504.44 655.58 472.95 655.55 441.46 C 649.70 441.13 643.10 442.66 637.98 439.04 C 632.63 435.45 630.93 427.67 634.18 422.14 C 636.48 417.89 641.28 415.44 646.05 415.55 C 653.70 415.53 661.35 415.50 669.00 415.63 C 675.56 415.74 681.26 421.48 681.34 428.03 C 681.45 453.31 681.36 478.59 681.39 503.87 C 708.08 476.76 734.78 449.67 761.47 422.57 C 763.68 420.36 765.76 417.80 768.75 416.62 C 772.31 415.14 776.24 415.65 779.99 415.58 C 806.29 415.54 832.59 415.60 858.89 415.57 C 864.83 415.66 870.40 412.12 873.40 407.09 C 876.54 402.02 877.62 395.97 877.63 390.07 C 877.66 279.36 877.61 168.64 877.65 57.92 C 877.88 54.84 875.61 52.37 873.58 50.35 C 869.42 46.42 863.75 43.95 857.99 44.13 C 745.32 44.11 632.64 44.19 519.97 44.12 C 509.13 42.80 498.35 51.98 498.59 63.02 C 498.53 91.99 498.62 120.96 498.54 149.93 C 498.45 155.47 494.46 160.72 489.03 162.01 C 483.17 163.77 476.34 160.59 473.93 154.97 C 472.46 151.85 472.73 148.32 472.73 144.97 C 472.75 117.67 472.73 90.36 472.74 63.05 C 472.83 50.02 478.77 37.12 488.85 28.81 Z" />
<path d=" M 349.59 185.88 C 402.46 181.19 456.83 195.26 500.62 225.30 C 528.57 244.29 552.27 269.47 569.59 298.48 C 588.38 329.76 599.42 365.58 601.92 401.96 C 604.90 445.36 595.42 489.56 574.78 527.86 C 559.43 556.35 538.13 581.64 512.54 601.47 C 485.74 622.37 454.30 637.30 421.11 644.69 C 381.12 653.86 338.73 652.00 299.62 639.66 C 263.55 628.38 230.45 607.95 203.94 581.06 C 180.29 557.03 161.85 527.85 150.56 496.07 C 140.56 467.92 135.92 437.85 137.21 408.00 C 138.85 369.16 150.27 330.72 170.46 297.48 C 188.42 267.74 213.11 242.09 242.18 223.07 C 274.14 201.96 311.46 189.21 349.59 185.88 M 348.64 211.90 C 307.32 215.91 267.48 233.02 235.80 259.80 C 206.76 284.27 184.72 316.93 172.90 353.01 C 161.11 388.59 159.31 427.39 167.69 463.92 C 173.22 488.22 183.19 511.49 196.98 532.25 C 215.60 560.41 241.27 583.85 271.00 599.84 C 302.42 616.86 338.31 625.42 374.03 624.57 C 410.13 624.01 445.96 613.57 476.82 594.84 C 510.88 574.29 538.75 543.67 556.03 507.84 C 573.24 472.80 579.53 432.76 575.13 394.06 C 571.79 360.60 559.26 328.28 540.30 300.60 C 517.99 268.15 486.31 242.21 449.98 226.97 C 418.21 213.41 382.97 208.46 348.64 211.90 Z" />
<path d=" M 979.07 439.13 C 1005.73 435.76 1033.69 445.25 1052.66 464.33 C 1074.10 485.39 1083.67 517.86 1076.58 547.13 C 1069.44 581.48 1039.76 609.58 1005.12 615.04 C 977.53 620.16 947.83 610.87 927.83 591.25 C 916.11 579.70 907.31 564.99 903.63 548.89 C 896.14 520.52 904.38 488.77 924.28 467.29 C 938.43 451.73 958.22 441.70 979.07 439.13 M 977.54 462.69 C 957.16 466.59 938.95 480.62 930.30 499.52 C 923.82 512.56 922.73 527.77 925.56 541.92 C 929.72 559.74 941.41 575.78 957.45 584.70 C 967.02 590.16 977.93 593.31 989.00 593.20 C 1006.95 593.78 1024.79 586.07 1037.18 573.18 C 1045.55 564.68 1051.29 553.75 1054.16 542.21 C 1056.88 528.70 1056.15 514.18 1050.39 501.52 C 1043.78 485.91 1030.85 473.13 1015.18 466.67 C 1003.44 461.43 990.12 460.66 977.54 462.69 Z" />
<path d=" M 914.37 631.37 C 917.79 629.24 920.97 626.35 925.08 625.67 C 930.77 624.43 937.25 628.24 938.48 634.05 C 939.85 638.69 937.74 644.17 933.54 646.64 C 910.23 660.15 892.34 682.49 883.91 708.05 C 879.16 721.52 878.16 735.95 878.47 750.12 C 890.60 761.04 906.00 767.53 921.41 772.37 C 945.21 779.46 970.27 781.21 995.00 780.99 C 1017.76 781.05 1040.75 779.20 1062.73 773.01 C 1078.90 768.12 1095.20 761.56 1107.85 750.06 C 1107.92 740.33 1107.74 730.54 1105.82 720.97 C 1099.74 690.32 1080.14 662.62 1053.14 646.87 C 1047.39 643.85 1045.66 635.71 1049.38 630.49 C 1052.59 625.66 1059.46 624.11 1064.58 626.71 C 1092.50 643.02 1114.27 669.73 1124.23 700.53 C 1128.75 714.89 1131.42 729.93 1131.00 745.03 C 1130.75 749.92 1131.75 755.08 1129.85 759.75 C 1127.63 763.73 1124.07 766.74 1120.68 769.68 C 1107.63 780.48 1092.12 787.96 1076.03 793.03 C 1054.35 799.84 1031.68 803.23 1008.99 804.05 C 983.95 804.79 958.70 804.16 934.09 799.10 C 908.89 794.05 883.54 785.28 863.87 768.17 C 860.18 764.72 855.74 761.06 855.33 755.65 C 854.86 741.68 855.20 727.55 858.50 713.90 C 865.44 680.50 886.12 650.38 914.37 631.37 Z" />
<path d=" M 532.55 642.65 C 539.79 641.53 547.19 643.77 553.23 647.75 C 606.46 679.02 651.45 724.08 682.60 777.38 C 710.05 824.08 726.56 877.08 730.90 931.06 C 732.65 952.02 731.92 973.07 732.01 994.08 C 732.06 1000.66 726.58 1005.06 722.54 1009.51 C 702.10 1029.94 677.44 1045.69 651.78 1058.75 C 601.18 1084.15 545.70 1098.47 489.88 1106.63 C 469.69 1109.64 449.30 1111.32 429.01 1113.13 C 418.99 1113.17 408.98 1114.16 398.95 1114.29 C 345.48 1115.78 291.84 1113.48 238.97 1105.02 C 192.30 1097.49 146.09 1085.46 102.89 1066.02 C 76.59 1054.11 51.33 1039.47 29.18 1020.85 C 22.51 1015.15 16.04 1009.15 10.48 1002.35 C 8.01 999.52 7.25 995.66 7.45 992.00 C 7.68 971.64 6.80 951.24 8.57 930.93 C 13.91 863.67 38.49 798.04 78.96 744.02 C 108.63 704.07 146.65 670.38 189.84 645.68 C 200.23 640.00 214.25 641.80 222.48 650.45 C 234.67 664.15 251.03 673.32 267.78 680.30 C 303.84 694.92 343.29 699.57 381.97 698.30 C 417.61 696.83 453.72 690.16 485.70 673.80 C 496.54 668.13 506.94 661.27 515.28 652.24 C 519.63 647.07 525.83 643.54 532.55 642.65 M 201.08 668.97 C 161.17 692.09 126.16 723.56 98.75 760.65 C 59.19 814.09 35.98 879.49 33.53 945.98 C 33.12 960.43 33.07 974.94 33.46 989.36 C 38.41 994.81 44.01 999.65 49.71 1004.32 C 72.53 1022.62 98.60 1036.49 125.54 1047.69 C 178.96 1069.66 236.27 1080.67 293.63 1085.71 C 288.40 1055.81 283.10 1025.92 277.91 996.01 C 273.93 971.44 274.82 946.10 280.48 921.86 C 290.69 880.92 301.15 840.05 311.44 799.14 C 298.47 769.29 285.57 739.42 272.61 709.58 C 247.32 701.08 222.52 688.62 204.21 668.78 C 203.40 667.52 202.00 668.47 201.08 668.97 M 467.10 709.46 C 454.63 740.17 441.99 770.84 429.81 801.66 C 438.50 836.62 447.45 871.53 456.24 906.47 C 459.65 919.47 462.81 932.60 463.99 946.03 C 465.83 964.62 464.88 983.48 461.32 1001.82 C 456.19 1029.77 451.10 1057.73 446.06 1085.69 C 509.98 1080.04 574.06 1067.01 632.38 1039.51 C 659.26 1026.55 685.40 1010.84 706.22 989.19 C 706.13 966.76 706.83 944.25 704.09 921.93 C 700.65 890.75 692.68 860.10 680.61 831.15 C 657.26 774.77 618.11 725.15 568.97 689.01 C 558.38 681.43 547.65 673.84 536.03 667.94 C 517.70 688.16 492.67 700.92 467.10 709.46 M 304.38 717.96 C 314.70 741.81 325.06 765.64 335.36 789.49 C 335.74 790.72 336.69 791.59 337.78 792.25 C 346.45 798.00 356.53 801.84 366.98 802.38 C 380.84 803.27 394.78 798.74 406.08 790.82 C 416.21 766.59 425.87 742.13 435.82 717.81 C 392.61 726.54 347.62 726.58 304.38 717.96 M 332.87 819.25 C 326.07 846.21 319.24 873.17 312.43 900.13 C 308.71 915.64 303.85 930.97 302.30 946.93 C 300.34 964.57 301.31 982.47 304.71 999.88 C 309.85 1029.11 314.97 1058.35 320.12 1087.58 C 353.23 1089.33 386.44 1089.33 419.56 1087.56 C 424.10 1062.30 428.70 1037.05 433.31 1011.80 C 435.10 1001.57 437.36 991.40 438.30 981.05 C 440.12 961.91 438.72 942.47 434.11 923.81 C 425.33 889.08 416.54 854.36 407.78 819.63 C 398.41 824.01 388.33 826.89 378.04 827.94 C 362.55 829.50 346.76 826.13 332.87 819.25 Z" />
<path d=" M 886.53 859.79 C 904.01 857.90 922.01 861.47 937.62 869.48 C 955.67 879.00 970.33 894.75 978.35 913.52 C 985.50 930.92 987.79 950.57 983.13 968.93 C 976.01 1002.43 947.54 1030.13 913.86 1036.35 C 895.25 1040.56 875.47 1037.63 858.18 1029.89 C 839.41 1021.12 823.92 1005.67 815.07 986.94 C 806.97 969.14 804.16 948.66 808.77 929.53 C 812.89 909.48 824.54 891.17 840.61 878.56 C 853.67 867.95 869.91 861.80 886.53 859.79 M 882.55 884.74 C 863.92 888.79 847.19 901.19 838.38 918.16 C 828.37 936.45 828.13 959.77 837.79 978.25 C 844.00 990.66 854.35 1000.99 866.79 1007.15 C 884.99 1016.57 907.87 1016.44 925.97 1006.82 C 938.14 1000.61 948.27 990.42 954.35 978.18 C 963.84 959.98 963.75 937.07 954.14 918.93 C 947.05 904.91 934.61 893.74 920.01 887.98 C 908.25 883.02 895.00 882.53 882.55 884.74 Z" />
<path d=" M 827.46 1047.71 C 833.66 1044.34 842.54 1047.25 844.80 1054.13 C 846.87 1059.36 844.61 1065.90 839.64 1068.60 C 812.53 1084.38 792.94 1112.26 787.01 1143.03 C 785.24 1152.29 785.05 1161.75 785.10 1171.16 C 795.52 1180.69 808.67 1186.62 821.83 1191.32 C 842.06 1198.35 863.55 1200.84 884.85 1201.67 C 905.31 1202.15 925.89 1201.93 946.15 1198.74 C 963.96 1196.07 981.51 1190.89 997.42 1182.37 C 1003.17 1179.27 1008.69 1175.70 1013.49 1171.25 C 1013.79 1157.25 1012.82 1143.01 1008.15 1129.71 C 999.78 1104.17 981.89 1081.87 958.63 1068.36 C 952.62 1064.92 951.31 1055.96 955.73 1050.75 C 959.35 1046.19 966.21 1045.07 971.28 1047.77 C 999.46 1064.36 1021.40 1091.48 1031.19 1122.74 C 1035.45 1136.72 1038.06 1151.31 1037.67 1165.98 C 1037.36 1171.32 1038.63 1177.08 1036.08 1182.06 C 1032.78 1186.97 1028.10 1190.75 1023.44 1194.32 C 1010.67 1204.03 995.85 1210.72 980.57 1215.39 C 959.66 1221.73 937.89 1225.01 916.08 1225.84 C 890.02 1226.68 863.71 1225.99 838.13 1220.50 C 813.42 1215.37 788.64 1206.49 769.41 1189.62 C 765.99 1186.36 761.90 1182.98 761.17 1178.03 C 759.63 1156.30 762.59 1134.17 770.59 1113.85 C 781.56 1086.33 801.92 1062.70 827.46 1047.71 Z" />
</g>
</svg>
