<?xml version="1.0" encoding="UTF-8" ?>
<!DOCTYPE svg PUBLIC "-//W3C//DTD SVG 1.1//EN" "http://www.w3.org/Graphics/SVG/1.1/DTD/svg11.dtd">
<svg width="1136pt" height="1253pt" viewBox="0 0 1136 1253" version="1.1" xmlns="http://www.w3.org/2000/svg">
<g id="#ffffffff">
<path d=" M 110.00 101.91 C 129.76 88.05 155.10 82.26 178.89 86.49 C 205.25 90.75 229.33 107.02 243.04 129.92 C 265.52 167.57 288.00 205.22 310.39 242.91 C 340.28 231.98 371.26 224.31 402.47 218.25 C 447.50 209.62 493.18 204.70 538.95 202.35 C 584.02 200.09 629.22 200.34 674.25 203.14 C 719.86 206.04 765.36 211.52 810.11 220.92 C 842.14 227.74 873.94 236.30 904.21 248.92 C 921.99 256.41 939.32 265.36 954.55 277.29 C 964.30 284.91 973.04 294.07 978.98 305.00 C 983.19 312.96 985.63 321.94 985.67 330.96 C 985.66 534.99 985.67 739.01 985.67 943.04 C 985.31 954.07 986.85 965.39 983.58 976.13 C 978.83 992.98 966.33 1006.37 952.70 1016.75 C 927.82 1035.41 898.52 1046.98 869.13 1056.44 C 828.55 1069.11 786.66 1077.20 744.56 1082.75 C 698.30 1088.72 651.66 1091.62 605.03 1091.71 C 561.28 1091.99 517.50 1089.84 474.01 1085.07 C 430.49 1080.23 387.18 1072.72 344.99 1060.86 C 319.05 1053.44 293.40 1044.42 269.63 1031.52 C 255.21 1023.54 241.24 1014.16 230.26 1001.74 C 220.75 991.08 213.99 977.47 213.67 963.00 C 213.65 803.02 213.67 643.04 213.66 483.06 C 213.90 470.65 213.18 458.19 214.04 445.81 C 172.67 376.27 131.18 306.80 89.76 237.28 C 84.74 228.73 79.13 220.40 75.89 210.95 C 69.34 193.46 68.18 173.95 72.90 155.86 C 78.07 134.13 91.65 114.59 110.00 101.91 M 115.12 133.11 C 103.54 145.36 96.92 162.17 97.17 179.03 C 97.05 190.79 100.57 202.42 106.59 212.47 C 115.14 226.86 123.69 241.25 132.32 255.60 C 170.13 232.92 208.02 210.35 245.90 187.77 C 237.19 172.96 228.33 158.23 219.53 143.46 C 208.47 125.39 188.20 113.32 167.01 112.40 C 147.75 111.02 128.28 119.10 115.12 133.11 M 146.12 278.88 C 235.96 429.32 325.51 579.94 415.40 730.35 C 453.29 707.80 491.15 685.18 529.01 662.56 C 439.25 512.09 349.61 361.53 259.80 211.09 C 221.87 233.61 184.04 256.33 146.12 278.88 M 469.95 236.14 C 420.85 242.02 371.81 250.96 325.02 267.31 C 354.68 317.28 384.55 367.14 414.24 417.09 C 459.72 425.31 505.83 429.82 552.00 431.71 C 596.35 433.46 640.82 432.82 685.09 429.56 C 726.41 426.47 767.60 421.18 808.14 412.53 C 839.48 405.72 870.59 396.99 899.95 383.90 C 915.58 376.74 931.08 368.52 943.69 356.65 C 950.12 350.46 956.14 342.94 957.50 333.87 C 958.72 325.59 954.80 317.63 949.73 311.35 C 941.17 300.95 929.85 293.27 918.20 286.72 C 900.08 276.64 880.64 269.17 860.93 262.85 C 824.43 251.26 786.73 243.91 748.85 238.63 C 703.18 232.34 657.10 229.34 611.02 228.89 C 563.91 228.45 516.75 230.68 469.95 236.14 M 912.13 409.12 C 883.02 422.18 852.22 431.06 821.16 438.15 C 780.27 447.41 738.65 453.18 696.90 456.69 C 653.39 460.30 609.68 461.38 566.05 460.19 C 521.52 458.94 477.03 455.31 432.99 448.53 C 470.36 511.09 507.58 573.74 544.98 636.29 C 630.08 639.95 715.86 635.73 799.54 619.20 C 833.30 612.32 866.83 603.32 898.44 589.46 C 914.57 582.17 930.59 573.83 943.59 561.62 C 950.63 554.85 957.46 546.29 957.66 536.07 C 957.70 484.61 957.66 433.15 957.68 381.69 C 943.97 393.04 928.30 401.79 912.13 409.12 M 241.63 491.98 C 241.64 506.60 241.60 521.22 241.65 535.84 C 241.66 544.83 247.11 552.69 253.06 558.97 C 265.99 572.29 282.68 581.10 299.36 588.80 C 280.07 556.55 260.83 524.27 241.63 491.98 M 241.62 586.56 C 241.64 640.35 241.62 694.14 241.63 747.93 C 241.27 755.74 245.30 762.95 250.13 768.80 C 260.17 780.62 273.59 788.93 287.21 796.05 C 318.16 811.79 351.75 821.57 385.49 829.29 C 455.83 844.76 528.03 850.52 599.96 850.67 C 666.35 850.55 732.91 845.47 798.10 832.61 C 833.33 825.48 868.36 816.13 901.21 801.33 C 917.42 793.78 933.58 785.10 946.17 772.16 C 952.39 765.66 957.99 757.38 957.68 748.01 C 957.67 694.20 957.67 640.38 957.68 586.57 C 935.76 604.59 909.42 616.19 882.88 625.63 C 852.18 636.34 820.43 643.83 788.47 649.70 C 713.61 663.09 637.28 667.19 561.34 664.93 C 561.66 667.93 561.56 670.95 561.52 673.97 C 560.70 722.31 559.86 770.65 559.06 818.99 C 559.08 823.23 557.99 827.84 554.56 830.64 C 550.51 834.42 544.22 835.14 539.30 832.70 C 494.52 809.13 449.79 785.49 405.02 761.90 C 402.22 760.51 400.13 758.08 398.63 755.39 C 373.26 712.76 347.78 670.19 322.46 627.53 C 311.83 624.33 301.52 620.16 291.31 615.83 C 273.65 608.14 256.51 598.88 241.62 586.56 M 437.87 748.54 C 469.35 765.10 500.79 781.74 532.26 798.30 C 532.80 762.59 533.54 726.88 534.02 691.17 C 501.98 710.31 469.94 729.44 437.87 748.54 M 241.62 799.67 C 241.63 852.13 241.63 904.58 241.62 957.04 C 241.64 961.41 241.37 965.96 243.08 970.10 C 247.02 980.47 255.47 988.26 264.05 994.91 C 277.72 1005.09 293.16 1012.60 308.85 1019.10 C 341.67 1032.41 376.18 1041.08 410.93 1047.60 C 456.15 1055.98 502.01 1060.62 547.93 1062.66 C 594.26 1064.65 640.71 1064.02 686.95 1060.54 C 728.60 1057.36 770.13 1051.93 810.97 1043.03 C 843.53 1035.78 875.89 1026.52 906.10 1012.15 C 921.23 1004.75 936.26 996.18 947.72 983.60 C 953.01 977.65 957.67 970.29 957.67 962.08 C 957.69 907.95 957.66 853.82 957.68 799.69 C 945.54 809.75 931.84 817.77 917.64 824.56 C 886.55 839.27 853.32 848.85 819.86 856.45 C 766.67 868.35 712.33 874.56 657.93 877.26 C 585.52 880.64 512.71 878.04 440.91 867.72 C 401.76 861.96 362.83 853.93 325.15 841.70 C 295.55 831.82 265.98 819.63 241.62 799.67 Z" />
<path d=" M 867.57 464.80 C 877.69 461.94 888.94 463.70 897.87 469.20 C 907.01 474.78 913.63 484.32 915.51 494.89 C 918.90 510.95 910.57 528.51 896.06 536.16 C 884.66 542.39 870.18 542.36 858.84 536.03 C 849.43 530.83 842.27 521.59 839.97 511.05 C 837.88 503.09 838.87 494.56 841.95 486.99 C 846.48 476.20 856.18 467.66 867.57 464.80 M 872.48 492.68 C 869.15 494.50 866.77 498.13 866.83 501.98 C 866.53 507.91 872.10 513.34 878.03 512.87 C 884.40 512.82 889.57 506.16 888.09 499.95 C 886.87 493.19 878.46 489.11 872.48 492.68 Z" />
<path d=" M 871.56 669.76 C 889.72 666.50 909.08 678.33 914.33 696.05 C 918.27 707.88 915.95 721.55 908.33 731.41 C 903.09 738.36 895.40 743.48 886.92 745.46 C 875.28 748.56 862.27 745.54 853.01 737.89 C 846.56 732.61 841.84 725.19 840.00 717.04 C 837.04 705.51 840.03 692.67 847.58 683.49 C 853.51 676.15 862.22 671.18 871.56 669.76 M 874.52 697.63 C 870.43 698.88 867.15 702.70 866.87 707.01 C 866.15 712.81 871.11 718.53 876.94 718.68 C 883.23 719.28 889.03 713.26 888.25 707.00 C 887.87 700.50 880.74 695.60 874.52 697.63 Z" />
<path d=" M 870.23 883.14 C 889.08 878.97 909.68 891.48 914.62 910.16 C 919.56 925.85 912.96 944.23 899.17 953.20 C 890.20 959.27 878.54 961.38 868.06 958.56 C 856.41 955.82 846.48 947.13 841.89 936.13 C 838.84 928.54 837.88 919.99 840.01 912.03 C 843.19 897.55 855.63 885.70 870.23 883.14 M 872.49 911.63 C 869.10 913.45 866.72 917.18 866.83 921.07 C 866.61 926.96 872.16 932.30 878.05 931.82 C 884.37 931.75 889.53 925.17 888.11 918.99 C 886.94 912.19 878.49 908.05 872.49 911.63 Z" />
</g>
</svg>
