<?xml version="1.0" encoding="UTF-8" ?>
<!DOCTYPE svg PUBLIC "-//W3C//DTD SVG 1.1//EN" "http://www.w3.org/Graphics/SVG/1.1/DTD/svg11.dtd">
<svg width="1200pt" height="1263pt" viewBox="0 0 1200 1263" version="1.1" xmlns="http://www.w3.org/2000/svg">
<g id="#ffffffff">
<path d=" M 336.38 61.47 C 397.36 28.36 470.89 19.53 538.03 36.94 C 597.46 51.98 651.34 87.51 688.89 135.93 C 717.60 114.40 751.66 100.17 787.12 94.73 C 833.19 87.51 881.48 95.41 922.83 116.97 C 976.30 144.61 1017.58 194.95 1033.58 253.05 C 1049.17 307.46 1042.58 367.75 1015.67 417.53 C 990.26 465.05 946.89 502.69 896.13 520.85 C 857.94 534.63 815.93 537.79 776.17 529.40 C 753.39 524.71 731.33 516.44 711.17 504.83 C 701.26 499.29 692.10 492.57 682.98 485.86 C 660.29 513.23 632.22 536.11 600.94 552.99 C 564.42 572.73 523.42 584.07 481.96 586.00 C 441.05 587.98 399.71 580.85 361.86 565.16 C 301.53 540.35 250.64 493.56 220.75 435.60 C 204.68 404.65 194.57 370.64 191.01 335.95 C 186.40 291.42 192.65 245.79 209.22 204.19 C 233.11 143.65 279.02 92.19 336.38 61.47 M 447.52 55.85 C 397.74 59.79 349.39 79.23 310.57 110.61 C 283.26 132.57 260.57 160.25 244.45 191.37 C 224.08 230.44 214.50 274.95 216.59 318.94 C 218.76 371.18 237.97 422.46 270.45 463.41 C 292.45 491.31 320.37 514.52 351.86 530.97 C 386.63 549.24 425.75 559.04 465.01 559.51 C 506.55 560.18 548.23 550.42 585.04 531.12 C 614.06 516.01 640.06 495.18 661.20 470.21 C 684.53 442.71 701.88 410.15 711.59 375.42 C 722.46 336.63 723.77 295.24 715.65 255.80 C 707.53 216.38 689.65 179.05 664.18 147.90 C 643.10 122.05 616.88 100.41 587.47 84.68 C 544.92 61.74 495.65 51.78 447.52 55.85 M 809.98 119.48 C 771.98 121.34 734.82 135.17 704.45 158.00 C 720.02 182.66 731.79 209.74 738.97 238.02 C 750.35 282.41 750.56 329.62 739.57 374.11 C 731.71 406.21 718.00 436.86 699.40 464.17 C 718.75 479.79 741.15 491.56 764.92 498.81 C 799.61 509.23 837.24 509.64 872.20 500.19 C 901.79 492.02 929.44 476.79 952.01 455.97 C 973.46 436.34 990.38 411.84 1001.15 384.84 C 1013.63 353.97 1017.45 319.83 1013.12 286.88 C 1009.24 257.18 998.02 228.55 981.18 203.81 C 964.50 179.43 942.26 158.86 916.54 144.32 C 884.42 125.92 846.92 117.29 809.98 119.48 Z" />
<path d=" M 983.34 569.44 C 981.45 562.63 986.25 555.11 993.03 553.52 C 996.50 552.43 1000.32 552.93 1003.58 554.49 C 1061.96 588.90 1109.68 641.05 1138.82 702.23 C 1157.15 740.59 1168.13 782.42 1171.26 824.82 C 1172.63 842.49 1171.91 860.23 1172.09 877.94 C 1172.34 882.43 1172.00 887.37 1168.75 890.83 C 1157.70 903.89 1144.06 914.47 1130.02 924.12 C 1098.28 945.48 1062.65 960.49 1026.10 971.40 C 989.69 982.30 952.12 988.87 914.38 993.04 C 914.50 1007.33 914.40 1021.62 914.43 1035.92 C 914.62 1042.45 909.17 1046.86 905.24 1051.32 C 883.15 1074.02 856.52 1091.79 828.78 1106.82 C 792.24 1126.42 753.09 1140.84 713.09 1151.61 C 628.79 1174.22 541.00 1180.67 454.00 1179.38 C 365.97 1178.20 277.24 1167.67 193.60 1139.21 C 147.11 1123.13 101.94 1101.51 63.37 1070.63 C 53.69 1062.74 44.33 1054.34 36.30 1044.74 C 33.95 1042.06 32.76 1038.49 32.96 1034.94 C 33.24 1009.61 32.13 984.22 34.35 958.95 C 39.94 889.84 62.41 822.16 99.38 763.49 C 136.07 705.01 186.84 655.45 246.22 620.21 C 252.90 616.34 262.58 618.90 266.00 625.95 C 268.80 631.13 267.20 638.02 262.64 641.67 C 234.16 658.16 207.78 678.32 184.12 701.21 C 135.45 748.22 98.69 807.48 78.42 872.05 C 66.09 911.10 59.85 952.03 59.67 992.97 C 59.66 1005.60 59.68 1018.23 59.69 1030.87 C 78.62 1050.96 101.73 1066.63 125.65 1080.15 C 169.10 1104.32 216.59 1120.52 264.91 1131.69 C 348.75 1150.92 435.32 1154.73 521.03 1151.91 C 569.02 1150.11 616.96 1145.16 664.06 1135.67 C 705.26 1127.33 745.88 1115.47 784.44 1098.61 C 813.09 1086.02 840.73 1070.72 865.34 1051.29 C 873.25 1044.98 880.92 1038.30 887.73 1030.80 C 887.56 1005.87 888.46 980.87 885.91 956.03 C 879.15 882.14 851.42 810.38 807.01 750.97 C 774.18 706.94 732.51 669.37 684.97 641.84 C 680.31 638.27 678.58 631.37 681.32 626.12 C 684.52 619.28 693.62 616.50 700.30 619.76 C 781.25 667.26 845.93 741.82 881.64 828.62 C 899.67 872.21 910.44 918.77 913.57 965.84 C 959.98 960.95 1006.18 951.65 1049.84 934.88 C 1078.31 923.86 1105.91 909.83 1129.87 890.75 C 1135.11 886.44 1140.30 882.00 1144.88 876.99 C 1145.52 852.04 1145.42 826.84 1141.55 802.09 C 1130.78 729.43 1093.25 661.26 1038.09 612.84 C 1023.71 600.19 1008.27 588.69 991.77 578.96 C 987.78 577.15 984.26 573.85 983.34 569.44 Z" />
</g>
</svg>
